<?xml version="1.0" encoding="UTF-8"?><svg id="Layer_1" xmlns="http://www.w3.org/2000/svg" width="520" height="520" viewBox="0 0 520 520"><defs><style>.cls-1{fill:#231f20;}</style></defs><path class="cls-1" d="M218.16,467.35c-1.41-.06-2.55-.54-3.57-.84-.33-.1-.26-.29.15-.34.79-.08,1.58-.2,2.39-.32.25-.09,2.3-.11,4.61-.24,2.31-.1,4.89-.31,6.2-.44,2.53-.16,5.06-.22,7.59-.26,5.15-.13,10.3-.33,15.45-.58,1.14-.04,2.29-.05,3.44-.03,3.93.08,7.86-.07,11.79-.32.65-.04,1.33-.05,1.95-.2,1.03-.25,11.71-.75,13.1-.71,3.46.06,6.9.12,10.35.18.49.01,1.02-.06,1.47.08,1.05.31,2.11.23,3.18.24,1.48.01,2.96.05,4.44.16.73.05,1.45.24,2.17.39.65.13.3.63.07.69-.66.16-.12.39-.06.6.02.07.05.16.02.22-.02.03-.56.12-1.37.23-.82.11-1.91.25-3.02.39-2.23.32-4.56.6-5.02.6-.11,0-3.25.17-6.54.34-3.29.19-6.72.4-7.42.46-.73.06-1.47.01-2.21,0-.35.02-10.22.65-10.62.68-2.05.04-4.1.25-6.15.03-.4-.04-.82,0-1.23.01-3.53.17-7.06.2-10.59.19l-5.42.09c-.33,0-.65-.03-.98-.05-.41-.02-.82-.05-1.23-.04-4.28.06-8.55-.06-12.84-.05-.99-.03-5.68-.61-6.82-.68-.64-.04-2.7-.51-3.26-.51Z"/><path class="cls-1" d="M296.92,135.9c.77,1.43,2.04,2.63,3.49,3.34,1.63.79,3.34,1.04,5.12.76.38-.06.79-.43.97-.75.2-.35.29-.86.16-1.25-.3-.91-1.1-1.28-2-1.13-.34.05.3-.03.09-.01-.08,0-.16.02-.24.02-.16.01-.32.02-.48.01-.15,0-.29,0-.44-.02-.08,0-.16-.03-.24-.02.12-.01.37.06.1,0-.3-.05-.6-.13-.89-.22-.13-.04-.33-.16-.46-.16.11,0,.33.15.08.03-.07-.03-.15-.07-.22-.11-.28-.14-.54-.3-.79-.47-.06-.04-.13-.1-.2-.14.11.06.26.21.06.05-.11-.09-.22-.19-.33-.29-.12-.11-.23-.23-.34-.34-.09-.1-.39-.52-.12-.12-.18-.27-.37-.53-.52-.82-.4-.75-1.5-1.05-2.22-.58-.76.49-1.02,1.42-.58,2.22h0Z"/><path class="cls-1" d="M229.33,459.11c-.16-1.2-.29-2.25-.19-3.68.05-.51.08-1.08.32-1.62.43-.97,1.18-1.71,1.98-2.13.84-.38,1.67-.54,2.49-.57.71-.02,1.38,0,2.03.08.83.05,1.61.33,2.32.73.22.13.15.29-.09.5-.25.19-.69.51-1.14.61-.4.1-.77.12-1.12.15-.35.04-.69.09-1,.15-.63.12-1.11.29-1.63.48-.29.13-.57.29-.74.51-.18.22-.26.44-.35.72-.21.61-.14,1.66,0,2.67.08.62.19,1.23.36,1.82.26.89.55,1.79,1.1,2.5.42.55,1.03.89,1.58,1.13l.37.13c.43.2.48.41.29,1.23-.04.18-.07.37-.12.55-.15.61-.61,1-1.23.91-.9-.14-1.76-.61-2.45-1.22-.69-.61-1.23-1.36-1.65-2.12-.63-1.14-.94-2.36-1.19-3.53l.07-.02Z"/><path class="cls-1" d="M229.05,450.89c.13-.21.14-.52.5-.42.1,0,.16-.03.26-.02.32.03.7.06,1,.08.13,0,.24-.02.34-.05.13-.04.28-.15.45-.03.05.04.07.36.08.68.01.32.06.63.06.63-.03.03-.05,0-.28-.16-.15-.09-.15-.03-.24-.04-.05,0-.11-.02-.17-.03-.05,0-.06.03-.09.04-.03.03-.06.06-.09.1-.04.07-.12.1-.08.27.02.11.16.22.26.32.02.02.06.05.07.07.04.09-.1.11-.66.11h-.38c-.43,0-.78-.05-.9-.12-.35-.21-.37-.38-.35-.61.03-.29.08-.58.16-.83l.05.02Z"/><path class="cls-1" d="M257.37,453.06c.32-1.02.82-1.97,1.5-2.8.25-.3.44-.65.76-.91.59-.42,1.23-.72,1.94-.9.69-.17,1.37-.2,2.01-.13.57.05,1.12.16,1.65.34.35.1.67.31.93.57.12.14.21.33.28.51.08.17.05.44.05.63-.03.27.03.17-.2.17-.12,0-.32.04-.59.18-.24.1-.46.21-.63.3-.14.05-.23.06-.34.1-.05.02-.1.04-.15.06-.04,0-.08,0-.12,0-.16,0-.31.02-.47.03-.31,0-.62-.04-.99-.07-.45-.06-.71.43-1.04.74-.39.35-.76.83-1.01,1.41-.16.35-.28.73-.32,1.13-.08.61-.1,1.27.1,1.9.12.5.54.89.74,1.36.03.11.09.21.1.32.06.43-.14.68-.66,1.03-.12.08-.23.16-.34.23-.35.22-.86.24-1.29.04-.31-.16-.62-.33-.92-.53-.24-.22-.45-.46-.6-.74-.33-.55-.56-1.17-.64-1.85-.15-.99-.08-2.07.17-3.14h.09Z"/><path class="cls-1" d="M234.48,451.89c-.57-.16-1.13-.33-1.7-.49-.21-.06-.42-.05-.62-.12-.72-.24-1.43-.47-2.12-.72-.31-.12-.63-.19-.94-.26-.4-.12-.79-.26-1.16-.51-.11-.08-.07-.19.06-.32.14-.13.38-.34.63-.41l.65-.14c.21-.03.42-.02.62-.02.21,0,.41.02.61.05.2.05.4.11.59.19.47.18,1,.13,1.49.19.55.07,1.1.14,1.65.21.34.04.68.09,1.02.13.51.05,1.03.13,1.55.1.4-.03.79-.21,1.18-.33.09-.03.17-.08.26-.09.32-.06.43.11.52.78l.06.46c.05.52-.07.95-.31,1.11-.72.46-1.52.51-2.3.48-.58-.03-1.17-.1-1.75-.21v-.06Z"/><path class="cls-1" d="M263.06,450.32c-.43-.11-.86-.21-1.29-.3-.16-.04-.31,0-.47-.03-.57-.15-1.14-.26-1.73-.37-.26-.05-.51-.05-.77-.03-.32.01-.65,0-1-.13-.11-.05-.13-.29-.09-.58.05-.29.16-.64.33-.78.15-.11.31-.23.47-.33.16-.07.33-.13.49-.18.17-.05.33-.09.51-.1.17,0,.35.04.53.08.43.11.84-.06,1.27-.07.47-.02.94.04,1.4.08.29.03.58.06.86.09.43.03.86.12,1.29.08.33-.03.67-.23,1-.35.07-.02.15-.07.22-.08.27-.02.35.19.35.97v.53c-.01.6-.15,1.09-.35,1.26-.59.56-1.16.51-1.74.48-.43-.04-.86-.13-1.29-.19v-.07Z"/><path class="cls-1" d="M238.86,450.07c-.22.16-.45.32-.66.49-.08.06-.1.16-.18.22-.28.21-.63.37-.91.58-.13.09-.21.22-.28.34-.1.16-.16.35-.56.29-.12-.01-.27-.13-.47-.33-.1-.1-.23-.23-.35-.38-.14-.15-.23-.27-.22-.34-.04-.26.07-.42.2-.57.12-.15.28-.28.48-.37.24-.11.3-.37.47-.54.18-.19.39-.37.58-.55.12-.11.24-.22.35-.34.17-.18.36-.34.47-.56.09-.17.06-.41.08-.63,0-.05,0-.11,0-.15.04-.16.25-.07.75.24l.35.22c.38.25.67.53.75.73.14.51-.03.82-.24,1.09-.16.21-.37.38-.55.57l-.05-.03Z"/><path class="cls-1" d="M263.5,459.85c-.66-.44-1.42-.92-2.23-1.37-.29-.17-.62-.27-.92-.46-.52-.33-1.05-.68-1.59-1.16-.53-.49-.93-1.09-1.19-1.73-.24-.56-.4-1.13-.5-1.69-.05-.73.05-1.44.31-2.09.08-.2.22-.16.42.02.19.18.51.51.66.85.13.3.27.59.41.84.12.25.15.5.25.73.17.45.37.83.68,1.25.32.48,1.12.74,1.83,1.07.79.38,1.63.76,2.47,1.2.52.29,1.03.6,1.55,1,.84.64,1.37,1.61,1.63,2.57.21.74.39,1.49.42,2.25,0,.16.03.33.01.5-.03.31-.11.49-.27.59-.18.1-.44.1-.78.07-.15-.01-.29-.02-.42-.04-.22-.04-.4-.13-.62-.29-.23-.16-.36-.33-.39-.51-.23-1.07-.32-1.89-.59-2.42-.09-.19-.23-.4-.38-.55-.16-.17-.46-.39-.79-.58l.03-.06Z"/><path class="cls-1" d="M238.61,376.6c.89-.36,1.79-.56,2.65-.71.32-.06.61-.16.93-.2.55-.06,1.09-.09,1.62-.11.54.02,1.08.04,1.62.04.48,0,.94-.05,1.41-.11.59-.09,1.21-.04,1.82.05.19.03.18.13.05.32-.14.17-.38.5-.7.69-.56.37-1.14.52-1.73.66-.59.14-1.18.24-1.79.27-.74,0-1.46.2-2.16.33-.77.14-1.53.3-2.23.55-.43.16-.86.35-1.24.59-.57.36-1.11.82-1.46,1.39-.27.45-.34.97-.35,1.43,0,.1,0,.2-.02.3-.06.36-.19.47-.68.62-.11.03-.22.07-.33.1-.36.09-.72-.08-.88-.54-.26-.67-.23-1.42,0-2.1.21-.68.57-1.31,1.02-1.85.66-.79,1.59-1.36,2.46-1.76l.03.05Z"/><path class="cls-1" d="M267.17,374.13c.27-.12.56-.23.91-.32.43-.11.64-.09.91-.11.52-.03,1.02-.02,1.51,0,.36.02.71-.02,1.06.02,1.23.16,2.4.34,3.56.62.51.11,1.03.17,1.54.23.65.08,1.3.23,1.96.39.2.06.18.13,0,.26-.17.12-.5.37-.9.49-.35.09-.69.19-1.04.26-.34.03-.69.06-1.03.08-.68.02-1.36.05-2.02-.13-.79-.17-1.62-.08-2.41-.07-.43,0-.86.02-1.29.05-.21.02-.42.03-.62.07l-.31.04c-.08.02-.12.02-.2.05-.38.13-.83.39-1.22.69-.59.47-1.23.98-1.61,1.64-.31.51-.41,1.1-.46,1.64-.02.12,0,.24-.02.35-.11.41-.24.53-.83.63-.13.02-.26.06-.39.07-.43.06-.79-.18-.94-.68-.36-1.51.32-3.07,1.21-4.23.34-.44.71-.85,1.15-1.2.45-.33.93-.63,1.47-.89l.03.05Z"/><path class="cls-1" d="M226.08,318.27c-.34,2.91-4.64,19.95-6.59,25.74s-5.81,26.65-5.81,26.65c0,0,3.71,3.42,8.98,4.55s41.75-.73,41.75-.73l3.2-11.48,1.17,12.11s29.27.03,30.17-4.24c.9-4.28,0-22.12,0-22.12l-5.42-26.53-67.45-3.95Z"/><path class="cls-1" d="M384.45,169.4c.09,1.54,4.84,12.64,8.28,12.02,1.43-.26,1.6-12.55,1.22-16.88-.38-4.33-2.58-.27-5.1,1.15-2.52,1.42-4.4,3.71-4.4,3.71Z"/><path class="cls-1" d="M390.5,155.64c-.08,1.64-.39,3.25-.87,4.78-.17.56-.33,1.13-.56,1.67-.83,1.89-2,3.66-3.58,4.97-.69.58-1.42,1.13-2.23,1.52-1.02.52-2.15.82-3.26.86-.35.02-.3,0-.02-.11.19-.08.39-.16.57-.22.23-.11.49-.25.77-.36,2-.95,3.4-2.55,4.65-4.25.79-1.01,1.25-2.3,1.64-3.55.42-1.38.7-2.83.76-4.29.05-.9,0-1.8-.08-2.69-.16-1.35-.47-2.7-1.05-3.92-.46-.94-1.1-1.75-1.77-2.5-.14-.18-.32-.31-.46-.48-.5-.66-.59-.93-.34-1.47.06-.12.1-.25.16-.36.21-.36.72-.36,1.37.01.92.58,1.7,1.41,2.36,2.33.6.96,1.05,2.02,1.38,3.11.47,1.62.67,3.31.62,4.97h-.05Z"/><path class="cls-1" d="M201.5,303.04c-1.74-2.34-3.12-4.98-4.02-7.72-.35-.99-.68-1.99-.93-3-.82-3.59-1.15-7.27-.92-10.91.12-1.61.26-3.23.55-4.81.18-1.01.44-2.02.73-3.01.28-1,.88-1.89,1.37-2.78.31-.56.27-.48.16.06-.05.27-.09.66-.12,1.13-.02.23,0,.5,0,.77,0,.14,0,.27.01.42-.03.13-.05.27-.08.41-.12.48-.16.99-.25,1.48-.09.49-.13.99-.17,1.49-.12.99-.19,1.99-.25,2.98l-.05,1.5v1.5c0,1-.04,2.01,0,3.02.06,2.43.63,4.92,1.32,7.28.36,1.31.85,2.58,1.37,3.83.57,1.22,1.18,2.43,1.95,3.55.93,1.39,1.97,2.71,3.15,3.92,1.77,1.84,3.77,3.5,5.89,4.92,1.66,1.09,3.4,2,5.15,2.91.39.19.77.39,1.16.58,1.44.75,1.79,1.2,1.85,1.83.01.15.05.3.04.43-.04.43-.8.43-1.97.04-3.37-1.31-6.77-3.15-9.83-5.59-2.27-1.8-4.4-3.85-6.18-6.2l.04-.04Z"/><path class="cls-1" d="M269.48,287.46c-1.2-2.81-2.57-5.42-4.82-7.19-.83-.66-1.78-1.19-2.73-1.78-3.43-2.06-6.82-4.31-10.08-6.67-1.46-1.03-2.88-2.13-4.28-3.21-.89-.71-1.81-1.39-2.65-2.15-.84-.77-1.65-1.58-2.45-2.4-.49-.51-.37-.51.19-.25.55.27,1.62.71,2.75,1.36,1.96,1.22,3.83,2.55,5.77,3.78,1.89,1.3,3.73,2.67,5.63,4,1.13.8,2.33,1.54,3.56,2.25,1.23.71,2.49,1.36,3.75,2.14,1.37.85,2.73,1.9,3.81,3.19,1.08,1.28,1.91,2.71,2.62,4.15.87,1.78,1.57,3.59,2.37,5.31.6,1.31,1.25,2.59,2.04,3.75.39.58.84,1.12,1.3,1.63.47.45,1.05,1.05,1.43,1.18.29.14.66.07.84-.19.16-.2.29-.63.4-1.18.22-1.05.35-2.12.41-3.19.02-.47.01-.93.02-1.4,0-1.75.05-2.3.65-2.74.13-.1.26-.23.4-.3.45-.23.95.5,1.09,1.91.2,2.09.03,4.28-.48,6.43-.06.26-.15.6-.29.93-.06.15-.19.42-.32.63-.14.22-.29.42-.47.59-.72.72-1.84.95-2.81.59-.24-.08-.48-.2-.71-.33-.17-.1-.32-.21-.46-.31-.3-.22-.49-.42-.71-.62-.45-.4-.84-.83-1.21-1.28-2.23-2.7-3.34-5.83-4.62-8.62l.05-.03Z"/><path class="cls-1" d="M280.47,286.82c-.09.21-.14.42-.23.63-.03.08,0,.15-.03.23-.12.28-.24.56-.31.85-.04.13,0,.24,0,.36,0,.08.04.15,0,.23-.05.09-.11.18-.19.27-.06.06-.21.08-.42.09-.21,0-.53-.02-.71-.08-.41-.26-.38-.61-.27-.97.08-.21-.05-.41-.07-.61-.02-.22,0-.45.04-.68.02-.14.04-.28.05-.42.01-.21.07-.42.02-.63-.04-.16-.21-.31-.33-.47-.03-.04-.06-.07-.07-.11-.03-.13.14-.18.76-.2l.42-.02c.48-.01.88.04,1.03.13.47.26.47.52.47.79,0,.2-.07.41-.11.61h-.05Z"/><path class="cls-1" d="M283.53,293.96c-.32-.47-.65-.95-.97-1.42-.13-.18-.14-.13-.18-.19-.05-.1-.18-.17-.29-.11-.06.02-.12.06-.18.11-.04.03-.21.2-.3.31-.17.23-.34.47-.46.75-.14.35-.26.71-.39,1.11-.04.12-.14.11-.27,0-.13-.11-.32-.33-.38-.61-.07-.49-.07-1,.06-1.51.06-.25.21-.47.35-.68l.12-.15.03-.04s.02-.04.03-.07l.1-.11c.14-.14.26-.29.4-.4.35-.26.72-.45,1.15-.45.42-.02.85.14,1.17.44.39.37.46.53.67.77l.53.68c.22.28.44.56.66.83.34.41.66.84,1.04,1.21.3.29.68.48,1.03.72.08.05.17.09.23.15.25.23.21.4-.15.83-.08.1-.16.2-.25.29-.29.31-.65.45-.91.36-.78-.27-1.3-.83-1.81-1.41-.37-.43-.71-.9-1.07-1.35l.04-.03Z"/><path class="cls-1" d="M292.34,293.89c-.16.11-.3.29-.43.45-.04.06-.04.14-.09.2-.14.22-.44.42-.57.67-.07.11-.1.22-.13.34-.03.15-.04.3-.15.45-.04.05-.17.03-.31-.02-.14-.05-.32-.14-.36-.24-.11-.35-.19-.71-.07-1.05.07-.2.02-.43.1-.63.07-.22.18-.44.28-.65.02-.05.06-.08.06-.14.08-.11.14-.23.23-.33.17-.26.44-.41.67-.57.1-.07.17-.15.29-.23.13-.08.32-.17.59-.15.12,0,.24.02.36.09.4.27.29.49-.09.73-.09.06-.18.11-.28.16-.08.04-.16.07-.23.11-.05.02-.19.09-.14.07.02,0,.1-.07.12-.08.06-.06.02-.04.02.01-.02.08,0,.19.04.33.07.19.13.36.19.53h0s-.05-.02-.05,0l-.04-.02Z"/><path class="cls-1" d="M291.82,285.44l-.07-.86c-.02-.34-.05-.76.03-1.24.07-.34.12-.68.31-.99.33-.53.81-.9,1.25-1.11.44-.23.89-.3,1.29-.35.36-.04.69-.11,1.02-.17.42-.05.85,0,1.27.22.13.07.12.28.03.55-.09.26-.24.67-.41.84-.16.13-.31.29-.45.4-.14.06-.29.12-.43.18-.28.1-.51.2-.77.2-.35,0-.34.26-.4.35-.02.08-.09.14-.11.31-.02.16-.01.39.02.66.03.33.06.66.11.99.07.49.11,1,.27,1.47.13.36.37.69.53,1.04.04.08.09.15.11.23.08.3-.06.44-.65.66l-.4.15c-.45.14-.88.12-1.1-.06-.33-.27-.59-.56-.81-.87-.19-.32-.28-.66-.38-1.01-.14-.51-.21-1.05-.31-1.57l.07-.02Z"/><path class="cls-1" d="M262.47,211.27c-1.35.79-2.81,1.33-4.28,1.67-.53.13-1.07.26-1.61.33-1.92.25-3.83.2-5.7.05-.83-.08-1.66-.16-2.48-.23-1.05-.12-2.09-.34-3.13-.55-.32-.07-.28-.07,0-.08.28,0,.8-.07,1.41-.09l1.62-.04,1.6.05c1.06.02,2.12.05,3.18.05,1.27,0,2.58-.23,3.82-.53,1.37-.31,2.71-.77,3.93-1.44.76-.41,1.46-.9,2.12-1.47,1-.86,1.93-1.83,2.8-2.86.7-.78,1.32-1.62,2.06-2.4.16-.17.32-.34.49-.51.66-.6.99-.65,1.37-.45.09.05.18.08.25.14.23.18.12.61-.26,1.08-.57.69-1.13,1.41-1.71,2.15-.29.37-.58.75-.9,1.13l-1.02,1.08c-1.04,1.06-2.22,2.11-3.57,2.94l-.02-.03Z"/><path class="cls-1" d="M246.78,195.74l2.19-1.49c.26-.18.49-.42.76-.6.95-.62,1.94-1.2,2.88-1.85.45-.28.72-.59,1-.92.18-.2.32-.43.41-.63.02-.05.05-.1.06-.15.05-.05.09-.09.12-.15.08-.11.08-.24.07-.38-.01-.18.05-.24.29-.17.12.04.3.12.46.3.09.09.19.19.29.33.05.07.07.13.13.21,0,.07.02.15.01.22-.07,1.04-.51,1.81-1.11,2.31-.58.5-1.07.82-1.67,1.18-.7.4-1.25,1.03-1.9,1.51l-2.15,1.59-1.32.98c-.66.51-1.34.99-1.95,1.54-.47.44-.88.93-1.32,1.39-.1.1-.18.21-.29.31-.39.34-.61.33-1.04-.02-.1-.08-.2-.15-.28-.24-.29-.29-.35-.7-.15-1.05.6-1.05,1.39-1.96,2.34-2.67.69-.56,1.41-1.07,2.12-1.6l.04.04Z"/><path class="cls-1" d="M274.47,178.39c-.11.91-.19,1.85-.25,2.79-.02.34.01.69-.02,1.03-.11,1.22-.23,2.45-.43,3.67-.06.54-.15,1.09-.24,1.62-.07.34-.15.69-.22,1.02-.1.34-.23.66-.39.98-.1.2-.26.11-.42-.12-.15-.23-.32-.6-.29-.97.04-.67.03-1.33.05-1.99.04-.66.09-1.32.16-2,.1-.81-.06-1.66-.11-2.51-.05-.93-.1-1.87-.12-2.81-.03-.58-.01-1.17,0-1.76,0-.89.1-1.8.12-2.69.04-.7-.05-1.41-.02-2.14,0-.16-.02-.32.02-.48.05-.29.13-.48.29-.58.18-.09.4-.1.73-.07.15.02.3.03.44.05.24.05.44.16.6.3.16.15.31.34.32.53.14,1.15.02,2.24-.04,3.42-.06.87-.11,1.77-.14,2.69h-.06Z"/><path class="cls-1" d="M275.29,180.11c-.29.36-.54.76-.72,1.24-.07.17-.06.36-.13.53-.18.63-.44,1.31-.54,2.03-.04.32-.09.64-.1.96-.01.41-.04.83-.12,1.26-.03.13-.08.12-.2.03-.11-.1-.33-.27-.47-.49-.22-.4-.44-.81-.6-1.24-.16-.43-.13-.89-.09-1.34.06-.54.02-1.12.11-1.69.11-.62.31-1.24.59-1.83.16-.36.37-.7.6-1.03.34-.5.76-.93,1.17-1.36.32-.34.6-.75.99-1.08.08-.07.16-.16.26-.22.36-.23.58-.07.83.48.06.12.12.25.17.37.15.41.17.87.06,1.06-.32.59-.64.91-1.01,1.34-.27.31-.53.65-.77,1.04l-.05-.02Z"/><path class="cls-1" d="M279.24,156.81c-.99-.05-1.98-.15-2.96-.26-.36-.04-.72-.05-1.08-.1-1.26-.22-2.52-.49-3.73-.89-.54-.17-1.08-.33-1.62-.5-.34-.13-.7-.21-1.01-.4-.31-.19-.61-.42-.89-.65-.17-.15-.08-.26.17-.35.25-.09.68-.22,1.08-.17.36.01.69.11,1.01.22.32.11.66.18.98.28.32.11.66.18.99.27.33.11.66.21,1,.3.8.26,1.69.27,2.55.35.95.09,1.9.14,2.86.18.59,0,1.18.03,1.78,0,.9-.02,1.8-.04,2.69-.15.69-.06,1.36-.23,2.04-.35.15-.03.29-.07.45-.08.57-.04.76.07.92.44.04.09.08.17.11.25.08.29-.12.56-.52.74-.59.27-1.22.44-1.86.59-.64.16-1.3.26-1.96.28-.99.05-1.99.04-2.99.01v-.04Z"/><path class="cls-1" d="M251.28,131.96c-.57,2.55-.81,8.33-8.18,11.43-7.36,3.1-16.83,2.5-21.07-2.74-4.24-5.24-6.7-10.37-6.43-12.92.27-2.56,6.42-13.16,6.42-13.16l4.75-3.32s-7.52-6.92-7.33-12.21c.19-5.29,5.38-15.2,5.38-15.2,0,0,5.15-5.9,10.74-6.3,5.58-.4,12.54,2.33,12.54,2.33,0,0-3.21-11.7-.45-15.94,2.76-4.25,8.83-9.76,13.13-10.33s16.04,2.72,16.04,2.72l5.47,7.41s4.04-9.29,13.2-7.41c9.17,1.88,13.76,2.61,15.68,7.71,1.92,5.1,3.36,12.2,1.23,16.77-2.13,4.57-8.51,10.14-11.53,10.74s-15.21.77-18.57.54c-3.36-.23-9.13,1.16-9.13,1.16,0,0-6.17,6.52-7.54,10.19-1.37,3.67-2.11,12.41-3.9,14.19s-2.71.52-6.31-.34c-3.59-.86-9.19,1.97-8.55,4.29.64,2.32-.96,5.3-.96,5.3l5.37,5.08Z"/><path class="cls-1" d="M262.37,464.81c-.58-.66-.87-1.36-1.08-1.93-.2-.57-.32-1.05-.44-1.36-.11-.4-.46-.81-1.13-1.32-.64-.51-1.53-1.02-2.47-1.9-.46-.43-.95-1.03-1.28-1.74-.18-.35-.28-.74-.37-1.12-.03-.19-.05-.38-.07-.57l-.02-.28v-.19c-.04-4.01.27-7.89.55-11.79.25-2.83.41-5.67.73-8.48,1.09-9.93,2.41-19.8,3.74-29.67.58-4.38,1.07-8.79,1.52-13.15.57-5.6.95-11.22,1.99-16.77.27-.86.39-1.24.42-1.21.04.03.03.46.22,1.21.19.75.37,1.83.58,3.13.16,1.29.25,2.81.2,4.44-.05,2.9-.4,5.76-.64,8.63-.27,2.87-.56,5.74-.87,8.6-.64,5.73-1.31,11.46-2.14,17.2-.98,6.86-1.59,14.05-2.22,21.09-.32,3.87-.66,7.74-.8,11.6-.04.96-.09,1.93-.08,2.88v1.43c0,.47,0,1.02.03,1.24.06.27.17.51.35.77.19.26.48.52.81.78.68.53,1.55,1.05,2.41,1.8.53.47,1.04,1.04,1.41,1.81.32.73.45,1.32.63,1.8.17.49.36.82.59,1.02.25.2.49.31,1.05.4,2.28.38,4.64.53,6.99.55,2.98.02,5.97-.16,8.93-.51,1.48-.18,2.95-.41,4.39-.72.72-.15,1.43-.33,2.1-.54.16-.04.36-.12.46-.16l.3-.12c.19-.09.39-.18.54-.34.22-.27.33-.64.21-.97-.11-.33-.36-.58-.62-.8l-.29-.22-.39-.25c-.27-.16-.55-.32-.85-.46-.59-.29-1.2-.56-1.83-.79-1.26-.48-2.56-.89-3.87-1.26-2.63-.74-5.3-1.36-8-1.99-1.19-.28-2.36-.51-3.56-.81-4.44-1.1-5.8-1.75-6.47-2.96-.15-.28-.37-.57-.43-.82-.2-.85,1.74-.9,5-.23,4.22.87,8.54,1.78,12.94,3,2.2.63,4.42,1.3,6.68,2.31.57.25,1.14.53,1.72.86.29.15.59.35.88.55.15.1.28.19.47.34.24.18.47.37.65.57.81.78,1.37,1.73,1.52,2.77.05.26.07.52.05.78,0,.26-.04.52-.12.77l-.11.38-.17.35c-.13.23-.21.48-.35.7-.39.47-.81.91-1.41,1.21-.27.18-.6.28-.9.43-.15.07-.31.13-.46.18l-.31.11c-.75.25-1.46.44-2.18.6-4.05.9-8.03,1.27-12.07,1.4-2.02.05-4.04.02-6.08-.12-1.02-.08-2.04-.17-3.07-.32l-.77-.12-.41-.07-.58-.14c-.78-.22-1.65-.72-2.24-1.41l.05-.07Z"/><path class="cls-1" d="M269.24,421.82c.95-3.59,1.95-7.17,2.95-10.73.36-1.3.64-2.62,1.01-3.91,1.31-4.56,2.66-9.11,3.83-13.7.53-2.03.98-4.1,1.38-6.14.49-2.63.92-5.28,1.95-7.81.32-.79.48-.65.73.11.12.38.31.92.44,1.57.15.65.25,1.39.2,2.17-.65,5.49-1.86,10.88-3.47,16.19-.96,3.18-1.63,6.56-2.46,9.83-.92,3.6-1.86,7.19-2.73,10.79-.55,2.21-1.06,4.44-1.54,6.66-.71,3.37-1.42,6.77-1.86,10.16-.16,1.32-.28,2.63-.35,3.94-.06,1.31-.09,2.62-.16,3.93-.05.58-.02,1.14-.07,1.72-.07,1.08-.21,1.78-.48,2.25-.25.48-.58.74-1.06.94-.22.09-.43.21-.63.26-.67.16-1.21-.78-1.42-2.41-.4-4.83.37-9.85,1.25-14.83.66-3.7,1.55-7.37,2.42-11.02h.08Z"/><path class="cls-1" d="M233.91,466.58c-1.03-.23-2.07-.52-3.13-.96-.53-.21-1.07-.48-1.62-.83-.8-.43-1.4-1.18-1.7-2.05-.15-.43-.22-.69-.28-1-.07-.3-.11-.58-.15-.86-.08-.55-.13-1.08-.16-1.61-.07-1.04-.08-2.06-.08-3.06.03-4.01.33-7.93.65-11.85.24-2.86.43-5.71.73-8.55,1.1-10.01,2.38-19.98,3.68-29.94.56-4.42,1.05-8.87,1.49-13.27.56-5.65.94-11.32,1.98-16.92.27-.87.38-1.25.41-1.22.04.03.04.46.23,1.22.2.76.36,1.84.58,3.15.17,1.31.24,2.83.2,4.48l-.08,2.19-.17,2.18-.37,4.35c-.26,2.89-.55,5.79-.85,8.68-.62,5.78-1.27,11.57-2.1,17.36-.96,6.93-1.56,14.18-2.19,21.28-.35,3.91-.66,7.81-.85,11.71-.09,1.95-.16,3.89-.13,5.81.02.96.05,1.91.15,2.83.09.88.29,1.91.49,2.12.04.05.1.1.15.13l.23.16c.22.12.45.24.69.35.49.21,1.01.4,1.55.56,1.08.32,2.23.54,3.39.72,2.32.36,4.71.5,7.09.56,3.06.06,6.14-.03,9.19-.29,1.52-.13,3.04-.31,4.53-.56.75-.12,1.47-.28,2.18-.46.41-.11.51-.14.75-.23.2-.08.41-.16.57-.32.2-.25.31-.59.23-.9-.08-.31-.29-.57-.53-.78-.23-.21-.85-.6-1.42-.9-.59-.3-1.2-.57-1.83-.81-1.26-.49-2.57-.91-3.89-1.29-2.65-.76-5.35-1.38-8.06-2.02-1.2-.28-2.38-.52-3.59-.82-4.48-1.11-5.85-1.76-6.53-2.97-.15-.28-.38-.57-.44-.82-.2-.85,1.75-.89,5.04-.22,4.21.87,8.53,1.78,12.92,3,2.2.63,4.41,1.3,6.67,2.3.57.25,1.14.52,1.72.86.29.15.59.35.88.55.08.06.13.07.24.17l.32.27c.21.18.44.35.63.54.8.78,1.33,1.73,1.45,2.75.05.25.06.51.04.77,0,.26-.05.51-.12.76l-.1.37-.17.35c-.12.22-.21.47-.35.68l-.67.7c-.27.19-.57.37-.85.55l-.99.4c-.32.13-.74.23-.88.28-.81.22-1.58.38-2.35.52-4.1.71-8.1.93-12.15.98-4.05,0-8.1-.16-12.26-1.04v-.08Z"/><path class="cls-1" d="M240.49,423.59c.95-3.64,1.94-7.27,2.93-10.88.36-1.32.63-2.66,1-3.97,1.3-4.63,2.65-9.25,3.82-13.9.53-2.06.98-4.15,1.39-6.23.49-2.67.93-5.35,1.96-7.92.32-.8.48-.66.73.11.12.39.31.94.44,1.59.15.65.25,1.41.2,2.2-.66,5.56-1.87,11.02-3.48,16.41-.96,3.22-1.63,6.65-2.45,9.97-.91,3.65-1.85,7.3-2.71,10.95-.54,2.25-1.06,4.5-1.54,6.76-.71,3.42-1.41,6.87-1.86,10.31-.16,1.34-.28,2.67-.36,4-.06,1.33-.09,2.66-.17,3.99-.05.58-.02,1.16-.07,1.75-.07,1.09-.21,1.8-.48,2.28-.25.49-.58.75-1.06.95-.22.09-.43.22-.63.26-.67.16-1.21-.79-1.41-2.44-.39-4.9.38-9.98,1.26-15.03.66-3.75,1.54-7.47,2.42-11.17h.08Z"/><path class="cls-1" d="M291.82,370.75c1.14-.12,2.29-.27,3.37-.51.54-.12,1.08-.24,1.57-.38.26-.07.47-.15.67-.22.12-.04.15-.07.15-.06.02,0,.04-.02.06-.03.04-.03.07-.07.09-.12.07-.09.13-.36.2-.54.12-.45.21-.96.27-1.49.12-1.07.18-2.2.18-3.34.01-1.67-.14-3.35-.22-5.04-.3-5.97-.93-11.98-1.78-17.95-.39-2.65-.78-5.31-1.27-7.92-.58-3.36-1.13-6.75-1.62-10.14-.15-1.06-.06-.94.34-.11.4.83,1.23,2.35,1.86,4.24,2.39,6.67,3.57,13.62,4.27,20.68.39,4.22,1.12,8.58,1.35,12.95.1,2.41.19,4.81-.11,7.34-.08.63-.19,1.28-.4,1.97-.04.16-.11.35-.2.54-.1.2-.17.45-.33.62l-.43.56c-.19.14-.37.29-.57.41-.48.26-.72.34-1.07.47-.31.1-.62.21-.93.29-.61.17-1.21.31-1.8.44-2.93.61-5.81,1.16-8.73,1.49-4.41.55-8.85.93-13.26,1.3-.86.07-1.72.13-2.58.2-.35.02-1.1.07-1.68.03-.31-.02-.6-.07-.89-.13-.28-.09-.53-.28-.73-.49-.39-.44-.65-1.01-.83-1.62-.09-.28-.19-.67-.24-.89l-.15-.67c-.18-.88-.3-1.75-.4-2.61-.09-.76-.19-1.51-.22-2.28-.08-2.85.36-3.82,1.3-4.35.22-.12.45-.27.67-.29.35,0,.61.19.83.65.22.47.41,1.23.55,2.21.22,1.45.37,2.93.61,4.38.12.72.25,1.44.41,2.09l.06.24c.02.06.02.03.02.05l.03.03s.04.03.07.03c.03,0,.05-.02.07-.03l.02-.02s0,0,.03,0h.14s.28-.02.28-.02c.76-.05,1.52-.11,2.28-.16,1.56-.13,3.12-.26,4.68-.39,2.33-.21,4.67-.44,7-.7l3.49-.42c1.17-.1,2.33-.22,3.48-.36l.02.08Z"/><path class="cls-1" d="M216.5,372.72c1.49.52,3.4.81,5.24,1.03,1.87.21,3.77.35,5.69.45,3.83.18,7.7.22,11.58.17,2.83-.04,5.65-.22,8.48-.32,4.97-.2,10-.39,14.91-.81l.48-.04c.11-.01.24-.01.35-.06.06-.1.08-.21.12-.33l.04-.17.06-.26c.25-1.2.47-2.43.69-3.66l1.33-7.41c.79-4.39,1.67-8.8,2.61-13.13.61-2.78,1.31-5.56,2.12-8.3.42-1.37.84-2.74,1.36-4.08.25-.67.53-1.33.81-1.99.29-.66.67-1.28,1.01-1.91.93-1.54.72-1.36.4.12-.26,1.51-.47,4.31-1.18,7.45-.62,2.8-1.13,5.62-1.61,8.45-.51,2.82-.98,5.66-1.43,8.51-.42,2.85-.94,5.69-1.43,8.55l-.76,4.3-.4,2.16-.21,1.09-.12.55c-.05.3-.13.62-.21.93-.05.18-.08.38-.15.54l-.23.48c-.07.17-.17.29-.26.43l-.14.21s-.06.06-.07.11l-.11.06c-.31.15-.62.28-.97.37l-1.09.21-1.51.16-1.34.13c-1.78.15-3.58.31-5.37.46-3.59.27-7.21.51-10.79.63-3.95.13-7.9.2-11.86.14-3.96-.06-7.93-.2-11.93-.69-1.23-.14-2.47-.36-3.72-.64-.63-.18-1.25-.31-1.9-.58l-.51-.2c-.2-.1-.39-.23-.59-.34l-.58-.35-.51-.44c-.63-.64-.56-1.64-.54-2.53.03-.65.09-1.26.15-1.88.13-1.23.29-2.44.46-3.65,1.07-7.3,2.61-14.51,4.12-21.65,1.2-5.54,2.3-11,3.8-16.44.33-1.2.64-2.38,1.03-3.57.71-2.22,1.37-3.63,1.92-4.58.28-.47.55-.82.82-1.09.32-.25.63-.42.9-.57.26-.13.52-.34.68-.4.43-.26.55,1.82-.48,4.93-1.37,4.71-2.58,9.64-3.71,14.67-1.12,5.03-2.21,10.15-3.14,15.32-.63,3.48-1.23,6.98-1.76,10.48-.26,1.75-.54,3.49-.75,5.23-.11.86-.21,1.73-.27,2.56l-.04.61v.15s0,.02,0,.03v.02s-.01.05,0,.06c.08.05-.16-.04.55.23l-.02.09Z"/><path class="cls-1" d="M396.35,166.27c.3,2.62.47,5.26.4,7.92-.04.97,0,1.95-.13,2.93-.11.87-.26,1.74-.5,2.62-.23.88-.53,1.77-1.1,2.67-.13.22-.34.45-.51.66-.21.21-.45.42-.73.59-.3.16-.62.32-.91.35-.3.04-.61.13-.88.09-1.18-.04-2.05-.53-2.81-1.02-1.36-.89-2.46-1.94-3.47-3.04-1.26-1.43-2.6-2.82-3.19-4.71-.14-.62-.07-.56.49-.35.26.11.76.18,1.14.41.41.21.84.48,1.23.84,1.27,1.33,2.6,2.59,3.93,3.65.64.54,1.31,1.05,1.91,1.31.59.29,1.05.29,1.19.23.18-.05.43-.41.6-.82.19-.41.32-.91.41-1.43.19-1.04.24-2.16.29-3.27.08-2.45-.02-4.98-.3-7.48-.17-1.54-.39-3.08-.69-4.61-.46-2.31-1.01-4.63-1.82-6.82-.63-1.7-1.54-3.25-2.45-4.76-.2-.33-.42-.64-.6-.98-.7-1.24-.76-1.72-.2-2.47.13-.17.24-.36.37-.5.45-.48,1.29-.28,2.08.61.58.66,1.13,1.36,1.62,2.11.47.76.88,1.55,1.26,2.36.76,1.62,1.35,3.33,1.85,5.05.74,2.57,1.24,5.2,1.61,7.83l-.08.02Z"/><path class="cls-1" d="M388.73,168.01c-1.95,1.66-4.21,2.82-6.56,3.55-2.35.73-4.81,1.07-7.28.93-1.23-.08-2.47-.23-3.69-.57l-1.6-.43c-.47-.14-.95-.24-1.43-.31-1.92-.34-3.92-.3-5.76.1-1.84.41-3.52,1.22-4.74,2.42-1.23,1.19-1.98,2.78-2.23,4.59-.23,1.82-.08,3.71.33,5.82.14,1.03.41,2.05.67,3.07.13.51.24,1.02.39,1.53l.48,1.51c2.62,8.09,6.95,15.69,11.42,23.23,2.24,3.78,4.51,7.57,6.69,11.46,2.16,3.89,4.27,7.86,5.89,12.14,2.4,6.19,3.9,12.71,4.42,19.32.06,1.66.21,3.31.2,4.97l-.18,4.97-.6,4.94c-.24,1.64-.66,3.25-.98,4.87-1.4,5.67-3.55,11.16-6.43,16.26-2.98,5.04-6.71,9.62-11.04,13.56l-3.35,2.83-3.62,2.48c-2.43,1.62-4.98,2.97-7.59,4.26-5.22,2.55-10.85,4.26-16.52,5.36-5.68,1.09-11.41,1.58-17.09,1.89-5.69.3-11.36.44-17.02.62-5.65.17-11.32.42-17.01.49-2.84.04-5.69.06-8.53.02-2.84,0-5.69-.1-8.53-.17-10.09-.31-20.2-1.08-30.23-2.49-5.01-.76-10.01-1.6-14.93-2.92-1.24-.28-2.45-.7-3.67-1.05-1.23-.34-2.43-.8-3.63-1.25-.6-.24-1.21-.42-1.79-.71l-1.76-.83c-1.19-.49-2.29-1.28-3.42-1.95-5.5-3.74-9.93-9.2-12.32-15.48-2.44-6.28-2.86-13.17-1.83-19.72.52-3.28,1.4-6.51,2.75-9.59.7-1.53,1.45-3.07,2.63-4.47l.91-1.02,1.03-.87c.34-.3.71-.55,1.09-.77.38-.23.75-.48,1.14-.68,3.13-1.6,6.55-2.22,9.87-2.29,3.33-.07,6.62.38,9.81,1.16,3.96,1.07,5.48,2.08,5.31,2.18-.2.18-2.11-.42-5.45-.8-1.67-.16-3.69-.3-5.98-.2-2.28.16-4.85.38-7.45,1.15-2.56.77-5.25,1.93-7.01,3.97-.89.93-1.57,2.32-2.23,3.79-.64,1.49-1.18,3.1-1.63,4.77-1.57,5.94-1.82,12.3-.42,18.2,1.37,5.91,4.62,11.24,9.2,15.22,2.31,2.08,4.74,3.53,7.58,4.78,2.88,1.15,5.87,2.16,8.97,2.92,6.18,1.59,12.58,2.63,19.01,3.44,6.43.82,12.93,1.29,19.43,1.63,6.51.35,13.04.46,19.57.44,6.53,0,13.07-.29,19.68-.45,6.59-.18,13.17-.3,19.69-.69,3.9-.26,7.79-.6,11.65-1.23,3.85-.64,7.64-1.56,11.33-2.83,3.7-1.24,7.24-2.95,10.66-4.9.84-.51,1.74-.95,2.53-1.52l2.41-1.67,1.21-.83c.4-.28.75-.63,1.13-.94l2.23-1.91c5.85-5.23,10.31-11.95,13.28-19.23,2.97-7.29,4.45-15.18,4.44-23.03-.08-8.63-1.96-17.24-5.44-25.14-3.55-7.93-8.42-15.37-12.85-23.1-4.44-7.71-8.79-15.72-11.09-24.61-.27-1.11-.57-2.22-.73-3.36-.18-1.14-.42-2.24-.46-3.47-.16-2.38.12-4.94,1.27-7.23,1.13-2.3,3.14-4.12,5.37-5.17,2.24-1.07,4.68-1.49,7.05-1.49,1.47-.02,2.92.18,4.36.46l2.06.54.91.24.93.15c1.24.17,2.52.23,3.79.1,1.27-.09,2.52-.35,3.74-.73,2.43-.74,4.67-2.06,6.35-3.86.82-.92,1.47-1.95,1.95-3.06.41-1.11.61-2.29.59-3.5-.06-1.21-.33-2.43-.74-3.61-.46-1.17-1.01-2.33-1.71-3.41-1.38-2.17-3.15-4.14-5.16-5.8-.98-.85-2.07-1.55-3.2-2.28-.55-.37-1.13-.69-1.71-1.03-.57-.35-1.15-.66-1.74-.96-2.35-1.23-4.8-2.23-7.34-2.92-7.69-2.16-16.12-1.14-23.56,1.8-1.87.72-3.61,1.72-5.33,2.76-1.66,1.12-3.29,2.3-4.73,3.69-2.96,2.71-5.38,5.99-7.16,9.57-.46.89-.82,1.83-1.2,2.75-.31.95-.69,1.88-.9,2.86-.57,1.92-.8,3.91-.91,5.9-.18,3.99.35,8.04,1.26,11.99.96,3.95,2.23,7.83,3.69,11.64,1.51,3.79,3.18,7.52,4.99,11.18,1.4,2.85,2.89,5.65,4.41,8.43l2.3,4.18.57,1.06.52,1.1,1.03,2.19c2.67,5.88,4.07,12.4,3.72,18.94-.3,3.25-.95,6.51-2.29,9.55-1.36,3.01-3.25,5.79-5.59,8.14-2.4,2.31-5.23,4.11-8.24,5.47l-2.32.88c-.78.31-1.54.48-2.31.72-1.53.48-3.09.86-4.64,1.25-5.49,1.32-10.94,2.2-16.61,2.67-5.25.42-9.64.39-13.3.21-3.67-.17-6.62-.58-9.03-1.03-4.81-1.02-7.44-2.17-9.46-3.22-.92-.5-2.1-1.16-2.59-1.51-.41-.31-.22-.36.53-.23.75.12,2.02.51,3.85.85,3.63.74,9.39,1.56,16.86,1.83,11.07.33,22.43-.96,33.28-4.1.67-.2,1.36-.39,2.02-.61l1.88-.72c.31-.13.64-.22.93-.37l.89-.46c.59-.32,1.21-.58,1.77-.95,2.28-1.4,4.27-3.2,5.99-5.23,1.6-2.13,2.92-4.47,3.78-7.02.24-.63.35-1.3.54-1.95l.25-.98c.09-.33.1-.67.16-1l.28-2.02c.05-.68.04-1.37.07-2.05.15-5.49-1.31-11.03-3.61-16.18-.61-1.28-1.16-2.58-1.88-3.83l-2.15-3.88c-1.43-2.62-2.87-5.25-4.21-7.94-2.7-5.37-5.21-10.89-7.18-16.68-1.96-5.78-3.49-11.83-3.66-18.21-.1-1.17.07-2.38.13-3.58.03-1.2.28-2.38.48-3.56.53-2.33,1.18-4.65,2.19-6.82.97-2.18,2.13-4.28,3.53-6.21.66-.99,1.44-1.89,2.19-2.82.39-.45.81-.87,1.21-1.31.4-.44.81-.87,1.26-1.26,1.69-1.68,3.62-3.09,5.59-4.42,2.02-1.26,4.13-2.39,6.35-3.26,1.1-.44,2.26-.82,3.38-1.16,1.12-.32,2.25-.63,3.4-.86,2.29-.51,4.63-.86,7-.97,4.74-.29,9.59.41,14.09,1.95,2.24.79,4.41,1.76,6.48,2.88,1.01.6,2.04,1.16,3,1.82.49.33.97.63,1.46.97.49.37,1,.71,1.46,1.1,1.89,1.53,3.58,3.27,5.06,5.21,1.47,1.94,2.72,4.11,3.5,6.57.76,2.43,1.1,5.24.29,7.92-.77,2.66-2.34,4.92-4.3,6.63l-.1-.03Z"/><path class="cls-1" d="M276.64,173.98c1.16,1.4,2.36,2.78,3.71,3.98.48.46,1.05.79,1.55,1.22,1.8,1.44,3.74,2.76,5.9,3.55.92.33,1.91.44,2.87.41,1.25-.12,2.33-.36,3.61-.81.37-.18.42-.11.33.33-.04.23-.14.53-.29.94-.08.2-.17.44-.31.63-.15.18-.33.33-.54.47-.73.48-1.55.81-2.39.91-.83.12-1.68.17-2.5.02-.83-.13-1.62-.41-2.31-.72-.73-.28-1.39-.65-2.05-1.05-1.54-.95-3.17-1.86-4.56-3.02-1.54-1.26-2.93-2.66-4.2-4.15-.4-.45-.79-.91-1.15-1.38-.37-.47-.75-.93-1.1-1.42-1.11-1.43-2.05-2.99-3.05-4.48-.75-1.17-1.59-2.27-2.3-3.47-.16-.26-.33-.51-.46-.79-.47-1.05-.44-1.46,0-1.92.1-.1.19-.22.3-.3.37-.27.91,0,1.41.63,1.5,1.89,2.77,3.98,4.23,5.98,1.09,1.47,2.17,2.97,3.36,4.36l-.05.05Z"/><path class="cls-1" d="M311.72,123.41c.06-.14.15-.27.18-.43.05-.2.07-.15.07-.22.08.04-.23-.53-.44-.89-.18-.29-.41-.54-.6-.84-.66-1.04-1.35-2.09-2.08-3.12-.33-.45-.7-.87-1.07-1.28-.5-.5-.95-1.05-1.29-1.71-.1-.21.09-.34.41-.38.32-.04.81-.02,1.16.21,1.17.89,2.16,1.96,3.02,3.16.49.74,1.17,1.36,1.75,2.08.31.4.61.8.91,1.26.06.11.16.24.26.42.07.18.16.35.22.54.13.37.07.77.05,1.04-.09.73-.33,1.46-.71,2.07-.55.95-1.37,1.6-2.1,2.22-.56.48-1.05,1.05-1.48,1.54-.08.11-.19.21-.26.29-.18.14-.24.17-.41.12-.19-.07-.41-.2-.73-.29-.14-.04-.27-.06-.37-.08-.18-.04-.32-.13-.48-.4-.09-.14-.13-.31-.15-.49-.03-.17.04-.3.11-.47.41-.88.91-1.34,1.38-1.77l1.29-1.13c.55-.51,1.08-.9,1.29-1.45h.06Z"/><path class="cls-1" d="M250.01,57.15c2.62-2.41,5.83-4.04,9.15-4.93,1.2-.35,2.43-.69,3.69-.78,2.22-.19,4.44-.03,6.58.44,2.14.47,4.22,1.23,6.12,2.31,1.69.96,3.25,2.19,4.53,3.66.43.45.81.96,1.13,1.5.37.51.6,1.1.85,1.68.47,1.15.77,2.41.51,3.66-.13.77-.12.65-.56.1-.21-.27-.64-.62-.96-1.03-.2-.2-.44-.4-.62-.62-.18-.22-.32-.47-.48-.72-.32-.42-.58-.87-.91-1.25l-.52-.56c-.15-.2-.3-.41-.49-.58-.69-.74-1.45-1.42-2.3-1.99-1.71-1.13-3.58-2.15-5.68-2.82-1.24-.44-2.6-.57-3.96-.63-1.36.02-2.72.12-4.05.37-2.93.5-5.82,1.55-8.26,3.3-.4.24-.75.54-1.09.85-.34.31-.71.59-1.03.92-.61.69-1.28,1.35-1.77,2.14-1.61,2.3-2.69,5.04-2.94,7.86-.17,2.2.19,4.35.8,6.4.14.45.35.87.49,1.32.59,1.65.6,2.25.06,2.94-.12.16-.23.34-.36.46-.43.42-1.2-.08-2.03-1.34-2.08-3.86-2.73-8.9-1.44-13.57.88-3.48,2.85-6.7,5.46-9.17l.06.06Z"/><path class="cls-1" d="M231.07,149.05c-2.18-.39-4.22-1.29-6.17-2.27-1.92-1.07-3.67-2.42-5.17-4.01-1.1-1.15-2.14-2.38-2.93-3.78-.7-1.23-1.26-2.54-1.65-3.9-.39-1.34-.64-2.68-.79-4.06-.26-2.75.04-5.58.94-8.18.79-2.31,1.98-4.47,3.46-6.36.47-.61.97-1.19,1.49-1.76.54-.55,1.11-1.06,1.71-1.54,1.2-.94,2.47-1.83,4.01-2.21.27-.01.46,0,.6.02.07,0,.11.02.19.03,0,.02-.02.05-.01.07.09.05-.16.23-.33.66-.18.45-.5.94-.84,1.57-.37.58-.84,1.15-1.4,1.7-.5.48-.98.98-1.43,1.5-.45.52-.93,1-1.35,1.53-.86,1.05-1.6,2.17-2.22,3.36-1.23,2.37-1.87,5-1.92,7.75-.02,1.64.25,3.37.77,5,.5,1.6,1.31,3.12,2.3,4.49,2.14,3.06,5.32,5.42,8.93,6.66,2.2.79,4.58,1.19,6.95,1.07,3.59-.06,7.19-1.23,10.18-3.19,2.32-1.55,4.13-3.66,5.48-5.98.3-.51.58-1.01.8-1.57,1.02-1.93,1.51-2.5,2.4-2.73.2-.05.41-.15.58-.17.56-.07.75,1,.44,2.91-1.63,5.41-6.35,9.98-11.89,12.2-4.14,1.6-8.74,2.18-13.13,1.26v-.08Z"/><path class="cls-1" d="M285.7,113.98l-5.82.21c-.71.03-1.41.15-2.11.17-2.49.08-5,.09-7.49.19-1.11.04-2.21.17-3.3.3-1.4.14-2.78.61-4.24.08-.47-.27-.42-.46-.11-1.05.31-.62.92-1.49,1.72-1.64,2.86-.36,5.73-.57,8.65-.48,1.75.05,3.53-.26,5.31-.36l5.85-.32,3.6-.2c1.82-.12,3.64-.2,5.44-.42,1.39-.16,2.74-.52,4.11-.8.3-.06.59-.15.9-.2,1.13-.16,1.51-.01,1.84.85.07.19.16.36.21.54.16.56-.24,1.28-1.06,1.51-2.42.77-5.02,1.05-7.64,1.3-1.94.17-3.9.27-5.85.4v-.07Z"/><path class="cls-1" d="M286.16,292.47c.26.34.53.66.81.97.14.16.28.3.42.45.07.08.14.14.21.21.1.09.05.06.08.09.09.13.25.32.5.38.09.02.18-.02.18-.11,0-.08-.01-.16,0-.23,0-.13,0-.24-.03-.47,0-.02-.06-.21-.09-.33l-.12-.4-.26-.8c-.34-1.08-.74-2.16-1.19-3.21-.41-.93-.91-1.83-1.43-2.69-.34-.55-.64-1.13-.97-1.68-.36-.53-.53-1.22-.87-1.79-.19-.38-.18-.32.15-.14.17.09.41.21.73.34.18.08.35.16.51.23.1.04.17.09.28.13l.22.2c.51.49,1.02.98,1.47,1.53.4.57.78,1.16,1.13,1.75.7,1.2,1.32,2.45,1.79,3.77l.45,1.19.46,1.29c.22.61.42,1.32.53,1.95.11.65.05,1.19-.12,1.64-.09.25-.27.45-.51.66-.27.14-.56.24-.85.28-.59.08-1.19-.03-1.8-.32-.61-.26-1.2-.7-1.75-1.16-.44-.4-.72-.71-1.06-1.08-.79-.88-1.47-1.81-2.15-2.74-1.01-1.41-1.91-2.88-2.86-4.3-.73-1.1-1.55-2.12-2.3-3.21-.17-.24-.35-.46-.5-.71-.56-.93-.59-1.31-.08-1.84.11-.12.2-.24.31-.34.33-.29,1.03-.18,1.51.44,1.51,1.77,2.82,3.79,4.16,5.77,1,1.47,2,2.94,3.1,4.26l-.05.04Z"/><path class="cls-1" d="M293.29,291.76c.07.06.21.17.2.18l.03.04s.05.06.08.09c.06.06.18.11.28.07.13-.05.15-.2.15-.36,0-.04,0-.07-.02-.13l-.13-.4-.3-.82c-.35-.99-.81-1.99-1.33-2.97-.5-.99-1.06-1.96-1.69-2.89-.55-.83-1.2-1.59-1.87-2.31-.84-.96-1.8-1.74-2.47-2.93-.19-.4-.16-.37.27-.35.45-.03,1.31-.03,1.98.4.56.41,1.13.82,1.64,1.29.49.49.96.99,1.4,1.52.89,1.06,1.68,2.19,2.34,3.42.78,1.46,1.72,2.91,2.32,4.6.1.3.18.54.27.92.1.43.18.87.19,1.3.01.85-.22,1.62-.81,2.14-.82.64-1.93.63-2.85.09-.37-.2-.72-.46-1.03-.73-.26-.22-.45-.42-.66-.64-.4-.43-.78-.87-1.14-1.31-1.08-1.35-2.04-2.74-3.03-4.09-.77-1.04-1.62-2-2.43-2.98-.18-.22-.37-.41-.54-.63-.63-.81-.7-1.13-.35-1.7.08-.13.14-.27.22-.38.27-.38.91-.31,1.5.26,1.73,1.64,3.1,3.59,4.53,5.48,1.03,1.39,2.15,2.78,3.31,3.78l-.04.05Z"/><path class="cls-1" d="M276.44,270.01c-2.25-1.01-4.53-2.11-6.71-3.42-2.18-1.31-4.22-2.77-6.18-4.31-1.42-1.14-2.87-2.22-4.2-3.45-4.75-4.27-8.95-9.12-12.67-14.24-1.66-2.26-3.28-4.57-4.83-6.88l-1.49-2.23c-.47-.76-.9-1.54-1.35-2.32-.89-1.55-1.67-3.16-2.18-4.92-.5-.99-.4-.88.2-.14.28.38.94.76,1.55,1.32.32.28.71.55,1.04.88.32.34.65.72.96,1.12l1.68,2.13c.56.7,1.03,1.47,1.55,2.21,1.02,1.48,2.05,2.94,3.1,4.39,2.07,2.91,4.18,5.8,6.45,8.59,2.71,3.34,6.03,6.38,9.43,9.17,3.72,3.12,7.63,5.92,11.99,7.94,2.68,1.28,5.49,2.4,8.29,3.62,2.12.93,4.23,1.92,6.27,3.13,1.01.62,1.98,1.27,2.93,1.94l1.41,1.03.69.53.83.67c.98.8,1.92,1.68,2.59,2.55.63.88,1.08,1.65,1.05,2.58-.04.48-.38.99-.77,1.26-.39.29-.81.4-1.23.48-.84.14-1.86.05-3.13-.38-.55-.18-1.12-.4-1.69-.64-.47-.2-.95-.41-1.43-.62-2.6-1.2-3.24-1.53-3.57-2.61-.08-.21-.22-.41-.27-.58-.08-.27.18-.46.82-.63.33-.12.71-.1,1.15-.03.44.06.92.18,1.45.35.77.25,1.55.54,2.26.8.18.02.3.02.38,0,.15-.03.22-.14.09-.31-.15-.13-.23-.13-.25-.14-.01,0,.01.02-.03-.02l-.46-.36-.93-.71c-.63-.47-1.28-.93-1.93-1.37-3.75-2.58-8.29-4.32-12.86-6.31l.02-.07Z"/><path class="cls-1" d="M308.01,89.95c-3.74,2.78-8.16,4.39-12.65,4.89-2.24.26-4.52.2-6.75-.05-2.21-.28-4.28-.76-6.29-1.07-2.93-.47-5.72-.43-8.09.79-2.11,1.03-3.94,2.79-5.37,4.89-1.43,2.1-2.55,4.48-3.42,6.94-.86,2.49-1.47,5.01-1.73,7.67-.18,1.38-.36,2.83-1.08,4.3-.2.37-.39.72-.75,1.1-.36.4-.8.67-1.27.88-.48.21-1,.2-1.48.01-.23-.08-.53-.2-.68-.27l-.47-.21c-1.08-.5-2.13-.95-3.21-1.21-1.07-.26-2.15-.33-3.13-.1-.97.24-1.84.77-2.53,1.55-.35.38-.64.83-.92,1.29l-.38.72c-.09.23-.2.46-.26.7-.77,2.48.51,5.37,2.55,7.04,1.05.87,2.3,1.53,3.64,1.99,1.35.4,2.72.96,4.22,1.29,1.88.46,1.66.2.03.66-.82.2-2.03.62-3.6.71-1.54.02-3.4-.44-5.16-1.53-.76-.48-1.53-1.08-2.18-1.78-.64-.71-1.18-1.5-1.62-2.36-.86-1.7-1.29-3.71-.97-5.73.08-.5.21-1,.39-1.48.19-.48.4-.95.62-1.33.44-.8.97-1.59,1.67-2.3.69-.71,1.54-1.33,2.5-1.75.96-.42,2-.61,2.98-.63,1.99-.03,3.72.57,5.28,1.19l1.13.49.52.23c.11.05.06.03.08.04h.02s.08.04.11.02c.02,0,.04-.02.06-.03.01-.01,0,.01.02-.02.03-.02.06-.07.09-.11.25-.33.47-.94.63-1.59.16-.66.28-1.38.37-2.13.09-.73.2-1.62.35-2.43.14-.82.34-1.62.53-2.42,1.01-3.79,2.43-7.58,4.69-11.02,1.15-1.7,2.54-3.31,4.25-4.61,1.7-1.29,3.76-2.26,5.91-2.54,2.35-.35,4.64-.09,6.77.27,2.14.36,4.2.81,6.2,1.01,4.01.36,8.13-.34,11.82-1.96,2.26-1.01,4.35-2.39,6.1-4.11,1.77-1.7,3.1-3.81,3.95-6.07,1.23-3.44,1.26-7.38.31-11-.46-1.8-1.2-3.6-2.19-5.06-1.02-1.47-2.43-2.69-3.99-3.64-4.93-2.9-11.26-3.08-16.07-.55-1.06.56-2.01,1.26-2.93,2.02-1.68,1.47-2.59,2.67-3.35,3.43-.72.8-1.31,1.19-1.97,1.43-.31.11-.65.29-.92.32-.45.05-.59-.44-.4-1.42.19-.97.77-2.42,1.96-4.03,1.73-2.41,4.2-4.44,7.05-5.77,2.87-1.3,6.1-1.86,9.29-1.66,3.19.19,6.34,1.18,9.17,2.85,1.41.84,2.74,1.88,3.91,3.12,1.17,1.21,2.16,2.83,2.8,4.27,1.96,4.42,2.57,9.27,1.65,14.04-.96,4.89-3.99,9.04-7.73,11.88l-.06-.06Z"/><path class="cls-1" d="M217.37,95.39c.38-3.62,1.82-7.02,3.88-9.87.74-1.05,1.51-2.08,2.41-2.98,3.22-3.15,7.28-5.35,11.66-6.2,1.93-.37,3.93-.6,5.91-.4,1.26.17,2.53.41,3.73.89.31.09.57.3.86.44.28.16.56.32.81.52.53.36.94.9,1.34,1.38.48.64.32.63-.41.62-.37,0-.88-.01-1.51.1-.31.05-.58.01-.89.01-.31,0-.61,0-.9-.06-2.03-.54-4.07-.59-6.17-.5-2.1.13-4.24.68-6.32,1.48-2.52.98-4.72,2.87-6.55,4.93-2.02,2.27-3.56,4.99-4.29,7.95-.43,1.83-.56,3.72-.34,5.61.33,2.88,1.17,5.76,2.94,8,1.35,1.75,3.2,2.97,5.17,3.81.44.19.88.34,1.33.5,1.66.61,2.17.9,2.34,1.83.04.21.11.42.12.62.03.66-.88,1.02-2.37.71-2.2-.44-4.42-1.42-6.37-2.93-1.97-1.48-3.55-3.56-4.62-5.81-1.54-3.39-2.14-6.97-1.84-10.67h.08Z"/><path class="cls-1" d="M301.62,114.31c.02-1.06-.08-2.16-.24-3.28-.17-1.12-.37-2.32-.62-3.35l-.08-.28s-.01-.05-.02-.07c-.02-.05-.04-.1-.06-.14l-.15-.28c-.06-.12-.13-.25-.25-.36-.11-.11-.29-.19-.41-.11-.13.08-.15.24-.17.4-.02.16-.04.34-.05.55-.02.07,0,.78.02,1.26.02.52.05,1.04.1,1.56.09,1.32.29,2.64.57,3.93l.53,2.49c.08.42.08.86.12,1.29l.05.65c.02.22-.06.47-.02.68.1.53.07.47-.17.07-.31-.37-1.12-1-1.73-1.89-.4-.82-.7-1.68-.98-2.55-.23-.88-.44-1.76-.6-2.66-.17-.89-.28-1.8-.31-2.71-.03-.46-.03-.91-.04-1.37v-.34s0-.57,0-.57c0-.39,0-.78.01-1.15v-.57s.02-.28.02-.28l.05-.22.2-.89c.17-.51.38-.88.85-1.24.31-.23.75-.34,1.14-.31.39.02.74.14,1.08.31.65.34,1.29.99,1.78,1.84.24.4.45.84.62,1.3.08.21.18.5.23.67l.13.47c.17.62.3,1.22.43,1.81.25,1.18.48,2.39.62,3.63.17,1.53.17,3.12-.15,4.69l-.1.45c-.05.18-.1.35-.17.52-.14.34-.32.66-.6.98-.27.31-.73.66-1.35.69-.59.04-1.16-.3-1.44-.64-.29-.34-.45-.67-.57-.95-.11-.27-.24-.55-.33-.83-.2-.56-.37-1.12-.51-1.69-.44-1.76-.75-3.5-.88-5.25-.02-.38-.08-.76-.08-1.15,0-1.43.23-1.86.98-2.13.17-.06.34-.14.51-.18.57-.11,1.04.48,1.19,1.49.43,2.99.66,5.97,1.76,8.4l.11.28c-.02.1.19-.06-.31.31-.29.23-.44.43-.49.52l-.03.05h0s0,.01,0,.01h0s0,0,0,0h0c-.02.07.02-.09.02-.07h0s-.02.11-.02.11c0,.02,0-.07-.1-.23-.1-.17-.28-.37-.5-.55-.16-.14-.12-.09-.12-.11,0,0,.02-.02.03-.03.02-.04.05-.08.07-.13.04-.04.09-.31.16-.55.05-.24.1-.48.13-.73.07-.5.1-1.01.1-1.54h.07Z"/><path class="cls-1" d="M305.56,144.94c-1.98,3.37-4.84,6.23-8.18,8.18l-1.87.99c-.31.16-.61.35-.94.48l-.99.36c-4.65,1.67-9.63,1.96-14.33,1.18-2.09-.33-4.17-.77-6.18-1.38-1.28-.41-2.56-.84-3.77-1.45-1.24-.52-2.38-1.28-3.43-2.11-.57-.67-.45-.63.37-.66.82-.03,2.14.14,3.51.61l1.81.66c.62.18,1.24.33,1.85.52l.91.29.93.22,1.87.44,1.89.3.95.16.96.07,1.92.16h1.93c3.09-.03,6.24-.85,9.07-2.15,3.11-1.43,5.9-3.59,7.9-6.41.61-.86,1.12-1.8,1.7-2.7l1.28-2.95c1.08-3.13,1.95-6.37,1.92-9.62,0-2.53-.66-4.94-1.35-7.38-.14-.54-.31-1.07-.45-1.62-.52-2.06-.43-2.79.18-3.4.14-.14.26-.31.4-.4.46-.31,1.17.4,1.76,1.86.43,1.08.84,2.19,1.23,3.35.35,1.17.66,2.38.88,3.64.45,2.53.5,5.25.09,7.85-.27,1.94-.76,3.81-1.37,5.62-.16.45-.29.9-.48,1.35l-.59,1.36c-.4.9-.76,1.82-1.32,2.64l-.07-.03Z"/><path class="cls-1" d="M228.44,254.18c-4.09-3.62-7.98-7.5-11.47-11.77-3.5-4.25-6.57-8.95-8.65-14.2-.37-.96-.67-1.95-1.01-2.93-.25-1.01-.51-2.01-.73-3.03-.13-1.05-.34-2.03-.38-3.14-.02-.56-.03-1.12.03-1.65.04-.54.08-1.07.18-1.58.56-3.66,1.76-7,3.06-10.29,1.32-3.27,2.85-6.44,4.5-9.53,3.32-6.17,7.13-12.05,11.4-17.6,3.82-4.89,7.92-9.63,12.61-13.73,3-2.62,6.23-5.08,9.92-6.86.92-.44,1.85-.87,2.83-1.2.96-.37,1.95-.67,2.99-.89,1.03-.24,2.18-.3,3.34-.06.58.11,1.15.32,1.66.61.26.13.49.3.72.45l.33.25c.04.06.14.03.13.16l.13.16c.81,1.05,1.07,1.51,1.01,1.55-.08.06-.59-.3-1.64-.58-.55-.09-1.11-.31-1.73-.29-.62.02-1.23.12-1.93.4-.69.26-1.49.51-2.35.88-.43.17-.88.37-1.33.58-.45.21-.93.37-1.4.6-6.77,3.12-12.67,8.45-17.9,14.22-5.24,5.82-9.9,12.27-14.04,19.06-2.47,4.07-4.67,8.42-6.45,12.93-.89,2.26-1.68,4.56-2.25,6.87l-.38,1.74c-.09.57-.19,1.15-.25,1.72-.11,1.16-.14,2.17.06,3.36.11,1.28.43,2.53.72,3.78.17.62.4,1.23.59,1.85.18.62.43,1.23.69,1.82.96,2.43,2.28,4.73,3.69,6.96,2.91,4.43,6.41,8.51,10.23,12.28,4.69,4.65,9.81,8.9,15.13,12.86,8.07,6,16.63,11.44,25.38,16.32l1.28.71.64.36c.23.14.38.19.7.42.59.42.92.9,1.22,1.34.3.45.55.9.78,1.35.92,1.8,1.65,3.6,2.38,5.39l1.09,2.67.55,1.32.21.49.15.32c.18.37.35.71.54,1.02.19.3.37.61.68.76h0c.13.05.33.02.41-.14.09-.15.09-.35.08-.52-.02-.35-.08-.67-.13-.96-.04-.26-.08-.5-.12-.72-.06-.44-.12-.84-.17-1.2-.15-1.12-.21-2.04-.2-2.81,0-.77.1-1.39.23-1.9.16-.51.37-.9.61-1.23.22-.3.46-.69.66-.83.35-.23.47.29.69,1.37.24,1.08.44,2.75.89,4.99.2,1.04.39,2.09.59,3.14.23,1.28.43,2.62.36,3.59-.06.98-.26,1.64-.6,2.18-.17.28-.39.53-.78.77-.41.23-.95.31-1.34.29-.71-.13-1.16-.25-1.73-.67-.27-.19-.56-.48-.85-.78-.29-.39-.59-.73-.88-1.24-.58-.92-1.14-2.15-1.65-3.3-.34-.81-.68-1.62-1.02-2.43-1.07-2.6-2.04-5.26-3.18-7.65-.28-.58-.59-1.15-.88-1.6-.07-.11-.15-.22-.21-.29-.07-.1-.12-.14-.14-.16-.04-.03,0,0-.04-.03l-.45-.25c-1.24-.7-2.48-1.4-3.72-2.09-2.5-1.42-4.98-2.88-7.45-4.39-9.31-5.71-18.35-12.04-26.66-19.3l.04-.07Z"/><path class="cls-1" d="M265.99,206.59c2.32-3.17,3.91-6.92,4.82-10.87.09-.36.18-.72.25-1.08l.15-1.1.3-2.21c.59-5.21.25-10.59-.91-15.8-.24-1.16-.61-2.29-.93-3.44-.37-1.13-.82-2.23-1.23-3.33-.65-1.36-1.24-2.76-1.95-4.1-.66-1.37-1.39-2.69-1.99-4.13-.38-.9-.32-.79.32-.25.32.27.81.64,1.43,1.08.6.46,1.13,1.12,1.65,1.87,1.9,2.64,3.14,5.66,4.26,8.7,1.14,3.05,1.7,6.28,2.03,9.52.31,3.88.52,7.94,0,11.92-.56,4.36-1.89,8.66-4.06,12.53l-1.03,1.77-1.22,1.65c-.4.55-.8,1.1-1.32,1.6-.49.5-.94,1.04-1.52,1.45-3.27,2.78-7.57,3.99-11.66,4.09-3.2.06-6.41-.25-9.46-1.44-.65-.31-1.34-.51-1.96-.92-1.19-.67-1.85-1.36-2.24-1.87-.34-.59-.38-1.06-.27-1.54.05-.22.08-.46.18-.63.16-.29.52-.33.99-.22.24.06.51.16.79.29.31.12.65.28.99.48,4.28,2.16,9.67,3.18,14.59,2.11,1.81-.43,3.52-1.13,5.05-2.13,1.51-1.04,2.72-2.4,3.88-4.05l.07.04Z"/><path class="cls-1" d="M235.93,207.2c1.31-1.9,2.69-3.73,4.23-5.42.55-.62,1.04-1.3,1.63-1.88,2.02-2.1,4.19-4.02,6.37-5.91.99-.81,1.94-1.67,2.9-2.49.61-.54,1.21-1.09,1.87-1.56.65-.49,1.32-.96,2.08-1.31.48-.21.43-.16.25.28-.12.31-.24.63-.36.93-.16.37-.4.75-.69,1.12-1.03,1.32-2.2,2.45-3.34,3.63-1.11,1.2-2.37,2.25-3.61,3.33-1.5,1.28-2.76,2.89-4.07,4.39-1.39,1.69-2.8,3.37-4.02,5.19-.4.55-.76,1.11-1.11,1.69-.36.57-.72,1.14-1.04,1.74-1.02,1.77-1.9,3.64-2.63,5.54-.27.75-.47,1.51-.66,2.27l-.52,2.3c-.08.33-.13.67-.23,1.01-.36,1.24-.77,1.55-1.51,1.63-.17.02-.35.06-.51.05-.53-.01-.84-.65-.84-1.67.11-2.97,1.14-5.91,2.39-8.77.97-2.11,2.09-4.17,3.36-6.12l.06.03Z"/><path class="cls-1" d="M376.92,152.26c3.22,0,3.22-5,0-5s-3.22,5,0,5h0Z"/><path class="cls-1" d="M275.5,207.88c-.4-.02-.72-.2-1-.35-.09-.05-.07-.16.04-.19.22-.05.45-.11.67-.18.07-.02.65-.12,1.3-.33.65-.16,1.37-.32,1.73-.44.7-.18,1.4-.42,2.1-.48,1.43-.16,2.85-.37,4.27-.59.32-.05.63-.06.95-.04,1.1.05,2.19-.04,3.28-.22.18-.03.37-.03.54-.17.27-.22,3.23-.58,3.63-.53.98.13,1.95.17,2.93.26.14.01.28-.05.42.09.32.33.61.24.91.23.42,0,.84.05,1.26.14.21.05.43.24.65.38.2.13.14.66.08.72-.17.18,0,.41.04.63.01.07.03.17.02.23-.01.12-2.28,1.37-2.54,1.34-.03,0-.91.14-1.82.28-.92.14-1.88.29-2.07.34-.2.05-.42-.02-.63-.06-.1-.01-2.87.43-2.98.43-.58,0-1.16.14-1.76-.12-.12-.05-.23-.03-.35-.03-1,.05-2.01-.07-3.01-.14-.51-.04-1.03-.02-1.54-.03-.09,0-.19-.04-.28-.06-.12-.02-.24-.06-.35-.06-.61,0-1.21-.04-1.82-.09-.61-.06-1.21-.16-1.82-.2-.28-.04-1.61-.39-1.93-.45-.18-.04-.76-.35-.91-.34Z"/><path class="cls-1" d="M268.41,221.7c-.56-.05-.94-.42-1.2-.96-.09-.16.03-.46.2-.52.35-.14.65-.14.96-.19.18.04,3.07.03,4.04-.05.94-.04,1.89-.11,2.82-.09l2.88-.12c.96-.03,1.93-.08,2.89-.14.43-.02.86,0,1.29.03,1.48.14,2.97.04,4.45-.15.25-.03.5-.03.73-.18.37-.25,4.42-.61,4.96-.54,1.33.14,2.66.18,3.99.29.19.01.39-.05.57.09.42.32.83.25,1.24.25.29,0,.57.01.86.03.29.03.58.11.87.18.29.08.57.27.85.42.25.13.12.57.04.63-.25.15-.04.36-.01.55,0,.06.02.14,0,.2-.01.05-.81.39-1.63.76-.83.29-1.7.56-1.87.57-.04,0-1.23.16-2.47.32-1.24.17-2.55.35-2.81.41-.28.06-.56,0-.85-.03-.13.01-3.91.51-4.06.5-.79,0-1.58.15-2.39-.11-.16-.05-.32-.03-.48-.02-1.36.09-2.74,0-4.11-.06-.71,0-1.4-.01-2.11-.02-.13,0-.25-.05-.38-.07-.16-.02-.32-.07-.48-.08-1.67-.09-3.33-.36-5.01-.51-.39-.03-2.18-.59-2.62-.73-.25-.05-.97-.58-1.19-.61Z"/><path class="cls-1" d="M256.3,231.24c-.37-.08-.68-.24-.94-.43-.26-.21-.47-.47-.66-.71-.12-.15,0-.39.23-.39.43.02.86,0,1.27.06.23.11,4.1.82,5.45.78,1.28.1,2.59.11,3.86.26,2.62.19,5.25.24,7.89.17.59-.01,1.17,0,1.76.06,2.01.16,4.03.08,6.05-.1.34-.03.68-.02,1-.17.53-.22,5.99-.69,6.7-.69,1.78.07,3.55.03,5.34.02.25,0,.52-.09.76.05.57.32,1.11.21,1.66.17.76-.05,1.53-.07,2.3-.04.38.02.78.19,1.17.31.36.11.25.7.14.77-.32.22,0,.45.05.68.02.08.05.18.04.24-.01.15-4.29,1.69-4.78,1.73-.06,0-1.7.22-3.42.45-1.72.21-3.52.42-3.89.47-.38.05-.78-.01-1.17-.04-.18.01-5.38.48-5.59.45-1.08-.03-2.17.12-3.25-.2-.21-.06-.43-.05-.65-.05-1.86.02-3.72-.19-5.58-.35-.95-.11-1.9-.15-2.85-.23-.17-.02-.34-.06-.51-.1-.21-.05-.43-.11-.64-.13-2.25-.23-4.48-.64-6.7-1.12-.26-.05-.98-.29-1.71-.52-.72-.27-1.45-.55-1.74-.63-.33-.08-1.3-.69-1.58-.78Z"/><path class="cls-1" d="M265.86,246.28c-.54-.09-.93-.37-1.26-.67-.1-.1-.03-.28.13-.28.34,0,.66-.01.92-.01.18.06,3.08.16,4.08-.02.99-.01,1.91-.03,2.84-.04,1.92-.01,3.86-.14,5.79-.3.43-.04.86-.05,1.29-.03,1.48.06,2.96-.03,4.43-.22.25-.03.5-.03.73-.16.38-.2,4.39-.63,4.92-.6,1.31.08,2.63.09,3.95.14.19,0,.39-.06.57.07.42.3.82.21,1.23.2.58,0,1.14.01,1.73.12.29.05.58.24.86.39.25.13.11.64.03.7-.25.17-.04.4-.02.61,0,.07.02.16,0,.22-.03.11-3.1,1.17-3.47,1.17-.04,0-1.23.14-2.47.28-1.24.15-2.54.31-2.82.34-.28.05-.57-.01-.85-.04-.13,0-3.9.42-4.06.41-.79,0-1.57.13-2.37-.11-.16-.05-.32-.03-.47-.02-1.36.05-2.72-.09-4.08-.18-.7-.06-1.39-.05-2.09-.09-.13,0-.25-.05-.38-.07-.16-.03-.32-.07-.47-.08-.82-.04-1.64-.11-2.47-.22-.82-.09-1.63-.18-2.47-.28-.19,0-.73-.18-1.27-.33-.54-.18-1.08-.35-1.3-.4-.24-.05-.98-.45-1.19-.49Z"/><path class="cls-1" d="M298.36,223.7c-.12-4.76-.41-9.51-.96-14.24-.2-1.74-.51-3.46-.72-5.19-.78-6.1-1.69-12.17-3.41-18.03-.77-2.6-1.77-5.14-2.89-7.58l-1.1-2.35-1.18-2.31c-.41-.76-.81-1.53-1.18-2.32-.18-.4-.39-.78-.58-1.17-.18-.4-.28-.85-.43-1.27-.28-1.11-.33-.91.45-.31.37.31,1.09.64,1.67,1.23.32.28.62.61.94.96.16.18.32.36.48.55.14.2.28.41.43.62.97,1.54,1.89,3.13,2.74,4.75.83,1.64,1.51,3.34,2.16,5.05,1.28,3.44,2.23,6.99,2.9,10.59.78,4.3,1.67,8.73,2.3,13.12.7,4.79,1.22,9.7,1.5,14.56.17,3,.28,6,.32,9,.08,4.54-.05,9.11-.19,13.61-.12,3.5-.12,6.95-.3,10.42-.04.76-.06,1.51-.13,2.28-.26,2.85-.62,3.73-1.64,4.21-.22.11-.45.27-.65.32-.67.18-1.23-1.05-1.16-3.12.09-6.13.38-12.53.54-18.98.13-4.78.18-9.6,0-14.39h.08Z"/><path class="cls-1" d="M290.67,103.13c.07-.11.14-.22.21-.32.03-.05.07-.09.1-.14.18-.24-.07.03-.07.09,0-.06.18-.21.22-.26.09-.1.17-.19.26-.28.18-.18.37-.36.57-.52.04-.04.21-.17,0,0-.22.17-.01.01.04-.03.1-.07.21-.15.32-.22.21-.13.42-.25.63-.36.12-.06.23-.11.35-.17.18-.09-.34.13-.15.06.07-.02.13-.05.2-.08.48-.18.99-.3,1.5-.37l-.43.06c.17-.02.34-.04.51-.05.85-.05,1.67-.71,1.62-1.62-.04-.84-.72-1.68-1.62-1.62-2.89.17-5.55,1.72-7.08,4.19-.45.72-.18,1.82.58,2.22s1.75.19,2.22-.58h0Z"/><path class="cls-1" d="M125.62,126.03c-.51.45-.98.96-1.4,1.51-.06.07-.3.44-.48.77l-.5,1.05-.91,2.06c-.53-.31-1.08-.67-1.61-.99-.57-.36-1.13-.68-1.7-.99l-.74-.39-.45-.25c-2.04-1.21-4.17-2.1-6.39-1.66-.98.17-1.91.66-2.69,1.27-.98.85-1.78,1.77-2.64,2.8-.37.28-.73.12-1.12-.49-.4-.6-.59-1.68-.07-2.59.88-1.62,2.45-2.72,4.09-3.45,1.65-.73,3.61-.92,5.36-.54,1.04.22,2.04.5,3,.83.48.16.95.35,1.4.56.22.1.45.21.67.32l.33.17c.11.06.23.12.23.13l.73.52c.09-.18.21-.37.35-.57l.13-.18c.09-.15.19-.29.29-.42.19-.28.41-.55.62-.81.88-1.06,1.92-1.97,3.06-2.72,1.72-1.15,3.75-1.79,5.74-2.08,1.55-.24,3.13-.4,4.75-.19.35.04.71.08,1.06.17,1.3.36,1.59.83,1.4,1.79-.04.22-.07.44-.14.65-.25.7-.92,1.01-1.67.95-2.24-.19-4.43-.17-6.49.44-1.51.44-2.94,1.27-4.14,2.4l-.06-.06Z"/><path class="cls-1" d="M165.84,67.24c-.5.47-.95.99-1.35,1.55-.05.07-.29.45-.46.79l-.47,1.06-.85,2.09c-.54-.29-1.1-.64-1.64-.95-.58-.34-1.15-.64-1.73-.94l-.75-.37-.45-.23c-2.08-1.15-4.23-1.98-6.44-1.47-.98.2-1.89.71-2.66,1.35-.95.88-1.73,1.82-2.56,2.88-.36.29-.73.14-1.13-.46-.42-.59-.64-1.66-.15-2.58.83-1.64,2.37-2.79,3.99-3.56,1.63-.78,3.59-1.03,5.34-.7,1.04.19,2.05.44,3.02.75.49.15.96.32,1.42.51.23.1.46.19.68.3l.33.16c.11.06.23.11.23.12l.75.49c.08-.19.2-.37.33-.58l.12-.18c.09-.15.18-.29.28-.43.19-.29.39-.56.6-.83.85-1.08,1.86-2.03,2.98-2.81,1.69-1.2,3.69-1.9,5.68-2.25,1.54-.28,3.12-.5,4.74-.33.36.03.71.06,1.06.14,1.31.32,1.61.79,1.45,1.74-.04.22-.06.45-.12.66-.23.71-.89,1.04-1.64,1-2.25-.12-4.43-.04-6.48.63-1.5.49-2.9,1.36-4.06,2.52l-.07-.06Z"/><path class="cls-1" d="M403.05,64.49c-.3.11-.59.23-.88.37-.14.07-.29.14-.43.22l-.21.12c-.07.04-.13.07-.28.18-.26.2-.5.34-.77.58l-.8.73-1.52,1.43c-.3-.46-.6-.97-.9-1.44-.33-.53-.66-1.03-1-1.52l-.51-.73-.31-.45c-1.18-1.83-2.55-3.4-4.57-3.8-.88-.2-1.83-.09-2.71.17-1.11.41-2.12.93-3.23,1.52-.42.1-.67-.17-.8-.84-.14-.67.05-1.66.8-2.26.33-.26.68-.49,1.04-.7.37-.2.76-.35,1.16-.48.8-.25,1.64-.4,2.49-.43,1.69-.05,3.49.47,4.85,1.5.8.6,1.54,1.24,2.21,1.91.34.33.65.68.94,1.04l.42.54.18.25.05.09.39.73c.36-.28.38-.31,1.77-1.13,1.11-.61,2.3-1.06,3.54-1.32,1.87-.41,3.85-.3,5.67.18,1.42.36,2.84.83,4.12,1.65.28.18.57.35.83.57.95.83.99,1.35.43,2.08-.13.17-.25.35-.4.49-.51.49-1.21.48-1.8.14-1.77-1.02-3.55-1.79-5.46-1.97-1.39-.13-2.89.09-4.29.67l-.04-.07Z"/></svg>