<?xml version="1.0" encoding="UTF-8"?><svg id="Layer_1" xmlns="http://www.w3.org/2000/svg" width="520" height="520" viewBox="0 0 520 520"><defs><style>.cls-1,.cls-2{fill:#231f20;}.cls-2{opacity:.2;}</style></defs><path class="cls-1" d="M239.84,101.41c1.63,1.04,3.61,1.66,5.56,1.45,2.08-.23,3.9-1.14,5.44-2.55.58-.53.58-1.59,0-2.12-.62-.57-1.5-.57-2.12,0-.37.34-.4.37-.77.62-.32.22-.65.41-1,.58-.08.04-.17.08-.26.12.14-.06.07-.03-.03,0-.17.06-.35.12-.52.17s-.35.09-.53.13c-.09.02-.18.03-.27.05.22-.04.06,0-.07,0-.36.03-.72.03-1.09,0-.03,0-.31-.03-.14,0s-.11-.02-.14-.02c-.18-.03-.37-.07-.55-.12s-.36-.1-.54-.17c-.09-.03-.18-.07-.27-.1-.23-.09.18.08-.05-.02-.39-.18-.77-.39-1.13-.62-.66-.42-1.68-.16-2.05.54-.39.74-.17,1.6.54,2.05h0Z"/><path class="cls-1" d="M233.97,126.13c3,1.97,7.59.75,9.18-2.47.35-.7.21-1.66-.54-2.05-.68-.36-1.68-.21-2.05.54-.07.15-.15.29-.24.43-.04.06-.08.12-.12.18-.17.26.23-.25.02-.02-.11.12-.22.24-.33.35-.05.05-.11.1-.16.15-.14.12-.24.1.03-.01-.27.11-.53.36-.8.49-.06.03-.16.05-.2.1.21-.09.26-.11.15-.06-.04.02-.08.03-.13.05-.15.06-.31.11-.47.15s-.32.07-.48.11c-.27.06.28-.02.09,0-.07,0-.15.02-.22.02-.16.01-.33.02-.49.01-.15,0-.34-.05-.49-.03.11-.02.34.06.09,0-.07-.01-.15-.03-.22-.04-.17-.04-.34-.09-.51-.15-.05-.02-.31-.11-.07-.02s-.01,0-.06-.04c-.16-.08-.31-.17-.46-.27-.66-.43-1.69-.15-2.05.54-.4.75-.16,1.59.54,2.05h0Z"/><path class="cls-1" d="M258.93,91.26c-2.43-2.02-5.3-3.46-8.41-4.06-.77-.15-1.66.22-1.85,1.05-.17.74.22,1.68,1.05,1.85.69.13,1.37.31,2.03.52.33.11.66.23.99.35.08.03.16.06.24.1-.16-.07-.15-.07,0,0,.16.07.32.14.48.22.63.3,1.25.64,1.84,1.01.3.19.59.38.87.59.05.03.48.36.22.16.14.11.27.22.41.33.6.5,1.54.63,2.12,0,.51-.55.64-1.59,0-2.12h0Z"/><path class="cls-1" d="M155.46,468.97c-.78,0-1.53-.04-2.24-.1-.71-.06-1.4-.2-2.05-.31-1.31-.24-2.52-.52-3.67-.75-.73-.15-.6-.37.29-.45l5.28-.43c1.1,0,18.2.06,24.01.08,2.82.01,5.63.02,8.44.03,2.81,0,5.63.03,8.45.07,11.45.13,22.9.12,34.35.03,2.54-.02,5.09,0,7.63.04,8.72.12,17.44.02,26.17-.18,1.45-.03,2.94-.04,4.35-.17,2.31-.2,25.99-.66,29.06-.64l22.88.06c1.09,0,2.25-.06,3.24.05,2.31.25,4.65.17,7.01.15,3.27-.02,6.55-.01,9.81.05,1.62.01,3.21.23,4.81.41,1.45.17.66.38.16.45-1.47.13-.28.28-.14.39.05.04.1.1.03.14-.02.01-.33.06-.86.13-.53.06-1.29.14-2.19.24-1.82.1-4.24.23-6.72.36-4.97.27-10.17.53-11.2.55-.5.01-27.92.8-31.03.89-1.62.06-3.27.03-4.9.02-.77.02-22.71.65-23.59.68-4.54.05-9.1.23-13.63.05-.89-.04-1.82,0-2.72,0-7.82.15-15.64.13-23.45.11l-11.99.03c-.72,0-1.44-.04-2.16-.06-.91-.03-1.82-.07-2.72-.07-9.46,0-18.92-.24-28.39-.4-2.18-.01-12.57-.62-15.08-.75-1.41-.04-5.98-.71-7.23-.73Z"/><path class="cls-1" d="M180.03,455.55c1.68-.16,3.38-.15,5.06.06.61.05,1.24.11,1.84.22,1.06.31,2.09.71,3.05,1.17.96.48,1.79,1.08,2.65,1.57.76.44,1.55.8,2.33,1.07.51.16,1.02.3,1.54.38.51.05,1.04.25,1.6.25.35.03.33.11.07.34-.13.11-.33.28-.59.44-.26.15-.59.39-.97.4-1.31.11-2.6-.1-3.78-.42-1.18-.32-2.26-.76-3.26-1.22-1.16-.66-2.46-.79-3.74-1.02-1.41-.26-2.87-.36-4.35-.27-.91.06-1.83.15-2.73.34-1.37.26-2.77.59-4.06,1.15-1.01.42-1.95.95-2.91,1.45-.21.11-.4.24-.64.32-.84.31-1.18.29-1.58-.02-.09-.07-.19-.13-.26-.2-.24-.24-.06-.69.42-1.24.7-.84,1.57-1.48,2.46-2.13.89-.67,1.91-1.11,2.96-1.5,1.56-.58,3.2-1,4.89-1.23v.08Z"/><path class="cls-1" d="M308.01,456.88c1.1-.98,2.1-1.97,3.31-2.98.44-.37.83-.8,1.33-1.14.88-.59,1.87-1.13,2.98-1.44,1.09-.35,2.36-.3,3.36-.06.89.25,1.67.49,2.42.63.95.15,1.9.17,2.78-.24.26-.14.36-.04.28.32-.07.33-.42,1.01-1.12,1.36-1.2.61-2.61.69-3.68.72-.54,0-1.02.08-1.41.03-.4-.03-.72.02-1.13,0-.99.01-1.91.8-2.82,1.57-1.01.84-2.07,1.88-3.15,2.88-.66.62-1.32,1.24-1.96,1.87-.97.96-1.99,1.89-2.88,2.91-.7.81-1.24,1.69-1.53,2.46-.07.17-.09.34-.14.49-.09.27-.15.4-.37.48-.12.04-.26.07-.42.09-.16.02-.36.04-.59.07-.18.02-.33.07-.45.09-.21.03-.39-.03-.77-.25-.4-.23-.57-.63-.55-1.1.11-1.39.78-2.53,1.41-3.39.65-.87,1.26-1.54,1.94-2.29.99-1.08,2.06-2.1,3.09-3.14l.06.06Z"/><path class="cls-2" d="M285.59,162.96c-1.34,1.65-10.88.95-15.12,0-4.24-.95-8.22-1.24-12.82.99-4.59,2.23-13.94,7.87-18.76,10.76-4.82,2.89-9.37,4.55-15.32,3.29-5.95-1.25-10.24-3.28-4.39-6.43,5.85-3.15,13.18-7.96,21.02-9.72s20.3-4.05,25.13-3.76,15.27,1.27,18.93,2.63c3.66,1.36,1.33,2.25,1.33,2.25Z"/><path class="cls-2" d="M192.76,189.16s-12.34,10.23-15.59,14.96c-3.25,4.74-14.66,21.39-16.38,31.13-1.72,9.74-5.85,28.17-4.77,37.81,1.08,9.65,6.48,34.06,14.71,45.08,8.22,11.01,20.04,23.31,26.7,27.56,6.66,4.26,21.8,11.97,35.96,16.24,14.16,4.27,39.94,4.39,50.87,2.16,10.93-2.23,40.64-11.81,48.26-17.09s25.82-23.57,26.83-28.87c1.01-5.31,7.36-19.45,7.97-21.35s-3.06,0-3.06,0c0,0-7.8,9.73-12.98,12.33-5.18,2.6-10.44,3.5-12.31,9.02-1.87,5.52-4.57,17.71-8.19,20.68-3.62,2.96-11.46,5.15-18.51,5.55s-13.86-1.12-17.08,2.27c-3.23,3.39-2.96,10.95-8.87,10.85-5.91-.1-13.77-3.17-19.31-5.69-5.54-2.52-8.16-3.79-18.14-1.84-9.98,1.95-16.95,5.49-22.12,1.84-5.18-3.65-19.28-6.34-22.66-14.38-3.38-8.04-3.12-23.25-12.23-25.41-9.11-2.16-22.09-8.66-23.07-15.11-.98-6.45,2.88-14.18,4.13-17.49,1.26-3.3,2.08-9.4-1.5-15.62-3.58-6.22-8.78-13.73-7.09-20.67,1.7-6.94,8.71-16.75,8.71-16.75l11.65-14.53,2.62-11.65s4.15-5.8,9.61-6.59c5.46-.79-4.15-4.42-4.15-4.42Z"/><path class="cls-2" d="M369.36,289.99s3.81-20.18,3.61-27.31c-.2-7.13-2.36-36.31-6.72-42.42-4.36-6.11-17.49-28.74-18.96-29.14s-21.97-17.57-21.97-17.57l-11.72,2.16s3.81,2.28,12.72,7.23c8.91,4.95,14.8,6.18,15.22,10.64.42,4.46-1.59,13.64,1.4,16.76s14.81,9.43,18.05,16.01c3.24,6.59.91,10.73-3.38,16.75-4.29,6.02-8.82,11.17-5.24,16.88,3.58,5.71,13.47,15.56,13.52,23.26.05,7.7,3.46,6.74,3.46,6.74Z"/><path class="cls-1" d="M172.24,274.98c.3-2.15.26-4.33-.28-6.46-.19-.78-.5-1.54-.74-2.33-.9-2.79-1.93-5.64-2.95-8.43-.46-1.24-.96-2.47-1.46-3.69-.69-1.54-1.19-3.17-1.71-4.78-.15-.51-.06-.47.22-.11.28.37.82,1.03,1.31,1.87.91,1.49,1.55,3.09,2.28,4.65.7,1.58,1.38,3.17,2,4.79.72,1.95,1.74,3.85,2.5,5.92.8,2.27,1.2,4.78,1.08,7.21-.08,1.5-.29,2.98-.65,4.42-.52,2.19-1.35,4.26-2.19,6.28-.65,1.58-1.24,3.15-2.01,4.64-.16.33-.31.66-.49.99-.77,1.15-1.16,1.43-1.67,1.48-.12.01-.24.04-.34.03-.33-.03-.31-.66-.04-1.66.17-.75.45-1.45.72-2.15.29-.7.51-1.43.84-2.11.62-1.38,1.24-2.77,1.79-4.17.8-2.09,1.5-4.22,1.75-6.39h.05Z"/><path class="cls-1" d="M353.96,261.25c-.84-2.29-1.11-4.94-.6-7.33.18-.87.38-1.74.71-2.54,1.17-2.84,2.84-5.26,4.45-7.65.7-1.07,1.41-2.15,2.11-3.21.94-1.34,1.94-2.64,2.95-3.93.32-.4.29-.33.15.08-.16.41-.37,1.21-.7,2.11l-.94,2.35c-.34.76-.76,1.48-1.15,2.21-.82,1.44-1.78,2.81-2.66,4.21-1.07,1.66-1.84,3.54-2.35,5.39-.27,1.02-.49,2.04-.53,3.07-.05,1.03.1,2.06.32,3.09.33,1.25.85,2.48,1.49,3.67.98,1.79,2.16,3.53,3.37,5.24.94,1.33,1.99,2.58,2.82,4.05.18.32.38.63.52.98.57,1.27.48,1.8.06,2.22-.1.1-.2.22-.31.29-.37.23-.88-.16-1.34-.94-1.52-2.26-3.16-4.57-4.94-7.09-1.3-1.86-2.57-3.91-3.47-6.21l.05-.02Z"/><path class="cls-1" d="M339.71,319.37l.53-.89.62-.85c.39-.58.92-1.07,1.39-1.59.98-.94,2.02-1.74,3.08-2.52.77-.56,1.51-1.16,2.3-1.67,2.78-1.82,5.57-3.51,8.24-5.36,1.17-.83,2.32-1.72,3.29-2.73,1.23-1.31,2.43-2.7,3.02-4.44.21-.53.23-.46.21.04-.01.25,0,.62-.06,1.07-.1.42-.19.96-.41,1.48-.77,1.89-2.16,3.41-3.56,4.76-.71.67-1.45,1.32-2.22,1.91-.78.58-1.61,1.08-2.42,1.6-1.96,1.21-3.88,2.61-5.74,3.97l-1.52,1.13c-.48.4-.98.78-1.46,1.18-.94.84-1.84,1.61-2.52,2.62-.88,1.2-1.59,2.56-2.14,4-.86,2.18-1.5,4.49-2.24,6.79-.58,1.78-1.11,3.61-2.24,5.26-.28.34-.5.71-.83,1.02-1.22,1.16-1.92,1.09-2.35.98-.11-.03-.23-.05-.3-.1-.23-.13.13-.74.75-1.52.2-.33.44-.6.64-.91l.54-.97.52-1.01.46-1.07c.58-1.47,1.05-3.07,1.53-4.73.73-2.45,1.49-5.04,2.86-7.48l.05.02Z"/><path class="cls-1" d="M211.39,404.11c1.19-.45,2.42-.71,3.59-.72.43-.02.84-.08,1.26-.07,1.47.06,2.85.23,4.26.3.63.02,1.25.04,1.87.06.4.02.79,0,1.19.05.4.07.8.17,1.2.27.25.07.22.12.01.26-.21.13-.58.46-1.03.68-.8.29-1.61.38-2.42.52-.81.02-1.62,0-2.44-.07-.98-.1-1.98.05-2.92.13-.52.04-1.03.1-1.53.18-.5.06-1,.16-1.47.3-.59.17-1.16.4-1.67.72-.78.48-1.43,1.12-1.85,1.97-.33.66-.45,1.42-.74,2.14-.06.16-.1.33-.18.49-.35.57-.61.7-1.05.64-.1-.01-.2-.02-.29-.04-.27-.07-.45-.44-.47-.93-.03-.38,0-.73.05-1.1.05-.36.07-.76.21-1.12.24-.74.62-1.53,1.17-2.28.84-1.13,2.03-1.92,3.21-2.43l.03.05Z"/><path class="cls-1" d="M304.9,397.01c1.09-.75,1.98-1.08,2.94-1.58.35-.17.66-.39,1.02-.54,1.23-.56,2.53-.98,3.8-1.41.57-.17,1.1-.47,1.67-.62.71-.27,1.49-.36,2.27-.4.25-.01.22.03.08.21-.15.17-.38.58-.7.92-1.15,1.18-2.56,1.64-3.98,2.16-.86.3-1.66.79-2.48,1.23-.89.46-1.84.94-2.67,1.43-.5.3-.91.62-1.15,1.01-.37.57-.51,1.53-.43,2.4.07.69.34,1.32.64,1.91.07.13.15.25.21.38.22.49.2.68-.28,1.08-.1.09-.19.18-.27.25-.26.22-.85.24-1.15-.18-.99-1.18-1.44-2.85-1.37-4.5.02-.61.11-1.31.42-2.04.34-.75.9-1.35,1.42-1.75l.04.04Z"/><path class="cls-1" d="M220.38,293.65l6.35-23.94s31.13,3.21,40.27,3.51c9.14.3,28.58-3.38,32.79,3.39s6.9,28.33-1.59,29.6c-8.5,1.27-27.1,9.88-35.97,9.02s-35.49-12.27-35.49-12.27l-6.35-9.32Z"/><path class="cls-1" d="M204.08,349.95l-13.86,41.26s-3.86,3.59-1.14,5.68c2.72,2.09,21.01,8.74,34.48,8.51,13.47-.23,29.34-.25,29.34-.25l8.63-21.25,2.41-18.19s-31.58-3.64-37.92-5.92-21.95-9.85-21.95-9.85Z"/><path class="cls-1" d="M271.8,365.72l5.4,23.46s.65,15.56,4.22,14.87c3.57-.69,46.4-17,46.4-17l13.72-7.38-20.17-27.87s-18.15,8.33-26.19,10.07c-8.05,1.74-23.39,3.85-23.39,3.85Z"/><path class="cls-1" d="M203.44,226.41c-1.16-.13-2.22-.43-3.23-.72-.37-.11-.74-.15-1.1-.29-1.25-.53-2.51-1.05-3.72-1.66-.54-.27-1.08-.52-1.6-.81-.67-.36-1.32-.76-1.89-1.27-.18-.16-.11-.19.11-.16.21.04.59.11.98.26,1.38.59,2.86.78,4.26,1.26.84.3,1.8.35,2.71.55.99.26,1.96.52,2.91.65.59.08,1.17.12,1.74.07.86-.08,1.68-.3,2.34-.83.51-.4.81-1,.94-1.53.04-.12.02-.24.08-.34.18-.4.28-.53.79-.67l.27-.1c.19-.08.75.15.82.76.23.91-.17,1.84-.67,2.57-.52.74-1.23,1.32-2.03,1.73-1.24.63-2.56.66-3.73.59v-.05Z"/><path class="cls-1" d="M183.87,220.31c-1.55.78,1.85,4.62.82,5.93-.67.85-7.88.95-7.5,2.49.23.91,3.17.37,6.61.75,3.93.45,8.4,1.75,8.4,1.75l-4.9-6.55s-2.33-4.94-3.44-4.38Z"/><path class="cls-1" d="M176.88,230.89c-.69.56,2.75,2.23,2.4,3.76-.28,1.25-2.98,2.04-2.68,2.69.65,1.41,3.2-.02,6.14,0,3.29.02,6.97,1.4,6.97,1.4,0,0-10.02-10.12-12.83-7.86Z"/><path class="cls-1" d="M178.77,240.82c-.64.91,4.38,2.07,4.38,3.76,0,1.07-4.43,1.84-3.37,3.45,1.79,2.71,12.99-3.14,12.99-3.14,0,0-12.54-6.14-13.99-4.07Z"/><path class="cls-1" d="M266.2,213.75c-.25-.95-.21-1.84-.12-2.65.03-.29.03-.58.08-.86.19-.97.39-1.9.56-2.85.1-.42.16-.84.21-1.26.07-.54.13-1.08.3-1.61.05-.17.18-.13.34.02.15.15.35.43.4.75.14,1.12.32,2.24,0,3.34-.15.65-.11,1.37-.15,2.02-.04.72-.06,1.39.08,2.02.08.38.22.74.42,1.08.3.52.72,1,1.25,1.29.42.23.91.27,1.34.26.1,0,.19-.03.29-.02.33.1.43.24.54.75l.07.31c.06.3-.11.71-.53.87-.31.15-.62.16-.94.14-.32-.02-.63-.08-.94-.18-.61-.2-1.18-.54-1.67-.97-.72-.64-1.29-1.48-1.58-2.42l.04-.02Z"/><path class="cls-1" d="M293.27,228.48c-.06.43-.17.83-.32,1.22-.04.14-.06.29-.13.42-.24.47-.55.88-.93,1.21-.15.15-.3.31-.44.46-.21.17-.35.47-.73.37-.11-.02-.17-.15-.23-.37-.04-.14-.09-.29-.12-.4-.03-.13-.04-.21,0-.25.21-.32.35-.62.64-.89.21-.16.2-.43.27-.65.08-.25.14-.52.16-.79.02-.17.03-.34,0-.51-.03-.25-.06-.51-.2-.73-.12-.16-.35-.24-.53-.3-.04-.02-.09-.02-.13-.03-.11-.07-.06-.17.35-.65l.22-.28c.2-.25.65-.6.84-.51.67.16,1.05.76,1.21,1.35.13.44.14.9.12,1.33h-.05Z"/><path class="cls-1" d="M292.06,235.98c-.34.54-.78,1.01-1.28,1.38-.18.14-.33.3-.53.4-.35.18-.71.32-1.08.4-.37.07-.75.1-1.11.1-.32.02-.64.02-.95-.04-.39-.05-.79-.17-1.11-.42-.1-.08-.05-.17.08-.28.13-.1.34-.28.53-.35.34-.09.63-.27.91-.36.28-.05.56-.09.86-.12.36-.04.68-.27.96-.48.33-.22.63-.48.87-.82.15-.2.28-.43.37-.67.14-.37.26-.77.21-1.17-.03-.31-.22-.59-.39-.83-.04-.05-.08-.1-.11-.16-.04-.1-.05-.18.03-.27.11-.1.25-.21.46-.34l.27-.17c.15-.09.3-.14.47-.15.17-.01.39,0,.48.11.68.6.81,1.56.71,2.41-.08.65-.31,1.27-.62,1.83l-.04-.02Z"/><path class="cls-1" d="M280.42,242.68c-.08-.99-.2-1.93-.55-2.7-.14-.28-.3-.52-.47-.77-.59-.86-1.86-1.54-2.99-2.17-.52-.26-1.05-.52-1.57-.77-.68-.31-1.36-.62-2.06-.9-.44-.16.18-.16,1.05-.04.77.12,1.55.26,2.31.46.74.26,1.46.57,2.15.95.8.44,1.86.86,2.58,1.78.75,1,.99,2.16,1.16,3.21.1.66.16,1.3.21,1.96.08.99.06,2-.04,3-.08.77-.1,1.57-.39,2.32-.06.16-.12.33-.19.49-.31.59-.53.7-.86.66-.08-.01-.16-.01-.22-.04-.23-.08-.27-.39-.2-.81.12-.62.07-1.25.14-1.85.05-.61.07-1.23.05-1.86,0-.94-.02-1.92-.14-2.91h.04Z"/><path class="cls-1" d="M281.54,241.19c.05-.25.14-.51.18-.77.02-.1-.01-.18,0-.28.05-.34.08-.69.05-1.02,0-.15-.05-.29-.09-.43-.06-.18-.14-.35-.14-.56,0-.13.47-.17.64,0,.25.34.46.71.51,1.13.03.25.17.48.23.73.07.27.11.55.14.83.02.17,0,.35,0,.52,0,.26,0,.52,0,.78.01.2.11.4.16.6.01.04.04.09.04.14,0,.17-.11.21-.51.22h-.28c-.31-.01-.57-.09-.66-.21-.27-.33-.37-.65-.39-.97.02-.24.05-.48.07-.73h.04Z"/><path class="cls-1" d="M276.65,199.54c-3.23-.64-6.54-.88-9.85-.9-1.21.02-2.42.08-3.62.18-4.26.22-8.52.83-12.69,1.9-1.83.53-3.7,1.05-5.35,1.83-1.07.5-2.08,1.09-2.96,1.79-.44.35-.86.71-1.28,1.06-.19.2-.44.35-.69.51-.24.17-.44.38-.65.59-.52.53-.62.44-.67-.35-.02-.4.01-.94.07-1.71.05-.37.22-.69.4-1.03.1-.17.21-.33.32-.51.13-.14.28-.29.43-.43,2.23-1.89,4.82-2.92,7.3-3.64,2.48-.72,5.02-1.28,7.59-1.6,3.06-.45,6.25-.9,9.41-1.09,3.48-.11,6.96.05,10.41.49,1.06.16,2.11.36,3.16.54,1.05.18,2.08.48,3.12.71,3.13.82,6.21,1.91,9.1,3.3.57.26,1.14.51,1.7.77l1.65.86c.55.29,1.12.55,1.64.87l1.58.99c.46.3.94.55,1.38.89,1.61,1.28,1.99,1.85,1.84,2.66-.02.17,0,.35-.04.47-.06.34-1.17.37-2.32-.46-3.53-2.32-7.35-4.46-11.48-6.04-1.51-.63-3.1-1.07-4.68-1.56-.8-.21-1.61-.38-2.41-.58-.8-.21-1.62-.35-2.44-.47v-.06Z"/><path class="cls-1" d="M208.59,185.92c.11-.16.23-.31.36-.45.42-.42.97-.69,1.54-.78.31-.06.55-.05.74-.05.2,0,.38.02.54.03.32.03.59.06.79.06.19,0,.32-.01.48-.08.25-.1.47-.34.69-.6.41-.49.68-1.11.77-1.86.09-.76.04-1.6-.03-2.47-.07-.77-.18-1.6-.2-2.4-.03-.52-.03-1.04.05-1.56.07-.52.22-1.02.53-1.48.36-.25.32-.2.64.13.17.17.31.37.47.62.17.24.28.5.29.76.09.93.02,1.83.12,2.75.07.93.22,1.97.14,3.12-.07,1.33-.3,3.01-1.45,4.18-.31.32-.69.6-1.13.8-.43.2-.94.29-1.35.3-.79,0-1.5-.07-1.69,0-.09.02-.16.07-.23.13-.11.12-.16.19-.29.53-.1.29-.28.74-.57,1.1-.58.69-1.32.99-1.93,1.23-.62.24-1.2.43-1.62.72-.25.18-.39.38-.44.58-.04.09-.04.19-.06.38-.04.25-.11.57-.22.84-.14.29-.32.56-.57.78-.25.23-.53.43-.87.56-.58.22-.89.19-1.12.1-.23-.1-.35-.34-.45-.7-.04-.16-.1-.32-.12-.48-.09-.52.26-1.03.66-1.2.09-.05.18-.1.23-.14.03-.04.04-.08.05-.12.02-.08.02-.14,0-.19-.01-.03-.02-.05-.03-.06-.01.02,0-.06.02-.16.02-.1.05-.21.09-.34.17-.54.51-1.07.91-1.42.8-.74,1.55-.96,2.14-1.21.65-.23,1.17-.43,1.36-.57.1-.09.12-.05.2-.19.1-.17.16-.53.54-1.19l.05.03Z"/><path class="cls-1" d="M231.97,111.53c-.44.29-.93.57-1.5.75-.2.07-.41.16-.64.19-.42.03-.96-.02-1.35-.27-.38-.26-.62-.73-.71-1.1-.07-.3-.12-.53-.16-.78-.07-.3-.14-.59-.2-.92-.01-.11.07-.15.23-.16.15,0,.44.02.63.16.31.25.62.55.81.82.25.35.06.29.08.47.03.2.16.15.42.09.29-.06.62-.22.95-.44.2-.14.4-.29.59-.47.28-.27.58-.55.81-.89.17-.27.27-.59.41-.89.03-.07.05-.14.09-.2.17-.21.38-.16.75.07l.26.16c.27.19.43.46.46.72-.01.68-.31,1.22-.77,1.69-.32.36-.71.69-1.12,1.02l-.03-.03Z"/><path class="cls-1" d="M319.75,75.73c-.12.64-.32,1.26-.54,1.84-.08.21-.12.44-.22.64-.34.72-.74,1.39-1.14,2.04-.2.28-.36.57-.53.86-.14.41-.58.65-.86.98-.1.1-.12.06-.14-.07,0-.13-.07-.39-.12-.69-.02-.25-.03-.5.06-.69.07-.2.14-.4.2-.6.12-.41.37-.75.6-1.1.29-.42.4-.93.56-1.4.18-.52.33-1.04.42-1.58.06-.33.1-.66.11-1,.01-.5,0-1.02-.16-1.49-.12-.37-.38-.67-.61-.95-.05-.06-.12-.11-.17-.17-.17-.23-.13-.35.27-.72l.25-.23c.27-.23.68-.34.91-.13.73.59,1.08,1.54,1.19,2.45.09.68.04,1.36-.06,2.01h-.04Z"/><path class="cls-1" d="M241,96.8s-7.01-5.03-.8-14.07,20.36-4.88,20.36-1.43-5.74,5.37-8.53,7.06c-2.8,1.7-11.02,8.44-11.02,8.44Z"/><path class="cls-1" d="M261.53,82.83s3.77-6.2,7.88-7.67c4.11-1.46,25.06,5.2,25.06,5.2,0,0,17.22,2.75,25.46,12.57,8.24,9.82,12.53,16.26,13.08,26.21.54,9.95,1.14,21.76,4.61,25.23,3.48,3.47,4.34,4.73,7.99,5.67s1.56,14.57-7.71,15.7c-9.27,1.13-6.27,6.65-12.57,7.81-6.29,1.16-12.49,4-16.32,2.92s-14.44.67-23.42-13.51c-8.98-14.18-5.24-26.31-5.24-26.31l1.71-10.83s7.82-2.1,8.36-6.22c.54-4.12-1.57-7.28-1.89-8.25-.32-.96-7.55-.4-11.8-3.65-4.25-3.25-11.42-14.79-11.42-14.79l-3.76-10.1Z"/><path class="cls-1" d="M330.39,449.3c-1.55,1.23-3.28,2.26-5.13,3.12l-1.03.46c-.35.15-.72.27-1.09.38-1.31.32-2.86.5-4.34-.11-.36-.12-.85-.43-1.14-.79-.32-.36-.5-.82-.54-1.3-.05-.47.07-.98.19-1.31.12-.35.28-.67.45-.96.58-1.04,1.29-1.9,1.99-2.73.91-1.06,1.79-2.13,3.05-2.81.38-.22.42-.12.38.33-.03.31-.06.63-.09.93-.07.36-.21.72-.41,1.06-.77,1.16-1.62,2.22-2.28,3.3-.36.5-.7,1.02-.89,1.45-.1.26-.12.26-.15.33-.03.07-.03.16,0,.24.03.05.04.09.14.14l.41.15c.13.07.31.04.46.06.16.01.32.04.49,0l.52-.07.53-.16c.35-.08.71-.27,1.07-.39,1.58-.66,3.1-1.69,4.56-2.77.9-.67,1.79-1.38,2.6-2.16,1.23-1.17,2.43-2.42,3.09-3.87.52-1.13.54-2.33.39-3.51-.03-.26-.11-.52-.13-.79-.08-1,.05-1.37.78-1.73.16-.08.31-.18.47-.24.5-.19,1.14.15,1.45,1,.49,1.23.64,2.72.39,4.27-.25,1.56-1.01,2.99-1.84,4.16-1.29,1.77-2.77,3.07-4.31,4.37l-.05-.05Z"/><path class="cls-1" d="M328.02,459.42c-3.54,2.94-7.32,5.61-11.53,7.7-2.11,1.03-4.34,1.93-6.83,2.37-1.23.24-2.55.34-3.92.16-1.41-.21-2.63-.48-4.34-1.83-.35-.33-.59-.73-.87-1.12-.11-.33-.26-.66-.25-1.02,0-.18-.03-.35-.03-.52l.08-.53c.02-.35.18-.69.3-1.03.11-.34.28-.7.43-.95.51-.91,1.08-1.64,1.65-2.33,1.16-1.39,2.37-2.62,3.61-3.8,2.2-2.07,4.43-4.03,6.65-5.97,2.21-1.94,4.43-3.89,6.35-5.95.48-.51.9-1.04,1.29-1.55.16-.25.34-.51.43-.73.07-.12.1-.21.12-.28.04-.07.04-.16.04-.25.03-.39-.08-1.07-.26-1.71-.16-.65-.39-1.32-.64-1.99-.99-2.68-2.26-5.35-3.54-7.99-2.26-4.71-4.78-9.36-7.22-13.98-3.06-5.96-6.31-11.92-8.31-18.42-.36-2.11-.37-1.78.59-.26.52.75,1.15,1.83,1.98,3.11.41.65.85,1.34,1.32,2.07.23.37.47.75.72,1.14.23.4.46.81.69,1.23,1.64,2.97,3.37,5.91,5.1,8.86,1.72,2.95,3.39,5.94,5.06,8.95,1.65,3.02,3.32,6.04,4.77,9.22.73,1.59,1.43,3.2,2.05,4.91.31.85.59,1.74.83,2.69.1.51.21.98.25,1.59.04.26.02.63-.01.99,0,.36-.15.71-.25,1.06-.14.37-.31.68-.47.98-.17.26-.34.55-.52.79-.35.49-.71.93-1.08,1.36-.74.84-1.49,1.62-2.26,2.38-1.53,1.52-3.1,2.96-4.66,4.4-3.12,2.87-6.34,5.67-9.11,8.63-.76.82-1.49,1.68-2.01,2.5-.15.25-.16.25-.21.37-.05.09-.07.19-.1.29-.05.21.07.43.25.53l.18.14.31.15c.27.18.62.22.92.34.33.07.68.13,1.03.16.37,0,.72.05,1.1,0,1.51-.08,3.07-.52,4.6-1.09,3.07-1.16,5.99-2.92,8.77-4.84,2.29-1.6,4.48-3.37,6.56-5.25,2.06-1.89,4.05-3.9,5.68-6.08.62-.82,1.18-1.69,1.52-2.51.29-.69.33-1.72.26-2.7-.16-2.01-.66-4.08-1.24-6.12-1.2-4.09-2.74-8.12-4.31-12.1-2.46-6.19-5.17-12.17-7.54-18.38-.52-1.37-1.06-2.7-1.54-4.1-1.71-5.22-1.87-7.02-1.24-8.38.14-.31.25-.7.4-.9.52-.66,1.67,1.31,3.02,5,2.06,5.46,4.3,11.03,6.62,16.69,2.31,5.68,4.71,11.43,6.79,17.45.76,2.24,1.49,4.51,2.02,6.94.27,1.21.48,2.47.57,3.82.04.68.04,1.39-.04,2.15-.07.41-.07.74-.23,1.22-.06.22-.13.46-.21.65l-.24.54c-.65,1.37-1.4,2.38-2.17,3.39-.77,1-1.59,1.91-2.42,2.81-1.67,1.77-3.43,3.41-5.26,4.97l-.07-.06Z"/><path class="cls-1" d="M324.17,391.04c-6.15,2.47-12.34,4.79-18.55,7.05-2.27.82-4.5,1.73-6.78,2.51-2.79.96-5.6,1.88-8.43,2.76-1.42.44-2.84.86-4.28,1.26-.72.19-1.46.37-2.21.54-.4.08-.74.15-1.21.22-.58.04-1.16.09-1.72,0-.46-.22-.89-.48-1.24-.85-.16-.2-.36-.36-.49-.58l-.36-.56c-.36-.67-.65-1.32-.88-1.97-.47-1.3-.82-2.58-1.14-3.86-.91-3.72-1.54-7.45-2.26-11.11-.88-4.71-1.92-9.37-2.71-14.08-.3-1.45-.11-1.33.6-.22.34.56.82,1.36,1.35,2.36.26.5.56,1.04.8,1.63.23.6.44,1.23.63,1.91,1.22,4.38,2.24,8.79,3.32,13.14l.82,3.24c.27,1.08.52,2.15.81,3.19.29,1.05.6,2.07.97,3,.19.45.38.9.58,1.22.05.13.09.21.2.28.07.04.14.04.24.04.31-.06.66-.11,1.02-.19,2.75-.61,5.64-1.53,8.47-2.5,2.85-.98,5.69-2.03,8.52-3.05,6.23-2.23,12.43-4.55,18.59-6.99,3.78-1.5,7.56-3.04,11.26-4.7,1.43-.64,2.86-1.31,4.25-2,.7-.35,1.37-.71,2.03-1.08.31-.19.64-.39.92-.58l.27-.21c.08-.07.15-.16.21-.25.08-.19.13-.41.12-.61.01-.22-.04-.58-.1-.88-.12-.64-.38-1.31-.63-1.97-.55-1.32-1.24-2.63-1.97-3.9-2.37-4.06-5.24-7.76-7.96-11.63-.6-.85-1.22-1.67-1.8-2.56-1.11-1.62-1.63-2.85-1.93-3.73-.29-.9-.26-1.52-.05-2.1.1-.27.16-.58.29-.76.42-.6,1.62.5,3.34,2.71,2.49,3.32,5.02,6.82,7.52,10.48,1.24,1.84,2.46,3.73,3.61,5.72.58,1,1.13,2.03,1.64,3.12.51,1.1,1,2.22,1.34,3.6.12.52.23,1.07.25,1.74,0,.21.02.44,0,.65l-.11.61c-.05.42-.22.79-.36,1.18-.43.55-.84,1.16-1.47,1.57-.42.32-.73.48-1.1.73-.69.4-1.37.78-2.04,1.12-1.35.7-2.68,1.32-4.03,1.94-2.68,1.22-5.38,2.37-8.08,3.49l-.04-.08Z"/><path class="cls-1" d="M200.38,462.17c-1.78.12-3.57.13-5.43-.14-.67-.1-1.37-.16-2.07-.42-.61-.22-1.24-.51-1.81-1-.57-.48-1.08-1.1-1.29-2.04-.1-.49,0-1.04.21-1.46.12-.19.25-.39.38-.53l.42-.37c.57-.4,1.13-.66,1.69-.85.98-.35,1.93-.62,2.88-.86.61-.14,1.21-.31,1.83-.38.62-.06,1.25-.07,1.88-.05.39.02.37.18.09.46-.28.27-.79.77-1.43,1.09-1.15.49-2.32.8-3.39,1.26-.52.22-1.06.45-1.47.69-.43.22-.76.55-.76.53-.02-.01-.06-.03-.11-.03h-.04s.06,0,.06,0c.05,0,.05,0,.04,0-.04-.01,0,.05.02.12.04.14.22.32.41.46.41.28,1.02.47,1.67.6,1.44.3,3.09.29,4.71.17,1-.09,2.02-.19,3.02-.36,1.52-.26,3.06-.56,4.52-1.06,1.13-.39,2.18-.96,3.2-1.52.22-.13.46-.22.69-.32.89-.34,1.26-.23,1.74.22.11.1.23.19.31.3.15.17.17.39.1.65-.07.26-.24.59-.54.85-.44.38-.87.84-1.39,1.11-.51.29-1.03.55-1.57.79-1.08.47-2.2.85-3.35,1.17-1.7.47-3.45.79-5.23,1.02v-.07Z"/><path class="cls-1" d="M180.34,457.99c-1.15.15-2.29.33-3.4.56-1.1.25-2.17.56-3.15.95-.97.39-1.85.89-2.38,1.45-.25.28-.46.55-.54.83-.07.13-.09.28-.11.44-.05.19-.02.17-.03.24-.02.1.06.19.13.25.17.13.65.39,1.07.56.9.37,1.92.67,2.97.92,2.1.51,4.29.91,6.5,1.21,3.32.45,6.68.61,10.03.72,2.95.09,5.92.07,8.81-.22,1.44-.15,2.88-.36,4.16-.75.64-.2,1.22-.41,1.6-.75.22-.19.46-.36.67-.62.22-.22.44-.47.64-.75,1.66-2.19,2.9-4.94,4.02-7.67,1.12-2.74,2.1-5.57,3.01-8.42,1.59-5.07,3.05-10.23,4.37-15.35.89-3.28,1.78-6.58,2.68-9.87l1.39-4.93c.44-1.65,1.16-3.23,1.68-4.85.65-2.03.61-1.74.27.03-.17.88-.29,2.17-.37,3.74-.15,1.55-.44,3.34-.79,5.27l-2,10.26c-.72,3.41-1.59,6.8-2.47,10.19-.9,3.39-2,6.73-3.17,10.07-1.2,3.33-2.49,6.65-4.24,9.87-1.09,1.9-2.15,3.88-4.35,5.52-1.21.76-2.33,1.05-3.45,1.34-1.12.26-2.22.45-3.33.59-4.41.54-8.8.59-13.15.38-3.38-.17-6.74-.5-10.11-1.06-1.68-.28-3.36-.65-5.05-1.19-.84-.27-1.69-.59-2.56-1.05-.22-.12-.43-.25-.66-.4-.25-.17-.53-.39-.75-.62-.47-.46-.77-1.08-.84-1.72-.01-.56-.04-1.12.07-1.55.05-.46.24-.9.41-1.33.42-.82.99-1.54,1.65-2.04,1.3-1.05,2.72-1.62,4.12-2.07,2.95-.89,5.88-1.29,8.81-1.59,2.92-.28,5.84-.43,8.73-.61,1.09-.07,2.18-.14,3.24-.25.53-.06,1.06-.12,1.56-.21l.37-.07.23-.06c.14-.05.3-.07.4-.18.1-.11.16-.25.23-.38.05-.11.18-.42.26-.64.18-.49.34-.99.49-1.51.31-1.03.59-2.08.85-3.14,1.05-4.24,1.94-8.53,2.77-12.81,1.29-6.65,2.28-13.23,3.39-19.85.24-1.46.45-2.89.72-4.36.98-5.44,1.64-7.12,2.77-8.09.26-.22.53-.53.76-.64.76-.37.91,1.95.32,5.94-1.77,11.85-3.91,24.29-6.67,36.78-.53,2.32-1.07,4.64-1.77,7-.18.59-.37,1.19-.6,1.82-.14.34-.19.56-.5,1.17-.26.52-.58,1.02-1.05,1.34-.46.34-1.01.53-1.55.68-.13.03-.3.08-.39.1l-.26.05-.51.09c-.65.1-1.28.17-1.9.22-4.86.39-9.5.46-14.06,1.07l-.02-.08Z"/><path class="cls-1" d="M232.92,407.16c-7.76-.56-15.5-1.31-23.23-2.42-2.82-.41-5.65-.79-8.45-1.38-2.47-.52-4.94-1.15-7.4-1.97-1.23-.43-2.46-.9-3.68-1.64-.31-.18-.61-.39-.91-.62-.16-.12-.29-.25-.46-.39-.18-.14-.35-.36-.51-.55-.72-.74-.77-1.93-.59-2.78.56-2.68,1.43-4.96,2.25-7.35.85-2.35,1.72-4.69,2.6-7.02,1.53-4.14,3.06-8.3,4.58-12.41.93-2.65,1.87-5.3,2.8-7.95.47-1.32.92-2.65,1.41-3.97l.75-1.97c.26-.65.69-1.25.96-1.9.74-1.6.7-1.38.66.16-.07.75.19,1.94-.02,3.22-.07.65-.15,1.35-.29,2.09-.16.73-.34,1.49-.59,2.27-1.71,5.52-3.53,10.98-5.49,16.39-1.98,5.39-4.12,10.77-5.93,16.14-.27.8-.5,1.61-.67,2.37-.03.18-.09.39-.1.54-.01.04-.02.11-.02.17-.01.14.09.24.17.34.13.13.45.4.75.58.31.2.65.39,1.01.57.71.36,1.5.66,2.3.93,3.22,1.1,6.73,1.7,10.17,2.29,7.61,1.24,15.35,1.98,23.09,2.53,4.77.33,9.55.59,14.32.72,1.76.05,3.53.09,5.28.1h2.62s1.27-.05,1.27-.05c.27-.02.51,0,.74-.1.21-.17.32-.4.45-.64.18-.34.37-.77.54-1.18.35-.83.66-1.69.97-2.55.6-1.73,1.15-3.49,1.67-5.25,1.56-5.35,2.7-10.72,3.88-16.12.25-1.19.49-2.36.74-3.56.5-2.21.87-3.66,1.29-4.64.43-.98.89-1.49,1.47-1.87.26-.17.54-.41.77-.5.4-.14.64.27.77,1.16.13.88.1,2.21-.18,3.87-.81,4.92-1.88,9.92-3.15,14.96-.63,2.52-1.31,5.04-2.06,7.58-.75,2.54-1.54,5.06-2.54,7.64-.23.58-.47,1.15-.76,1.76l-.28.56c-.14.25-.31.48-.46.73-.14.26-.34.45-.54.65-.19.2-.4.38-.61.57-.36.16-.71.31-1.1.41-.41.06-.81.11-1.2.13l-.43.02h-.33s-.65.03-.65.03c-.86.01-1.71.01-2.55,0-1.69-.02-3.36-.06-5.04-.12-3.35-.12-6.69-.29-10.03-.5v-.09Z"/><path class="cls-1" d="M226.1,107.6c.21-.9.56-1.36.88-1.82.32-.47.69-.83,1.05-1.19.26-.27.47-.56.75-.8.97-.83,2.01-1.54,3.1-2.15.48-.27.91-.61,1.39-.88.61-.34,1.25-.69,2.02-.67.23,0,.23.08.16.33-.09.23-.17.75-.39,1.09-.84,1.08-1.8,1.87-2.9,2.63-.7.4-1.2,1.07-1.74,1.65-.59.63-1.18,1.29-1.58,1.9l-.13.25c-.02.07-.04.08-.07.16-.02.21-.01.42.02.64.12.65.48,1.36,1.05,1.9.44.42,1.03.67,1.58.91.12.06.26.09.38.15.44.23.5.44.28,1.08-.05.15-.09.29-.15.44-.19.48-.6.75-1.05.66-1.34-.28-2.6-1.08-3.58-2.38-.36-.49-.68-1.05-.9-1.69-.11-.32-.18-.66-.23-1.01-.02-.37-.08-.63.01-1.2h.07Z"/><path class="cls-1" d="M250.76,79.05c-1.84-.13-3.75.07-5.53.64-.67.16-1.24.55-1.86.79-2.03.98-4.02,2.81-5.42,4.89-.64.92-1.1,1.96-1.38,3-.16.67-.2,1.35-.25,2-.01.33-.04.66,0,.99.05.32-.1.71-.16,1.13.02.49-.04.48-.44.21-.15-.15-.76-.24-1.11-.58-.34-.32-.66-.79-.75-1.33-.27-.96-.17-1.92-.02-2.83.16-.91.44-1.77.79-2.59.68-1.64,1.74-3.05,3-4.22.77-.69,1.48-1.44,2.31-2.11.8-.66,1.75-1.38,2.73-1.77,2.12-.99,4.43-1.38,6.69-1.43,1.4-.05,2.79.15,4.15.39,2.07.43,4.05,1.31,5.78,2.55,1.33.99,2.57,2.14,3.46,3.63.16.34.35.66.5,1.02.26.67.18,1.16.12,1.5-.08.34-.3.56-.61.75-.14.08-.27.18-.41.24-.42.17-1.08-.24-1.49-.93-.12-.27-.4-.48-.53-.73-.17-.23-.27-.5-.46-.71-.37-.43-.67-.88-1.1-1.24-.35-.42-.85-.71-1.27-1.08-.51-.28-.95-.63-1.51-.84-1.57-.74-3.38-1.19-5.24-1.26v-.08Z"/><path class="cls-1" d="M292.74,64.13l4.03,1.16c.49.15.99.23,1.48.38,1.73.54,3.47,1.05,5.22,1.48.78.18,1.57.32,2.35.48,1,.19,2.01.35,2.97.86.3.16.27.09-.01.16-.14.04-.35.13-.6.26-.25.1-.53.18-.84.22-.54.08-1.07.07-1.6.05-.53-.02-1.06-.02-1.58-.09-1.04-.13-2.08-.32-3.11-.57-1.23-.32-2.55-.39-3.82-.61-1.4-.23-2.78-.59-4.17-.93l-2.55-.66c-1.29-.33-2.57-.72-3.86-1.01-1-.23-2.03-.34-3.05-.56-.22-.05-.45-.06-.68-.14-.83-.26-1.01-.59-.91-1.29.02-.16.03-.33.07-.48.13-.52.62-.83,1.22-.82,1.78.09,3.57.44,5.38.94,1.34.35,2.68.75,4.04,1.1v.07Z"/><path class="cls-1" d="M233.53,111.33c-2.04,4.76-2.79,10.02-1.89,15.11.33,1.86.92,3.65,1.63,5.36,1.25,3.03,3.24,5.74,5.76,7.87,2.55,2.11,5.61,3.64,8.87,4.55,2.9.79,5.97,1.05,8.97.94,1.93-.08,3.85-.38,5.75-.74.95-.17,1.9-.37,2.84-.6.93-.25,1.97-.22,2.93-.46,1.23-.21,1.14-.06.3.72-.49.46-1.09,1.02-1.77,1.66-.79.61-1.81,1.07-2.97,1.42-2.05.62-4.19.9-6.33,1.07-2.14.14-4.32.13-6.46-.18-4.28-.61-8.52-2.12-12.1-4.7-4.29-2.99-7.88-7.49-9.48-12.57-1.77-5.54-1.8-11.6-.11-17.08.98-3.39,2.54-6.56,4.38-9.51,2.83-4.45,6.48-8.33,10.47-11.65,3.09-2.59,6.36-4.9,9.96-6.74.8-.39,1.57-.8,2.42-1.13,3.12-1.23,4.3-1.08,5.13-.58.19.12.43.23.55.36.4.45-.77,1.17-2.85,2.08-6.21,2.65-12.2,6.7-17.17,11.8-3.68,3.78-6.81,8.17-8.76,13.01l-.07-.02Z"/><path class="cls-1" d="M289.04,169.99c-3.09-2.91-5.45-6.46-7.15-10.23-.6-1.38-1.25-2.75-1.68-4.2-1.55-5.09-1.88-10.42-1.56-15.57.14-2.3.4-4.59.73-6.83.22-1.44.52-2.87.87-4.28.19-.7.44-1.39.69-2.08l.39-1.02c.14-.34.38-.65.54-.98.45-.81.35-.71.4.09,0,.39.22,1,.26,1.67.06.68.14,1.47.11,2.29l-.4,4.3c-.17,1.42-.32,2.84-.42,4.25-.21,2.83-.4,5.66-.31,8.52.06,3.43,1.01,6.89,2.18,10.15,1.3,3.59,3.18,6.98,5.7,9.85,1.55,1.76,3.33,3.32,5.31,4.59,3,1.93,6.44,3.25,9.96,3.87,2.75.45,5.51.38,8.22.08.6-.05,1.18-.19,1.78-.26,2.21-.34,2.94-.28,3.59.41.15.15.33.3.44.45.17.27.06.57-.32.88-.38.31-1.01.69-1.87.88-5.11,1.35-10.96,1.25-16.43-.47-4.07-1.24-7.9-3.43-11.07-6.32l.05-.06Z"/><path class="cls-1" d="M322.62,176.13c-1.63.19-3.27.18-4.9-.04-.59-.07-1.18-.11-1.76-.25-1.02-.25-2-.61-2.94-1.03-.94-.42-1.81-1-2.65-1.57-.74-.51-1.46-1.07-2.14-1.65-.41-.4-.8-.82-1.15-1.28-.38-.43-.49-1.07-.69-1.6-.1-.35-.1-.29.18-.13.14.08.36.17.64.25.14.05.3.08.46.12.09.02.15.05.25.06l.18.13c.43.31.85.6,1.3.86.43.27.82.58,1.26.84.85.54,1.74,1.02,2.65,1.5,1.09.62,2.39.83,3.64,1.02,1.38.22,2.79.26,4.21.12.87-.08,1.75-.21,2.61-.43,1.3-.33,2.61-.75,3.79-1.4.92-.5,1.7-1.21,2.47-1.89.17-.15.32-.32.49-.47.33-.26.57-.4.81-.4.25.01.5.14.81.39.14.11.3.22.42.34.42.39.48,1.05.04,1.62-1.32,1.62-3.2,2.81-5.23,3.66-1.51.63-3.12,1.06-4.76,1.31l-.02-.07Z"/><path class="cls-1" d="M292.24,51.66c1.28-.28,2.58-.51,3.94-.42.67-.01,1.34.14,2.01.24.64.15,1.25.33,1.85.54.43.19.86.36,1.29.53.43.17.83.42,1.23.65,2.77,1.77,4.79,4.4,5.93,7.26.48,1.28.92,2.58,1.14,3.92.08.86.22,1.73.05,2.6-.07.43-.27.85-.41,1.25-.07.2-.15.4-.26.59-.09.19-.13.4-.2.59-.16.49-.22.39-.24-.05-.03-.23.03-.53-.1-.91-.14-.39-.36-.82-.51-1.25-.08-.19-.19-.38-.25-.57l-.09-.55-.28-1.08c-.12-.35-.21-.71-.31-1.06-.11-.35-.26-.69-.38-1.03-.55-1.37-1.3-2.63-2.13-3.87-1-1.51-2.63-2.55-4.26-3.29-.46-.18-.92-.38-1.39-.53-.48-.1-.96-.33-1.43-.39l-.71-.13c-.24-.03-.48-.03-.73-.04-.49-.05-.98.03-1.48.06-1.23.17-2.47.52-3.65,1.06-1.79.82-3.51,1.95-4.94,3.36-1.11,1.09-1.97,2.38-2.76,3.68-.18.28-.32.58-.49.87-.15.27-.31.47-.48.62-.16.16-.29.28-.44.36-.31.15-.62.18-1,.15-.17-.02-.35-.01-.5-.05-.25-.06-.41-.25-.49-.58-.09-.33-.13-.81,0-1.33.98-3.01,3.07-5.69,5.7-7.75,1.95-1.54,4.21-2.78,6.74-3.52l.03.08Z"/><path class="cls-1" d="M305.86,70.9s-.06-.06-.08-.09c0,0-.02,0-.03,0-.03-.04-.07-.1-.1-.14-.02-.02-.03,0-.05,0-.02.02-.05.09-.06-.01,0-.06.07-.99.09-.99.04,0,.08.04.12.18.02.08.05.04.07.07.02.02.05.06.08.09.02.02.03.04.05.05.03.02.05.05.08.04.02,0,.05-.07.07-.1,0,0,.01-.02.02-.03.02-.01.02.05,0,.28v.16c-.02.18-.04.33-.05.38-.05.16-.09.18-.13.19-.03,0-.06-.02-.09-.03v-.02Z"/><path class="cls-1" d="M263.32,77.67c.77-.68,1.67-1.21,2.58-1.71.32-.19.63-.4.98-.56,1.23-.53,2.56-.86,3.89-.88.29-.04.58-.02.87-.03.29,0,.58-.04.87.02.36.07.74.08,1.09.2.34.19.65.41.95.62.18.14.13.19-.09.3-.22.1-.63.38-1.01.53-1.29.33-2.32.39-3.54.62-.74.1-1.4.57-2.05.97-.38.2-.72.47-1.09.7l-1.05.8c-.42.35-.85.69-1.23,1.09-.59.59-1.17,1.22-1.61,1.93-.34.55-.48,1.21-.69,1.8-.05.13-.07.27-.13.39-.24.44-.5.5-1.15.35-.15-.03-.3-.06-.44-.1-.47-.14-.77-.51-.79-1.01-.04-1.46.7-2.68,1.5-3.8.63-.82,1.34-1.57,2.1-2.27l.05.05Z"/><path class="cls-1" d="M235.34,161.74c1.68-.55,3.34-1.11,5.06-1.53l2.55-.69,2.58-.58c.63-.14,1.24-.31,1.87-.47.63-.13,1.26-.27,1.89-.37,2.22-.43,4.49-.63,6.73-.88,2.27-.11,4.52-.34,6.79-.21,2.01-.02,4.02.15,6.01.21,1.27.2,2.54.4,3.8.64.32.04.62.16.93.26l.46.16c.08.02.15.06.23.07.07.07.14.09.22.14l.87.49c.29.15.6.19.9.29.75.22.63.26-.04.24-.34.02-.8-.11-1.43.14-.3.08-.65.25-.99.32-.33.04-.68.06-1.04.06-2.54.06-5,.1-7.48.02-2.49.04-4.99.07-7.51.11-3.04.05-6.14.76-9.18,1.37-1.67.35-3.34.77-5.01,1.16-1.65.48-3.32.89-4.95,1.44l-3.02.98c-1,.35-1.99.74-2.98,1.11-3,1.15-5.96,2.45-8.79,3.92-2.18,1.18-4.22,2.51-6.24,3.88-.44.3-.88.6-1.32.91-1.64,1.15-2.36,1.22-3.11.91-.17-.08-.37-.13-.51-.22-.46-.31-.03-1.15,1.07-2.23.43-.37.87-.74,1.3-1.11.46-.35.92-.69,1.38-1.04.94-.68,1.87-1.39,2.88-2,1-.62,2-1.26,3.03-1.85,1.04-.57,2.11-1.1,3.18-1.64,1.6-.77,3.23-1.48,4.87-2.18,1.66-.63,3.3-1.34,4.99-1.9l.03.08Z"/><path class="cls-1" d="M329.66,349.36c-11.28,7.23-23.88,12.25-36.88,15.07-6.5,1.42-13.1,2.41-19.73,2.79l-2.49.18-2.49.06c-1.66.02-3.32.11-4.98.08-3.33-.03-6.65-.18-9.96-.48-9.66-.86-19.25-2.74-28.44-5.85-16.17-5.51-31.22-14.62-43.08-26.98-11.83-12.35-20.4-27.81-24.33-44.44-3.47-14.76-3.46-30.32-.34-45,2.01-9.43,5.26-18.65,9.89-27.17,2.34-4.24,4.94-8.35,7.99-12.12l2.35-2.77,2.47-2.66c.83-.87,1.77-1.65,2.65-2.46.92-.78,1.85-1.55,2.77-2.31,2.37-1.84,3.43-2.57,3.4-2.47-.01.12-1.09,1.11-2.77,2.99-1.66,1.9-3.74,4.83-6.2,8.3-1.21,1.76-2.44,3.7-3.75,5.76-1.33,2.04-2.67,4.24-4.03,6.55-9.56,16.42-14.3,35.63-13.56,54.68.37,9.52,2.11,19.01,5.34,28,3.25,8.99,7.91,17.51,13.73,25.18,6.97,9.18,15.89,17.18,26.03,23.34,10.11,6.22,21.37,10.65,32.89,13.38,6.33,1.53,12.81,2.45,19.31,2.93,3.25.22,6.51.34,9.78.27l4.9-.12,4.89-.35c1.63-.08,3.25-.31,4.87-.51,1.62-.21,3.25-.35,4.85-.67l4.82-.84,4.77-1.09c6.32-1.59,12.59-3.52,18.54-6.2,14.69-6.39,28.07-16.15,37.8-28.95,3.76-4.77,7.01-9.95,9.79-15.37.66-1.37,1.41-2.7,2.01-4.1l1.81-4.2c.57-1.41,1.06-2.86,1.59-4.28.56-1.42.98-2.88,1.42-4.34.95-2.9,1.59-5.88,2.3-8.84l.83-4.49c.31-1.49.42-3.01.64-4.51.72-6.03,1.03-12.11.69-18.15-.4-9.4-2.14-18.62-5-27.43-2.79-8.84-6.83-17.23-11.85-24.98-2.2-3.43-4.66-6.56-7.31-9.68-4.96-5.74-8.81-8.95-11.46-11.23-1.31-1.18-2.4-2.03-3.26-2.82-.85-.8-1.53-1.44-2.13-2.04-.54-.56-1.29-1.24-1.58-1.63-.48-.66.69-.3,3.29.93,2.53,1.31,6.44,3.62,10.75,7.48,3.23,2.82,6.18,5.99,8.95,9.33,2.77,3.34,5.3,6.91,7.57,10.66,4.58,7.48,8.23,15.62,10.85,24.16.37,1.05.64,2.14.93,3.22l.86,3.25c.53,2.18.93,4.39,1.39,6.59.32,2.22.69,4.45.95,6.68l.31,3.37c.1,1.12.22,2.25.24,3.38.45,9.02-.18,18.13-1.91,27.05-1.31,6.62-3.2,13.13-5.68,19.42-2.53,6.27-5.65,12.31-9.36,17.98l-2.84,4.22c-1.02,1.35-2.1,2.67-3.14,4l-1.58,1.99c-.56.64-1.15,1.25-1.72,1.87l-3.46,3.72-3.73,3.45c-.63.56-1.22,1.17-1.89,1.7l-1.99,1.58-1.99,1.58c-.66.52-1.31,1.07-2.03,1.53l-4.19,2.87-.07-.05Z"/><path class="cls-1" d="M238.35,216.24l-2.05,5.15c-.25.62-.44,1.27-.7,1.89-.95,2.17-1.94,4.32-2.87,6.48-.39.97-.8,1.94-1.15,2.91-.23.62-.51,1.23-.79,1.84-.14.3-.29.6-.45.9-.15.3-.33.59-.58.86-.31.33-.33.27-.47-.15-.19-.44-.43-1.21-.34-1.99.17-2.83,1.29-5.33,2.51-7.8.74-1.47,1.19-3.12,1.77-4.69l1.97-5.15c.4-1.06.79-2.12,1.14-3.19.54-1.62,1.1-3.25,1.49-4.9.3-1.28.41-2.58.56-3.88.04-.28.04-.57.09-.85.07-.53.2-.86.43-1.07.21-.21.48-.3.87-.34.18-.02.35-.05.52-.05.56,0,.95.53,1.06,1.38.03,2.44-.51,4.91-1.2,7.33-.51,1.8-1.13,3.57-1.74,5.34l-.07-.02Z"/><path class="cls-1" d="M299.56,214.09c-.25,1.06-.48,2.11-.83,3.13-.11.38-.16.76-.29,1.13-.47,1.28-.95,2.57-1.42,3.86-.2.57-.34,1.15-.53,1.71-.13.36-.16.74-.36,1.09-.24.32-.47.63-.74.99-.16.2-.16.17-.26-.06-.08-.23-.39-.69-.61-1.19-.03-.11-.09-.22-.11-.33l.02-.29.04-.59c.04-.39.05-.78.15-1.15.19-.75.42-1.48.72-2.2.36-.87.42-1.83.6-2.75.2-1.01.43-2.01.65-3.02.13-.62.25-1.25.34-1.88.13-.95.29-1.92.29-2.88,0-.75-.16-1.48-.25-2.22-.02-.16-.07-.32-.07-.49,0-.15,0-.28.03-.38.04-.11.13-.19.21-.26.17-.14.4-.22.72-.29.15-.03.29-.07.43-.09.45-.06.9.19,1.23.65.27.68.43,1.38.53,2.1.09.72.05,1.44,0,2.17-.07,1.08-.26,2.16-.43,3.24h-.07Z"/><path class="cls-1" d="M273.46,219.07c-1.8-.63-3.62-1.17-5.54-1.69l-1.23-.32c-.61-.16-1.2-.38-1.62-.75-.81-.69-.6-1.82-.41-2.86.17-.74.33-1.27.49-1.91.32-1.22.64-2.43.92-3.65.28-1.08.5-2.17.68-3.25.13-.69.17-1.4.34-2.09l.29-1.03c.04-.17.13-.34.23-.51.08-.17.09-.35.14-.52.1-.44.18-.38.33,0,.09.19.11.46.4.81.2.34.33.74.43,1.17.26,3.01-.08,5.99-1.02,8.8-.26.82-.45,1.78-.58,2.53-.02.14-.05.29-.05.43.06.14.23.16.35.22.02.03.66.21,1.08.33l1.43.4c.96.27,1.92.55,2.88.86,1.18.37,2.34.79,3.5,1.21,1.75.65,3.46,1.42,5.16,2.15,1.31.58,2.69,1,3.97,1.65.28.14.56.27.84.43,1.02.59,1.2,1.02,1.11,1.65-.02.14-.03.29-.07.42-.12.4-.76.55-1.58.31-2.48-.61-4.72-1.78-7.12-2.72-1.76-.72-3.55-1.41-5.37-1.99l.02-.07Z"/><path class="cls-1" d="M207.75,216.91c.1-.77.22-1.59.38-2.35.07-.38.22-.69.33-1.04.15-.27.27-.62.45-.83.32-.52.71-.84,1.19-1.11.48-.24,1.13-.4,1.72-.28.59.09,1.13.31,1.59.66.24.15.44.4.66.59.19.26.4.49.56.8.33.6.63,1.27.85,2l.28,1.11.13.69c.55,3.59.54,6.99.68,10.35.05,1.21.13,2.43.27,3.55.07.54.19,1.12.29,1.38,0,.1.32.46.64.77,1.32,1.17,3.23,2.18,5.11,3.05,1.9.88,3.89,1.65,5.91,2.35,4.04,1.4,8.19,2.53,12.39,3.4,3.72.75,7.53,1.32,11.24,1.32,1.18-.01,2.36-.08,3.47-.27.54-.09,1.11-.25,1.51-.4.31-.1.68-.39,1.01-.77.69-.74,1.19-1.8,1.72-2.83.52-1.04.97-2.16,1.27-3.31.3-1.42.53-1.29.79.08.1.68.22,1.67.2,2.89-.02.61-.04,1.29-.19,1.99-.17.7-.44,1.43-.84,2.18-.38.66-.84,1.33-1.53,1.97-.19.16-.39.31-.59.45-.22.14-.47.27-.72.39-.43.19-.76.26-1.15.39-1.46.37-2.82.48-4.17.53-2.69.1-5.28-.12-7.84-.45-5.13-.68-10.09-2.01-14.98-3.65-2.91-1-5.88-2.03-8.82-3.31-1.47-.64-2.93-1.34-4.36-2.26-.71-.49-1.43-.96-2.11-1.68-.17-.16-.34-.36-.5-.59-.16-.22-.34-.45-.47-.76-.27-.6-.35-1.05-.44-1.49-.32-1.9-.34-3.58-.41-5.31-.06-1.71-.1-3.4-.19-5.07-.09-1.66-.23-3.33-.52-4.88-.07-.38-.15-.72-.31-1.07-.15-.32-.46-.7-.86-.62-.46.17-.53.73-.64,1.18l-.06.36-.07.52-.19,1.55c-.27,2.09-.52,4.27-1.5,6.41-.37.8-.88,1.61-1.63,2.25-.73.65-1.69,1.07-2.63,1.21-.99.17-1.91.02-2.76-.17-.85-.21-1.64-.48-2.41-.81-3.03-1.32-5.72-3.06-8.44-4.61l-.78-.44-.45-.24c-.3-.15-.59-.29-.88-.41-.29-.11-.57-.21-.86-.22-.14,0-.3.02-.4.14-.1.12-.13.29-.11.45.14.65.59,1.14.95,1.55.2.22.33.33.66.67.4.41.83.81,1.26,1.21.76.7,1.55,1.33,2.36,2,3.01,2.44,3.98,3.11,4.28,4.26.08.25.22.51.24.72.13.65-1.75.45-4.27-1.24-1.87-1.23-3.66-2.61-5.37-4.19-.45-.42-.75-.7-1.5-1.52-.67-.76-1.45-1.59-1.96-2.43-.5-.83-.77-1.62-.87-2.3-.05-.35-.03-.66.02-.98.02-.33.17-.63.33-.96l.31-.5.45-.38.4-.33c.14-.07.29-.13.45-.18.6-.19,1.25-.29,2.13-.07.2.02.43.1.67.18.23.08.46.14.7.24.49.22.97.41,1.47.68.49.25.99.51,1.48.8l.86.49c2.01,1.16,3.92,2.34,5.85,3.36,1.42.75,2.88,1.42,4.16,1.84.65.2,1.21.29,1.59.24.48-.05.84-.19,1.2-.48.36-.29.72-.78.99-1.39.26-.62.45-1.34.6-2.1.31-1.53.45-3.17.66-4.92h.07Z"/><path class="cls-1" d="M179.53,233.75l-.48-.27-.64-.38c-.44-.24-.81-.52-1.2-.79-.7-.56-1.2-1.14-1.38-1.69-.11-.28-.16-.56-.11-.9.02-.09.04-.17.07-.26,0-.05.07-.08,0-.14l.06-.12c.07-.16.16-.31.28-.44.41-.54,1.01-.89,1.74-1.13.25-.1.55-.16.85-.21.29-.07.62-.08.94-.12.31-.05.66-.02,1-.02.16,0,.36,0,.49.03l.31.04c2.87.42,5.48,1.28,8.09,2.13,1.14.41,2.31.74,3.45,1.14,1.45.53,2.93.99,4.24,1.89.41.27.3.39-.17.51-.24.06-.57.14-.96.21-.4.09-.83.12-1.26.03-3.12-.45-6.05-1.34-8.97-2.37-.88-.3-1.79-.5-2.71-.65-.46-.07-.92-.13-1.37-.17l-1.01-.09c-.35-.03-.8-.08-1.2.17-.24.14-.11.39.03.51.14.14.31.27.49.41l.36.24.76.44c.56.31,1.14.61,1.71.9,1.76.87,3.54,1.75,5.34,2.53,1.4.61,2.84,1.07,4.27,1.66.31.13.63.24.94.39,1.15.57,1.44.95,1.28,1.71-.03.16-.04.33-.09.47-.16.44-.86.65-1.67.33-2.48-.84-5.08-1.91-7.68-3.09-1.94-.87-3.86-1.82-5.81-2.85l.03-.06Z"/><path class="cls-1" d="M179.24,242.37c-1.26-.53-2.19-1.16-2.72-1.81-.54-.65-.84-1.33-.9-2.26.02-.44.16-.98.44-1.26.23-.27.47-.45.76-.62.27-.17.61-.3,1.03-.38.76-.14,1.73-.14,2.77-.03.52.07,1.04.12,1.55.21l.77.13.59.12c1.23.26,2.43.61,3.64.9,1.06.29,2.14.54,3.2.76l2.04.4.51.1.5.16c.33.11.67.2,1.01.29.42.11.37.2,0,.4-.19.1-.46.23-.8.37-.17.07-.35.15-.55.21-.1.04-.2.06-.3.1l-.31.02c-1.48.03-2.94-.02-4.37-.13l-1.07-.1c-.35-.06-.7-.13-1.05-.2-.7-.14-1.39-.3-2.08-.47l-.62-.15-.31-.07c-.09-.02-.08-.03-.13-.04-.13-.04-.28-.07-.42-.08-.29-.04-.54-.04-.89-.06-.16,0-.34,0-.51.03-.19.03-.29.18-.3.32,0,.41.35.65.73.86.21.11.45.21.71.31l.41.14.8.22c1.71.45,3.48.86,5.25,1.16,1.38.23,2.77.3,4.22.58.32.07.64.11.97.22.3.09.56.22.76.33.21.14.35.29.45.44.21.32.23.63.09,1-.06.16-.12.32-.22.45-.16.21-.41.31-.64.39-.23.07-.51.13-.84.09-.99-.19-2.19-.36-3.4-.56-1.25-.22-2.51-.44-3.78-.66-.96-.17-1.92-.36-2.9-.58l-1.52-.37c-.92-.23-1.83-.51-2.65-.84l.06-.05Z"/><path class="cls-1" d="M245.18,262.83c-6.79-1.93-13.46-4.1-20.08-6.35l-7.26-2.37c-2.12-.71-4.24-1.43-6.34-2.04-.52-.14-1.05-.29-1.54-.39-.26-.07-.47-.09-.7-.13-.22-.04-.52-.05-.77-.07-1.07-.07-2.16-.09-3.25-.08-2.19.03-4.4.2-6.62.41l-3.33.35-.83.1c-.31.03-.6.06-.89.08-.58.03-1.15.05-1.73.06-2.03.03-4.07-.02-6.12-.24-1.03-.12-2.05-.28-3.1-.55l-.41-.12-.53-.19c-.34-.14-.71-.28-1-.49-.62-.38-1.09-.88-1.37-1.48-.14-.39-.21-.84-.09-1.26.09-.43.35-.78.64-1.09.6-.61,1.54-1,2.48-1.25,1.4-.38,2.66-.5,3.96-.62,2.57-.26,5.07-.27,7.51-.32.77,0,1.11-.07,1.13.01.01.07-.28.31-.86.78-.58.45-1.49,1.07-2.64,1.54-.57.23-1.19.51-1.85.69-.66.16-1.36.28-2.08.37-1.27.14-2.53.34-3.67.53l-.42.08-.26.05s-.02,0-.02,0h0s0,0,0,.01h0s0,.01.01.02l.36.11c1.05.33,2.29.41,3.5.49,2.44.13,5.04.05,7.43-.18,2.6-.27,5.23-.51,7.9-.6,1.59-.06,3.21-.1,4.86-.06.84.02,1.62.04,2.54.16.96.13,1.73.35,2.54.55,3.17.87,6.23,1.87,9.27,2.88,6.67,2.24,13.3,4.54,20.02,6.52,4.14,1.2,8.3,2.31,12.5,3.12,3.17.58,6.41,1.08,9.53.92.77-.06,1.54-.14,2.24-.33.72-.18,1.47-.52,2.2-.77,1.44-.6,2.8-1.36,4.04-2.28,1.9-1.46,3.45-3.31,4.64-5.36,1.2-2.05,2.07-4.29,2.8-6.62.3-1.04.59-2.06.89-3.11.58-1.96,1.02-3.28,1.53-4.15.27-.43.53-.75.79-1,.28-.24.57-.4.86-.52.27-.1.55-.26.77-.28.36-.04.49.39.47,1.15-.01.75-.14,1.89-.52,3.32-1.05,4.27-2.22,9.01-4.94,13.34-1.37,2.14-3.14,4.12-5.23,5.73-2.1,1.61-4.54,2.69-6.99,3.51-2.12.63-4.08.63-5.96.55-1.88-.1-3.71-.31-5.5-.63-3.59-.6-7.06-1.47-10.51-2.39v-.08Z"/><path class="cls-1" d="M303.31,241.12c-.08,1.34-.18,2.67-.21,4.02-.05,1.34-.1,2.69-.11,4.03-.02.98.08,1.96.07,2.95.02,3.47.11,6.95.37,10.43.09,1.54.34,3.08.47,4.61.22,1.96.33,3.94.38,5.93,0,.62-.14.56-.42.07-.27-.49-.77-1.39-1.1-2.49-1.25-3.91-1.56-7.97-1.77-12.06-.1-2.45-.43-4.98-.56-7.48-.08-1.38-.09-2.76-.13-4.14,0-1.38,0-2.76.06-4.14l.1-2.55.16-2.55c.07-1.28.23-2.57.33-3.85.14-1.28.29-2.56.43-3.83.13-.98.21-1.97.28-2.95l.32-2.94c.04-.43.1-.86.19-1.28.34-1.59.64-2.05,1.4-2.23.17-.04.35-.11.52-.12.56-.03.87.71.84,1.88-.06,1.74-.17,3.5-.36,5.27-.07.89-.15,1.78-.24,2.67-.09.89-.15,1.79-.27,2.69-.3,2.66-.55,5.35-.68,8.04h-.07Z"/><path class="cls-1" d="M226.1,280.7l-1.33,4.07c-.16.5-.23,1.01-.4,1.51-.61,1.74-1.22,3.48-1.82,5.22-.27.77-.49,1.56-.69,2.35-.14.49-.23,1.05-.39,1.48l-.22.55-.08.22c-.03.07-.13.15-.16.25-.12.26-.15.45-.7.38-.25-.04-.75-.21-.97-.59-.26-.36-.42-.82-.42-1.21,0-.18,0-.35.02-.5l.07-.39.15-.77c.1-.51.21-1.02.34-1.53.22-1.02.64-2,1.05-2.99.52-1.18.68-2.5,1.01-3.75.37-1.38.77-2.76,1.18-4.13l.74-2.55c.35-1.29.75-2.58,1.02-3.88.21-1.01.22-2.05.33-3.09.02-.23.02-.46.06-.68.08-.42.19-.68.41-.82.23-.14.54-.17.99-.14.2.01.41.01.6.04.33.05.6.19.82.41.21.22.39.51.39.82.11,1.89-.29,3.74-.75,5.6-.34,1.38-.76,2.75-1.14,4.13l-.08-.02Z"/><path class="cls-1" d="M303.02,284.1l.45,4.73c.06.57.19,1.13.24,1.7.17,2.02.25,4.05.41,6.06.07.89.19,1.78.32,2.66.19,1.12.3,2.26.22,3.41-.03.36-.28.35-.61.09-.33-.26-.79-.75-1-1.38-.63-2.24-1.03-4.5-1.27-6.81-.12-1.39-.54-2.78-.81-4.17l-.87-4.6c-.18-.94-.37-1.89-.58-2.82-.29-1.42-.55-2.86-.98-4.24-.34-1.07-.87-2.06-1.35-3.06-.1-.22-.24-.43-.33-.66-.33-.84-.21-1.18.65-1.67.19-.11.37-.23.56-.32.62-.3,1.38-.15,1.77.45,1.21,1.75,1.87,3.81,2.38,5.89.39,1.55.68,3.12.87,4.71l-.08.02Z"/><path class="cls-1" d="M239.82,172.96c2.69-1.37,5.29-3.07,7.88-4.85.94-.65,1.84-1.37,2.81-2.02,1.7-1.12,3.43-2.28,5.34-3.25,1.89-.97,4.02-1.75,6.22-1.84,1.93-.13,3.83.06,5.63.46,1.16.25,2.3.56,3.4.94,1.1.41,2.14.93,3.18,1.45.64.34.49.48-.18.53-.66.04-1.87.12-3.17-.06-2.25-.5-4.46-.86-6.58-.86-2.14,0-4.06.45-6.11,1.24-2.44.97-4.69,2.89-7.03,4.56-2.58,1.85-5.21,3.71-8,5.37-1.72,1.02-3.51,1.95-5.38,2.73-2.83,1.21-5.9,1.88-8.97,2.08-2.38.16-4.81.14-7.19-.55-.52-.17-1.05-.28-1.55-.53-1.9-.83-2.17-1.67-2.06-2.48.03-.2.04-.41.1-.57.23-.57,1.1-.49,2.31-.18,1.7.65,3.52.9,5.36,1.06,1.85.14,3.77.02,5.68-.31,1.42-.26,2.82-.64,4.19-1.14,1.38-.51,2.75-1.14,4.09-1.86l.04.07Z"/><path class="cls-1" d="M229.56,350.28c1.5.14,3.05.21,4.51.13,1.46-.04,2.96-.25,4.47-.52,3.02-.54,6.11-1.4,9.36-2.06,1.63-.32,3.3-.6,5.02-.76,1.73-.12,3.49-.17,5.26.05,3.6.43,6.79,1.7,9.81,3.03,3.02,1.35,5.84,2.82,8.69,3.94,2.84,1.16,5.7,1.78,8.43,1.53l1.01-.19c.34-.06.68-.11,1-.24l.98-.33c.07-.03.19-.06.22-.08.03-.02.07-.04.1-.06.06-.01.16-.11.26-.17.82-.63,1.76-1.94,2.62-3.22l1.38-2.02c.49-.69,1-1.4,1.72-2.13.16-.18.4-.37.61-.55.21-.18.39-.27.58-.41l1.15-.75c.77-.5,1.63-.8,2.44-1.2,4.95-1.83,9.93-1.7,14.55-1.83,4.63-.08,9.18-.37,12.76-2.39,1.53-.95,2.85-2.17,3.88-3.7,1.04-1.52,1.84-3.28,2.49-5.15,1.36-3.74,2.18-7.86,4.05-11.87.93-1.99,2.15-3.95,3.75-5.61,1.62-1.65,3.53-2.87,5.43-3.89,3.8-2.01,7.7-3.33,10.7-5.69,6.07-4.69,9.06-13.13,7.71-20.74-.36-1.9-.96-3.74-1.82-5.46-.9-1.73-2.04-3.38-3.25-5-2.41-3.27-5.24-6.4-7.27-10.3-.88-1.73-1.58-3.63-1.82-5.65-.24-2.02.04-4.11.73-6,1.42-3.81,4.05-6.64,6.2-9.51,2.18-2.84,4-5.88,3.97-9.18.03-3.28-1.6-6.46-3.86-9.03-1.44-1.67-3.18-3.12-5.03-4.37-1.82-1.24-3.97-2.25-6.01-3.6-2.02-1.33-4.14-3.07-5.22-5.65-.53-1.28-.71-2.67-.71-3.94.02-1.28.2-2.48.32-3.62.12-1.14.25-2.22.11-3.27l-.06-.8c-.03-.26-.11-.52-.16-.78l-.17-.78c-.07-.26-.18-.5-.27-.76-.72-2.02-2.01-3.86-3.59-5.44-1.58-1.59-3.43-2.94-5.39-4.14-1.95-1.2-3.97-2.36-6.09-3.33-2.64-1.22-3.83-1.66-3.73-1.68.09,0,1.45.42,3.82,1.16,1.18.38,2.61.84,4.25,1.44.41.15.82.32,1.28.45.42.21.86.4,1.3.6.45.19.89.45,1.36.68.47.24.94.49,1.4.78,1.88,1.12,3.89,2.54,5.65,4.57,1.75,2,3.19,4.75,3.55,7.84.23,1.37.13,2.74.07,3.95l-.09,1.75c0,.28-.03.55,0,.81,0,.26-.02.52,0,.76.02,1,.19,1.81.55,2.58.36.77.91,1.49,1.63,2.16,1.45,1.35,3.43,2.46,5.51,3.64,1.03.58,2.18,1.26,3.22,2,1.05.74,2.07,1.53,3.03,2.41,1.91,1.75,3.66,3.76,4.95,6.16,1.32,2.37,2.1,5.21,1.97,8.1-.16,2.9-1.29,5.62-2.68,7.81-1.39,2.21-2.98,4.11-4.38,5.95-1.38,1.84-2.66,3.65-3.3,5.51-.66,1.84-.76,3.78-.31,5.71.49,1.93,1.51,3.86,2.76,5.74,1.25,1.88,2.72,3.73,4.19,5.66,1.47,1.93,2.96,3.94,4.21,6.21,1.26,2.29,2.15,4.85,2.57,7.43.86,5.19-.06,10.52-2.28,15.18-1.35,2.79-3.22,5.35-5.56,7.46-.29.26-.58.54-.88.78l-.95.71c-.63.49-1.29.91-1.95,1.3-1.33.79-2.69,1.45-4.03,2.09-2.67,1.27-5.28,2.42-7.43,4.04-1.09.79-1.98,1.74-2.8,2.77-.77,1.08-1.47,2.23-2.02,3.51-1.14,2.53-1.92,5.32-2.78,8.18-.89,2.85-1.8,5.83-3.52,8.59l-.67,1.02c-.22.34-.51.64-.76.97-.49.66-1.12,1.21-1.72,1.78-.61.56-1.33.99-2,1.48-.7.44-1.45.77-2.18,1.15-3.02,1.3-6.18,1.66-9.19,1.84-3.32.18-6.55.11-9.68.35-3.11.23-6.14.77-8.66,2.17l-.89.59c-.28.19-.65.4-.81.57-.42.39-.89.98-1.33,1.6-.9,1.25-1.75,2.65-2.8,4.02-.53.69-1.09,1.39-1.87,2.05-.19.17-.43.32-.64.48-.24.15-.52.29-.79.42l-1.28.43c-.84.33-1.75.43-2.63.61-.44.07-.9.07-1.34.1-.45.02-.9.06-1.34.01-3.59-.15-6.86-1.36-9.87-2.68-3.03-1.33-5.89-2.82-8.81-3.97-1.46-.59-2.93-1.07-4.41-1.43-1.47-.33-2.95-.54-4.48-.51-3.04-.02-6.14.61-9.26,1.34-3.84.88-7.81,1.95-12.02,2.1-4.15.14-8.26-.39-12.23-1.49-3.97-1.09-7.79-2.8-11.18-5.21-1.69-1.21-3.28-2.55-4.67-4.17-1.36-1.61-2.51-3.39-3.42-5.25-2.74-5.65-3.73-11.73-6.62-16.78l-.54-.94-.61-.89c-.39-.61-.85-1.15-1.31-1.7-.89-1.1-1.97-1.93-3.2-2.73-2.44-1.56-5.2-2.77-7.94-4.05-2.72-1.3-5.59-2.54-8.06-4.63-2.41-2.04-4.41-4.52-5.84-7.34-1.41-2.8-2.26-6.07-1.64-9.35.32-1.63.99-3.07,1.69-4.44.72-1.37,1.48-2.67,2.22-3.96,1.11-2.01,2.22-4,2.45-6.1.33-2.11,0-4.27-.76-6.33-1.51-4.15-4.31-7.85-6.48-12.04-1.07-2.1-2.01-4.34-2.47-6.76l-.17-.9-.09-.89-.17-1.77c0-1.2-.1-2.39.04-3.59.16-2.4.69-4.82,1.66-7.06.96-2.25,2.32-4.27,3.78-6.12,2.61-3.26,5.32-6.03,7.64-9.34,4.58-6.05,7.32-10.11,8.85-13.13,1.55-3.01,2.11-4.87,2.69-6.4.28-.7.45-1.66.63-2.09.15-.36.28-.26.37.31.11.57.18,1.59.01,3.02-.14,1.43-.58,3.25-1.39,5.29-.81,2.05-2.01,4.3-3.54,6.67-1.12,1.77-2.33,3.47-3.52,5.18-1.22,1.71-2.35,3.37-3.66,5.11-2.59,3.41-5.56,6.41-7.63,9.77-2.07,3.35-3.06,7.13-2.87,11.11,0,.99.13,1.99.24,2.98.03.52.15.96.25,1.42l.14.69.22.69c.56,1.84,1.42,3.64,2.43,5.44,1,1.81,2.12,3.63,3.21,5.54,1.09,1.91,2.17,3.93,2.93,6.22.76,2.26,1.14,4.84.75,7.36-.13,1.26-.55,2.54-1.01,3.64-.47,1.12-1.01,2.14-1.56,3.12-1.1,1.95-2.22,3.76-3,5.56-.79,1.81-1.1,3.35-.82,5.18.5,3.57,2.7,7.16,5.51,9.86.52.51,1.08.97,1.64,1.41l.85.6.93.57c1.29.74,2.7,1.42,4.15,2.09,2.9,1.36,5.94,2.63,8.94,4.47.38.22.75.47,1.12.74.37.25.74.53,1.11.83.72.56,1.48,1.33,2.02,1.99l.87,1.03.77,1.1c.54.72.95,1.5,1.4,2.26,1.71,3.1,2.76,6.33,3.81,9.39,1.03,3.06,2.08,5.98,3.54,8.54,1.49,2.52,3.43,4.6,5.88,6.36,4.83,3.5,10.86,5.46,16.93,6l.02.1Z"/><path class="cls-1" d="M242.32,183.36c1.63,1.29,3.19,2.65,4.7,4.07.57.54,1.56.61,2.12,0s.61-1.55,0-2.12c-1.51-1.43-3.08-2.78-4.7-4.07-.32-.26-.63-.44-1.06-.44-.37,0-.81.16-1.06.44s-.46.66-.44,1.06c.02.37.13.82.44,1.06h0Z"/><path class="cls-1" d="M263.29,182.91c1.58-1.74,2.99-3.65,4.18-5.68.4-.68.18-1.67-.54-2.05s-1.63-.19-2.05.54c-.55.95-1.15,1.87-1.8,2.75-.08.1-.15.21-.23.31-.04.05-.08.1-.12.15-.12.16.03-.01.06-.07-.05.12-.19.24-.27.34s-.16.2-.24.3c-.36.44-.73.86-1.11,1.28-.53.58-.62,1.56,0,2.12.58.53,1.56.62,2.12,0h0Z"/><path class="cls-1" d="M201.05,205.42c1.58,1,3.4,1.55,5.26,1.67.78.05,1.53-.73,1.5-1.5-.04-.86-.66-1.45-1.5-1.5-.24-.02-.47-.04-.7-.07l.4.05c-.83-.12-1.64-.34-2.41-.66l.36.15c-.48-.21-.94-.45-1.39-.73-.66-.42-1.68-.16-2.05.54-.39.74-.17,1.6.54,2.05h0Z"/><path class="cls-1" d="M191.67,293.25c-.08-.37-.15-.75-.21-1.13l.05.4c-.13-.94-.15-1.88-.08-2.82.03-.37-.19-.81-.44-1.06s-.69-.46-1.06-.44-.79.14-1.06.44-.41.65-.44,1.06c-.11,1.46.02,2.93.34,4.35.17.77,1.1,1.29,1.85,1.05.8-.26,1.23-1.02,1.05-1.85h0Z"/><path class="cls-1" d="M204.48,312.09c1.54-.64,3.14-1.14,4.77-1.52.77-.18,1.29-1.1,1.05-1.85-.26-.8-1.03-1.24-1.85-1.05-1.63.38-3.22.89-4.77,1.52-.38.16-.68.32-.9.69-.19.32-.27.8-.15,1.16s.34.71.69.9.79.3,1.16.15h0Z"/><path class="cls-1" d="M274.81,338.17l1.98-3.95c.18-.36.26-.76.15-1.16-.1-.35-.36-.73-.69-.9-.35-.18-.77-.28-1.16-.15-.36.12-.72.34-.9.69l-1.98,3.95c-.18.36-.26.76-.15,1.16.1.35.36.73.69.9.35.18.77.28,1.16.15.36-.12.72-.34.9-.69h0Z"/><path class="cls-1" d="M320.27,318.78c1.88.27,3.77.53,5.65.8.42.06.78.07,1.16-.15.31-.18.61-.54.69-.9.09-.38.07-.81-.15-1.16-.2-.3-.52-.64-.9-.69-1.88-.27-3.77-.53-5.65-.8-.42-.06-.78-.07-1.16.15-.31.18-.61.54-.69.9-.09.38-.07.81.15,1.16.2.3.52.64.9.69h0Z"/><path class="cls-1" d="M342.3,294.36l4.82-3.07c.66-.42.99-1.35.54-2.05-.43-.66-1.34-.99-2.05-.54l-4.82,3.07c-.66.42-.99,1.35-.54,2.05.43.66,1.34.99,2.05.54h0Z"/><path class="cls-1" d="M339.13,246.06c1.85.9,3.78,1.45,5.82,1.67.36.04.82-.2,1.06-.44.26-.26.46-.69.44-1.06s-.14-.79-.44-1.06c-.31-.29-.64-.39-1.06-.44-.12-.01-.25-.03-.37-.04l.4.05c-1.35-.18-2.67-.54-3.93-1.08l.36.15c-.26-.11-.51-.23-.76-.35-.37-.18-.75-.26-1.16-.15-.35.1-.73.36-.9.69-.36.67-.21,1.68.54,2.05h0Z"/><path class="cls-1" d="M315.17,195.49c1.61-1.03,3.21-2.05,4.82-3.08.66-.42.99-1.35.54-2.05-.43-.66-1.35-.99-2.05-.54-1.61,1.03-3.21,2.05-4.82,3.08-.66.42-.99,1.35-.54,2.05.43.66,1.35.99,2.05.54h0Z"/><path class="cls-1" d="M285.32,66.94l-8.44-2.75c-1.4-.45-2.81-.89-4.22-1.26-.7-.19-1.4-.37-2.09-.52l-.33-.08c-.07,0-.18-.06-.23.03-.1.1-.14.23-.18.38-.19.95-.2,2.08-.16,3.2.04,1.13.15,2.27.27,3.41.11,1.01.24,2.02.41,2.99.04.21.02.33.11.46.06.03.14.06.21.09l.11.04.35.1c1.98.56,4.02,1.1,6.04,1.65l12.2,3.19c3.61.93,7.27,1.79,10.88,2.63,2.32.55,4.66,1.04,6.97,1.66,1.15.31,2.3.65,3.45,1.03,1.15.35,2.22.98,3.29,1.67.64.48.89.82.81.88-.08.1-.46,0-1.15.1-.68.07-1.66.26-2.8.4-1.12.07-2.37-.09-3.69-.39-9.35-2.33-18.77-4.72-28.18-7.44-2.82-.83-5.71-1.53-8.65-2.34l-.28-.08c-.09-.02-.27-.08-.41-.13-.29-.11-.61-.17-.87-.31-.25-.15-.52-.27-.75-.46-.15-.25-.32-.48-.42-.78-.1-.29-.18-.6-.24-.9l-.09-.44-.06-.29-.19-1.16c-.23-1.54-.39-3.08-.46-4.64-.04-1.09-.05-2.18.06-3.31.02-.28.06-.57.1-.86.06-.32.08-.51.2-1,.23-.82.57-1.59,1.14-2.13l.25-.19c.13.02.2-.08.3-.09.19-.07.38-.12.58-.15.43-.02.88.05,1.33.14.22.05.46.08.66.14l.43.11.84.23c1.11.31,2.19.66,3.28.98,2.17.65,4.32,1.33,6.47,2.01,3.87,1.21,7.71,2.54,11.58,3.51,5.88,1.47,11.96,2.32,18.02,2.84,2.36.22,4.69.32,7.1.6.3.04.61.08.92.14.32.06.59.1,1.07.25.42.15.85.29,1.18.58.37.25.55.68.75,1.07.3.82.36,1.87.22,2.48-.09.71-.27,1.34-.47,1.95-.36,1.07-.77,2.06-1.27,3.03-.95,1.77-1.69,2.84-2.33,3.51-.67.64-1.23.89-1.8,1.01-.26.05-.54.16-.73.16-.33,0-.36-.39-.21-1.13.13-.75.52-1.79,1.18-2.99.93-1.79,1.85-3.67,2.28-5.39.09-.41.16-.83.14-1.11,0-.03-.05-.1-.08-.13-.02-.02-.05-.02-.07-.02h-.04s0,0-.13-.03c-.43-.09-.91-.17-1.41-.23-2.03-.25-4.24-.41-6.44-.62-2.2-.2-4.43-.43-6.66-.72-3.31-.43-6.63-.99-9.92-1.75-3.3-.74-6.55-1.76-9.68-2.76v-.08Z"/><path class="cls-1" d="M276.15,104.57c1.23,1,2.56,1.87,3.87,2.59,1.2.66,2.75,1.11,4.25,1.31.56.08,1.19.1,1.94.2.75.1,1.58.33,2.26.69.63.31,1.11.65,1.65,1.05.77.6,1.16,1.26,1.47,1.9.59,1.28.79,2.57.78,3.84,0,1.27-.27,2.55-.79,3.71-.55,1.13-1.22,2.18-2.13,3.03-1.57,1.52-3.59,2.49-5.62,2.89-1.3.26-2.64.4-3.95.25-.65-.09-1.3-.2-1.93-.39-.32-.05-.62-.23-.9-.4-.29-.16-.57-.34-.84-.53-.66-.49-.59-.33.1-.34.34,0,.86-.11,1.45-.32.58-.15,1.19-.18,1.85-.23,4.64-.02,8.9-2.36,9.77-6.47.25-1.2.05-2.61-.51-3.62-.14-.23-.29-.46-.43-.58-.09-.09-.08-.06-.21-.16l-.44-.26c-.6-.33-1.13-.54-1.7-.66-.62-.14-1.48-.16-2.41-.28-.93-.11-1.86-.3-2.75-.55l-.66-.19-.7-.26c-.48-.16-.87-.39-1.31-.59-.83-.42-1.61-.9-2.35-1.41-1.84-1.25-3.51-2.7-5.06-4.24-2.34-2.36-4.29-5.09-5.91-7.95-1.3-2.2-2.37-4.52-3.18-6.97-.15-.55-.33-1.08-.46-1.64-.14-.52-.18-.96-.18-1.33,0-.37.02-.68.08-.93.12-.5.37-.81.79-1.06.19-.11.38-.26.57-.33.65-.23,1.32.53,1.73,1.87.28,1,.69,1.97.98,2.96.2.48.4.96.6,1.45l.28.73.34.71.67,1.43.77,1.38c.24.47.54.91.83,1.36.3.44.55.91.88,1.33,1.84,2.57,4.04,4.97,6.57,6.92l-.05.07Z"/><path class="cls-1" d="M342.72,151.42c-1.48-.71-2.95-1.57-4.32-2.78-1.34-1.18-2.42-2.61-3.24-4.1-1.64-3-2.38-6.19-2.87-9.27-.35-2.27-.62-4.46-.71-6.72-.14-3.96.02-7.79-.23-11.55-.22-3.76-.98-7.38-2.54-10.79-1.37-3.01-3.3-5.81-5.49-8.31-1.4-1.61-2.94-3.12-4.51-4.59-1.55-1.5-3.16-2.94-4.71-4.47-.85-1.1-.61-1.12.64-.85,1.25.28,3.32,1.15,5.34,2.75,3.46,2.97,6.69,6.32,9.25,10.27,2.56,3.91,4.35,8.53,4.86,13.22.67,5.57.63,11.2,1.23,16.5.33,2.95.67,5.87,1.52,8.57.83,2.69,2.18,5.17,4.26,6.85,1.25,1.02,2.87,1.84,4.47,2.49.81.32,1.64.6,2.48.81.42.1.84.19,1.25.26.1.02.21.03.31.05l.37.05c.34.03.7.01,1.05.02h.09c.28,0,.49.05.74.07.12.02.25.03.35.05l.27.08c.18.07.37.05.53.23.16.18.22.39.29.6.25.84.14,1.89-.04,2.9-.04.24-.1.54-.14.73l-.13.54c-.09.36-.19.72-.29,1.07-.21.71-.45,1.4-.71,2.09-.53,1.37-1.17,2.71-1.98,3.99-.41.64-.85,1.25-1.38,1.83-.52.57-1.02,1.07-1.6,1.57-1.76,1.56-3.97,2.67-6.23,3.21-2.26.56-4.56.69-6.82.58-.5-.03-.99-.05-1.48-.08-.49-.05-.97-.11-1.47-.18-3.64-.59-4.67-1.24-5.15-2.39-.11-.26-.27-.54-.3-.78-.11-.83,1.44-1.05,3.92-.72,3.67.45,7.48.69,10.76-.17,1.63-.43,3.05-1.14,4.28-2.21.61-.53,1.29-1.21,1.73-1.78.48-.64.93-1.38,1.33-2.17.71-1.42,1.29-3.01,1.69-4.6l.14-.59.02-.07h0s0,0,0,0h0s0-.02.01-.03c.02-.03,0-.04-.02-.04h-.01s0,0,0,0c-.01,0,.03,0,.01,0l-.13-.02c-.36-.04-.7-.1-1.04-.16-.68-.12-1.34-.29-1.99-.47-1.29-.38-2.52-.85-3.72-1.4l.03-.09Z"/><path class="cls-1" d="M210.96,185.53c-1.48-.74-2.2-1.7-2.91-2.66-.67-.97-1.2-1.97-1.65-3.01-.32-.75-.67-1.5-.88-2.34-.41-1.6-.25-3.17.16-4.62.42-1.45,1.14-2.84,2.29-3.93.49-.47,1.18-.92,1.84-1.15.67-.24,1.35-.34,2.01-.38.43-.02.85-.02,1.28.02.42.06.83.18,1.23.32.4.14.78.34,1.14.55.37.21.63.6.89.93.27.47.25.35-.2.3-.23-.02-.57,0-.97.14-.37.07-.75.12-1.13.12-.34,0-.67.03-.99.07-.32.05-.63,0-.93.04-.61.04-1.16.2-1.61.36-.23.11-.37.15-.59.32-.22.15-.41.36-.62.56-.39.44-.74.98-1.03,1.58-.35.72-.52,1.56-.52,2.38-.03.84.15,1.53.44,2.4.62,1.82,1.56,3.72,2.84,4.99.16.15.32.26.48.4.17.09.34.21.44.25.22.09.49.16.74.07.15,0,.28-.09.35-.21.12-.23.15-.46.14-.78-.02-.43-.08-.89-.15-1.36-.16-.93-.36-1.89-.59-2.84-.17-.73-.38-1.45-.55-2.22-.08-.39-.16-.78-.18-1.24-.03-.43.02-1.12.32-1.61l.08-.12c.28-.45.69-.83,1.19-1.07.5-.21.79-.26,1.08-.28.27-.02.48,0,.64.06.32.12.48.37.64.67.07.12.15.24.22.36.25.3-.45,1.03-1.08,1.28-.46.24-.39.34-.42.47,0,.05.02.09.04.13l.08.49c.07.4.19.88.31,1.37.25.99.54,2.04.79,3.16.16.8.28,1.62.3,2.59,0,.09-.01.31-.01.5,0,.19-.03.38-.05.57-.04.38-.14.73-.29,1.06-.27.67-.85,1.17-1.48,1.45-.26.06-.52.12-.78.17-.26.03-.53.05-.79.06-.27.03-.53-.06-.79-.13-.26-.08-.55-.1-.77-.23l.02-.06Z"/><path class="cls-1" d="M205.41,188.41c-.2-.16-.41-.29-.6-.46-.22-.21-.33-.3-.43-.42-.22-.23-.42-.46-.61-.7-.38-.47-.71-.94-1.02-1.42-.62-.96-1.16-1.93-1.66-2.91-.37-.72-.77-1.42-1.08-2.17-.28-.68-.54-1.3-.74-2.16-.17-.85-.17-1.59-.12-2.37.06-.77.2-1.55.5-2.32.29-.76.8-1.59,1.68-2.08.76-.43,1.64-.54,2.49-.32.85.22,1.49.76,1.92,1.33.57.73,1.01,1.52,1.16,2.37.04.21.09.42.1.63-.1.24-.24.48-.23.69-.02.42-.08.83-.15,1.22-.1.49-.03.42-.14.02-.14-.38-.46-1.17-1.56-1.65-.18-.3-.42-.55-.58-.81-.16-.26-.34-.5-.52-.69-.18-.2-.37-.32-.5-.41-.13-.11-.21-.14-.29-.18-.06-.01-.22-.04-.31-.01-.1.02-.2.03-.34.17-.28.23-.57.79-.74,1.43-.22.75-.22,1.69-.06,2.42.19.72.63,1.66,1.02,2.49.89,1.86,1.91,3.74,3.17,5.26.15.18.3.34.46.5.12.12.18.18.28.26.19.15.44.3.7.25.15-.03.3-.11.39-.24.14-.21.18-.48.18-.75,0-.07,0-.13,0-.21-.01-.11-.02-.22-.04-.33-.03-.23-.08-.46-.12-.69-.2-.93-.5-1.87-.83-2.8-.51-1.45-1.19-2.82-1.67-4.38-.1-.34-.22-.68-.29-1.06-.24-1.4.13-2.09.87-2.18.17-.02.34-.05.49-.03.25.04.44.23.59.42.16.2.26.44.36.8.28,1.07.8,2.31,1.3,3.59.51,1.29,1.03,2.64,1.44,4.13.12.41.22.84.31,1.29.07.48.19.8.18,1.72,0,.78-.14,1.55-.53,2.13-.38.59-.97,1.02-1.63,1.25-.92.27-1.92.06-2.79-.54l.02-.06Z"/><path class="cls-1" d="M204.16,191.89c-.92.1-2.05-.33-2.5-.58-.57-.29-1.07-.63-1.53-.97-.92-.7-1.71-1.45-2.48-2.21-.56-.56-1.14-1.08-1.64-1.67-.44-.52-.87-1.05-1.29-1.57l-.63-.79c-.25-.31-.46-.64-.66-.97-.38-.67-.68-1.38-.85-2.16-.16-.78-.18-1.65.12-2.49.27-.74.8-1.38,1.4-1.79.58-.44,1.36-.73,2.11-.76.98-.06,1.87.3,2.6.76.73.46,1.36,1.12,1.56,2,.11.55.01.48-.47.35-.24-.07-.64-.07-1-.12-.18-.02-.39-.02-.56-.06-.16-.05-.33-.09-.48-.17-.54-.26-1.09-.34-1.47-.31-.39,0-.65.06-1.03.35-.29.25-.45.46-.52.9-.06.44.02,1.03.24,1.63.12.36.31.71.53,1.03.19.28.56.66.87,1.01.64.68,1.29,1.37,1.93,2.05,1.38,1.46,2.85,2.98,4.45,3.8.29.13.37.16.52.21.15.03.31.05.47.01.15-.03.31-.11.4-.25.09-.14.1-.31.09-.47,0-.35-.46-1.35-.93-2.12-.48-.81-1.03-1.59-1.61-2.35-.92-1.19-1.93-2.22-2.86-3.53-.21-.32-.43-.66-.57-1.07-.47-1.61.11-2.06.61-2.23.13-.04.26-.1.37-.11.2-.02.34.11.49.33.14.23.32.54.4.83.16.44.42.74.83,1.19.45.48.9.97,1.35,1.46.94,1.01,1.78,2.17,2.62,3.4.31.46.61.94.89,1.45.14.26.28.52.41.81.06.15.13.28.19.44.06.14.17.45.23.68.31.99.28,2.01-.22,2.79-.5.8-1.4,1.26-2.35,1.36l-.02-.06Z"/><path class="cls-1" d="M200.83,195.11c-.64.13-1.4-.01-2.13-.26-.36-.12-.77-.29-1.06-.45-.22-.11-.41-.23-.62-.35-.8-.48-1.54-1-2.24-1.55-.52-.4-1.06-.76-1.54-1.21-.84-.78-1.63-1.62-2.35-2.55-.35-.47-.69-.96-.99-1.51-.29-.55-.57-1.14-.63-1.92-.03-.32.03-.78.12-1.02.08-.27.15-.54.29-.81.23-.53.62-1.1,1.21-1.47.76-.52,1.7-.43,2.38-.22.71.21,1.27.67,1.72,1.17.27.34.12.39-.28.4-.2.01-.47.04-.78.09-.31.07-.62.12-.89.14-.5,0-.81.26-.85.4-.1.05-.24.22-.4.61-.07.18-.17.49-.17.42,0,.04-.04.16.02.36.09.38.32.88.6,1.37.69,1.19,1.92,2.14,3.06,3.07.63.51,1.29,1,1.96,1.44.34.22.68.43,1.03.62l.47.25c.08.05.17.09.26.13.16.07.32.13.5.17.18.03.4.03.51-.13.11-.12.13-.29.12-.45-.02-.2-.09-.39-.17-.58-.04-.1-.09-.19-.14-.29-.04-.08-.17-.3-.26-.44-.4-.64-.87-1.27-1.37-1.87-.77-.94-1.7-1.73-2.53-2.64-.18-.2-.37-.39-.54-.61-.31-.41-.49-.71-.52-.99-.01-.29.08-.52.25-.76.08-.11.14-.23.23-.31.14-.15.34-.18.58-.13.25.04.57.14.83.39,1.68,1.33,3.2,3,4.65,4.98.21.3.42.6.61.93.07.1.27.47.42.74.14.3.3.59.4.89.51,1.22.37,2.3-.29,3.17-.21.19-.43.39-.65.56-.25.12-.51.21-.78.28l-.03-.06Z"/><path class="cls-1" d="M278.36,238.57c-2.58-.7-5.1-1.44-7.66-2.22-.93-.29-1.89-.5-2.81-.83-1.63-.58-3.25-1.22-4.83-2.02-1.57-.81-3.15-1.67-4.51-3.03-.61-.58-1.15-1.33-1.54-2.18-.38-.89-.4-1.91-.2-2.81.13-.54.33-1.1.65-1.64.34-.53.85-1.03,1.45-1.31.61-.29,1.25-.31,1.81-.26.28.03.55.08.81.14.26.07.49.3.71.42.56.38.47.33-.08.59-.27.1-.68.54-1.04.72-.37.23-.71.52-.89.72-.17.15-.27.21-.37.38-.1.15-.2.41-.27.72-.11.64-.09.95.14,1.46.24.49.72,1.07,1.38,1.59.65.52,1.39,1.03,2.19,1.51,1.91,1.15,4.25,1.8,6.5,2.51,2.48.78,5.04,1.5,7.58,2.19,1.57.42,3.14.82,4.71,1.16,2.38.5,4.82,1.01,7.12.92.51-.03,1-.1,1.41-.24.33-.12.53-.27.64-.53.07-.19.08-.37.05-.55-.03-.23-.11-.46-.22-.69-.11-.24-.3-.45-.48-.66-.68-.82-.97-1.15-.86-2,.02-.19.02-.4.05-.58.1-.58.98-.86,2.26-.09.82.52,1.57,1.32,2,2.4.21.54.35,1.14.35,1.79,0,.72-.21,1.47-.57,2.12-.47.8-1.27,1.35-2.21,1.66-.71.23-1.32.31-1.92.36-1.18.09-2.24.02-3.3-.08-2.8-.3-5.44-.92-8.06-1.55v-.07Z"/><path class="cls-1" d="M272.29,215.77c2.71.85,5.33,1.86,7.91,2.95.94.4,1.91.72,2.84,1.16,3.25,1.56,6.44,3.2,9.46,5.35.66.53,1.33.98,2.01,1.79.67.85.96,1.78,1.04,2.79,0,1.27-.56,2.85-2.11,3.37-1.16.39-2.18.37-3.2.29-.64-.2-.6-.3-.14-.85.23-.28.57-.56.96-.88.38-.32.84-.61,1.24-.79.18-.08.31-.17.35-.22h0c.06.07.14.17.17.23.05.07.1.14.16.2l.09.09h.01c.46.48-.62-.62-.51-.51h0s0,0,0,0h0s.02-.08.02-.12c.01-.15-.01-.33-.08-.55-.08-.21-.08-.47-.19-.71-.05-.12-.1-.24-.17-.34-.09-.09-.03-.07-.2-.21-.47-.47-1.3-1.03-2.06-1.58-.78-.57-1.61-1.12-2.45-1.68-2.02-1.33-4.39-2.26-6.66-3.25-2.5-1.1-5.04-2.13-7.63-3.01-1.59-.54-3.2-1.03-4.81-1.4-1.21-.27-2.44-.5-3.63-.56-1.16-.07-2.44.09-2.74.68-.02,0-.02.03-.03.04-.44.7-.56,1.46-.33,2.05.25.61.85,1.17,1.56,1.67.32.22.68.38,1.03.59,1.34.73,1.76,1.08,1.73,1.9,0,.18.02.36,0,.51-.08.48-.91.7-2.06.22-.65-.26-1.32-.56-1.98-.97-.68-.39-1.38-.84-2.02-1.57-.64-.71-1.2-1.83-1.2-3.02,0-.57.07-1.17.24-1.65.08-.25.16-.52.27-.72.1-.23.22-.4.36-.73.33-.29.56-.67.9-.95.36-.24.76-.5,1.07-.59.69-.28,1.28-.36,1.85-.43,1.74-.15,3.23.06,4.69.31,1.46.27,2.87.61,4.25,1.01l-.02.08Z"/><path class="cls-1" d="M268.63,275.04c-4.09-.26-8.16-.6-12.23-.94-1.48-.13-2.97-.18-4.45-.32-5.22-.52-10.43-1.11-15.64-1.58-2.31-.19-4.64-.36-6.94-.46-1.48-.08-2.95-.09-4.43-.15-1.48-.15-2.95-.24-4.42-.53-.92-.46-.8-.29-.01-.73.39-.24.95-.43,1.63-.67.68-.21,1.48-.45,2.34-.53,3.05-.06,6.09.05,9.13.21,3.04.2,6.06.54,9.1.92,3.63.47,7.42.61,11.14.9,4.09.34,8.17.67,12.26.95,2.52.17,5.03.31,7.55.42,3.81.14,7.64.28,11.43.18,1.47-.05,2.93-.12,4.37-.23,1.44-.14,2.89-.27,4.33-.41.64-.05,1.26-.16,1.9-.22,1.19-.11,1.97-.15,2.53-.03.57.18.91.4,1.19.71.13.14.3.27.38.4.14.22-.03.44-.45.7-.42.26-1.08.63-1.96.73-5.21.93-10.77,1.15-16.33,1.14-4.13.01-8.27-.19-12.4-.39v-.07Z"/><path class="cls-1" d="M300.59,302.01c6.46-4.77,11.52-11.27,14.91-18.69,1.7-3.69,3.05-7.56,4.07-11.52.98-3.97,1.6-8.03,1.91-12.11.4-5.96.03-11.98-1.24-17.78-2.27-10.22-7.36-19.89-14.6-27.59-3.59-3.87-7.72-7.25-12.24-9.98l-1.7-1.02-1.76-.92c-1.15-.65-2.38-1.14-3.58-1.69-2.45-.97-4.93-1.88-7.51-2.46-9.11-2.26-18.88-1.79-27.82.78-5.75,1.67-11.22,4.3-16.13,7.68-1.28.78-2.41,1.76-3.57,2.7-.57.48-1.19.9-1.72,1.43l-1.61,1.55c-.53.52-1.09,1.02-1.61,1.56l-1.51,1.65-1.52,1.66c-.46.59-.88,1.21-1.37,1.78-2.39,2.9-2.31,2.43-1.01-.6.16-.38.34-.81.55-1.26.21-.45.42-.96.73-1.44.59-.98,1.27-2.09,2.05-3.31.11-.14.18-.32.29-.46l.36-.42c.24-.28.49-.57.74-.86.52-.58,1.05-1.18,1.6-1.79.54-.64,1.2-1.17,1.85-1.75.66-.57,1.34-1.15,2.05-1.73,5.13-3.96,10.98-6.92,17.13-8.86,6.15-1.95,12.62-2.9,19.07-2.77,6.45.13,12.92,1.33,18.96,3.76,2.99,1.24,5.9,2.66,8.62,4.39,1.4.81,2.68,1.79,4.02,2.7,1.26,1.01,2.57,1.95,3.75,3.05,5.84,5.04,10.8,11.26,14.63,18.16,3.79,6.91,6.3,14.64,7.08,22.48.44,4.3.46,8.64.13,12.94-.35,4.3-1.14,8.56-2.25,12.73-.3,1.03-.55,2.09-.9,3.11l-1.05,3.06c-.8,2-1.6,4.01-2.59,5.94-1.92,3.87-4.24,7.56-7.01,10.91-3.44,4.11-7.61,7.57-12.15,10.33-4.55,2.77-9.48,4.85-14.57,6.31-3.85,1.14-7.81,1.87-11.79,2.28-1.99.25-3.99.3-5.99.4-2,0-4,.02-6-.14-7.99-.38-15.94-2.43-23.06-5.97-5.55-2.74-10.67-6.25-15.08-10.53-4.4-4.28-8.08-9.33-10.68-14.96-1.15-2.47-2.11-4.98-2.78-7.66-.36-1.23-.52-2.39-.75-3.44-.14-1.06-.27-2.03-.34-2.91-.04-.88-.08-1.68-.12-2.41,0-.73.03-1.38.05-1.97.03-1.18.22-2.1.35-2.85.16-.76.42-1.34.63-1.87.2-.47.39-1.1.53-1.36.24-.45.37.34.56,2.13.03.44.14.95.17,1.51.04.56.09,1.18.13,1.85.07.67.15,1.4.23,2.17.11.77.23,1.59.35,2.46.46,2.56,1.03,5.11,1.85,7.59.82,2.49,1.88,4.9,3.13,7.22,2.48,4.66,5.83,8.88,9.73,12.54,7.8,7.34,17.94,12.49,28.67,14.28,4,.61,8.11.93,12.2.84,4.09-.1,8.18-.54,12.19-1.35,8.02-1.59,15.72-4.81,22.27-9.57l.07.06Z"/><path class="cls-1" d="M265.15,215.5c.01.07.03.14.04.2,0,.02.01.01.02.03,0,.04.02.09.03.13,0,.1.02.1.03.14,0,.03.02.03.02.04.01,0,.02,0,.03.06,0,.04,0,.47-.01.54-.02.08-.04.13-.06.08-.01.03-.03.03-.04.05-.01,0-.03-.02-.04-.03,0-.02-.02-.02-.03.02,0,0,0,0,0,.01h0s0,.11,0,.11c0,.02,0-.02-.01-.03,0-.03-.01-.05-.02-.05-.01,0-.02.1-.03.14,0,0,0,.03,0,.03,0,0-.01-.11-.01-.5v-.27c0-.31,0-.57,0-.66.02-.33.04-.47.06-.55,0,.02.01-.23.02.26,0,.06.01.2.02.2v.03Z"/><path class="cls-1" d="M211.54,57.56c-.21.02-.24-.25-.17-.69.02-.14.21-.51.29-.54.14-.06.28-.11.41-.14.08-.01,1.07.22,1.41.27.33.06.64.17.94.31l1.83.77c.14.06.26.14.37.24.39.34.84.56,1.32.73.08.03.15.08.26.04.18-.06,1.43.49,1.56.62.33.33.68.6,1.02.91.05.04.12.04.13.16.01.27.15.3.27.37.16.1.31.22.44.37.07.08.08.24.12.39.03.13-.18.45-.23.47-.13.07-.15.26-.21.4-.02.05-.05.11-.07.15-.05.09-1.3.15-1.4.09-.01,0-.39-.15-.78-.31-.39-.15-.81-.31-.9-.34-.09-.02-.15-.12-.22-.19-.03-.03-1.23-.47-1.27-.5-.22-.15-.49-.2-.63-.5-.03-.06-.08-.07-.13-.1-.41-.19-.77-.47-1.15-.73-.19-.13-.41-.22-.61-.33-.04-.02-.06-.06-.09-.1-.04-.04-.07-.09-.12-.11-.49-.24-.93-.59-1.44-.77-.12-.04-.56-.51-.7-.55-.08-.03-.18-.41-.27-.4Z"/><path class="cls-1" d="M211.94,69.5c-.07.18-.23-.08-.45-.61-.07-.17-.21-.7-.2-.78.02-.16.04-.32.08-.44.02-.07.54-.49.71-.66.16-.16.35-.24.54-.29.38-.13.77-.26,1.16-.39.09-.03.18-.03.28,0,.34.09.64.01.93-.12.05-.02.1-.02.13-.12.04-.17.84-.41.97-.37.31.1.59.13.89.2.04,0,.07-.04.14.06.15.23.21.17.3.16.12,0,.24,0,.37.06.07.03.16.16.24.26.08.09.15.49.15.53-.02.13.07.31.12.46.01.05.03.12.05.17.02.1-.45.92-.52.93,0,0-.23.11-.47.23-.24.12-.48.24-.53.28-.05.04-.12,0-.19-.03-.03,0-.73.38-.76.39-.16.01-.3.14-.51-.04-.04-.04-.07-.02-.1,0-.26.1-.55.09-.83.1-.14,0-.27.07-.41.1-.02,0-.06-.02-.09-.03-.04-.01-.07-.03-.11-.02-.32.11-.67.07-.97.25-.07.04-.49-.12-.57-.07-.04.03-.3-.29-.32-.22Z"/><path class="cls-1" d="M222.3,51.41c-.14-.1,0-.32.26-.58.08-.08.38-.23.44-.22.13.03.27.05.39.09.06.03.83.6,1.15.77.29.17.55.37.73.6l.88,1.53c.06.11.1.24.1.38.02.48.2.88.45,1.26.04.06.06.14.18.16.21.04.74,1.14.72,1.31-.04.43-.03.85-.04,1.27,0,.06.06.1-.05.19-.24.21-.16.31-.13.43.04.16.02.34-.03.54-.03.1-.16.23-.27.35-.09.11-.51.21-.57.21-.15-.02-.33.1-.5.17-.06.02-.13.05-.18.06-.11.03-1.23-.55-1.23-.65,0,0-.18-.3-.36-.62-.19-.3-.38-.63-.43-.69-.05-.06-.01-.16,0-.25,0-.04-.58-.95-.59-.99-.04-.22-.22-.38-.07-.69.03-.06,0-.1-.02-.14-.17-.34-.22-.73-.31-1.1-.04-.19-.15-.36-.22-.54-.01-.03,0-.08,0-.12,0-.05.01-.1,0-.14-.1-.21-.17-.43-.25-.65-.03-.24-.07-.48-.16-.69-.03-.1.05-.71-.01-.82-.02-.06.16-.41.09-.45Z"/></svg>