<?xml version="1.0" encoding="UTF-8"?><svg id="Layer_1" xmlns="http://www.w3.org/2000/svg" width="520" height="520" viewBox="0 0 520 520"><defs><style>.cls-1,.cls-2{fill:#231f20;}.cls-3{opacity:.3;}.cls-2{opacity:.45;}</style></defs><path class="cls-1" d="M52.2,423.55c-.43.05-.79-.2-1.12-.47-.11-.09-.1-.34.02-.4.27-.13.52-.26.72-.36.15-.03,2.52-.89,3.33-.99.78-.18,1.57-.29,2.35-.36l2.39-.24c.8-.04,1.59-.05,2.38-.07.35,0,.71.02,1.06.09,1.21.22,2.41.23,3.62.15.2-.01.41,0,.6-.12.32-.2,3.59-.25,4.01-.17,1.05.22,2.1.33,3.15.57.15.03.31-.01.45.13.32.34.64.28.97.31.45.04.9.14,1.35.26.22.06.45.24.67.37.2.12.11.54.04.59-.2.14-.03.34,0,.51,0,.06.02.14.01.18-.01.08-2.61,1.22-2.9,1.19-.02,0-.27.03-.64.08-.37.04-.87.13-1.38.15-1.02.08-2.08.15-2.3.18-.23.03-.45-.05-.68-.1-.11-.02-3.15.23-3.27.21-.63-.05-1.26.07-1.89-.23-.12-.06-.25-.04-.38-.04-1.08.03-2.16-.09-3.24-.18-.55-.05-1.1,0-1.66-.03-.1,0-.2-.06-.3-.08-.13-.03-.25-.08-.38-.09-1.31-.07-2.61-.29-3.91-.26-.15,0-.58-.09-1.02-.17-.44-.08-.89-.26-1.06-.25-.19-.03-.83-.41-1.01-.37Z"/><path class="cls-1" d="M187.93,411.56c-1.11-.07-2.02-.51-2.84-.77-.26-.09-.21-.27.11-.33.62-.11,1.25-.26,1.89-.43.11-.02.56-.11,1.22-.24.66-.1,1.53-.15,2.45-.26.92-.1,1.89-.21,2.77-.31.87-.05,1.64-.1,2.16-.13,2.01-.13,4.02-.18,6.03-.2l6.12-.09,6.12-.04c.91,0,1.81.03,2.72.09,3.11.22,6.22.17,9.32.01.52-.03,1.05-.02,1.54-.16.82-.21,9.23-.56,10.32-.52,2.72.11,5.44.09,8.16.08.39,0,.8-.08,1.16.03.84.26,1.67.14,2.51.1,1.17-.05,2.33-.12,3.5-.12.58,0,1.16.13,1.74.22.53.08.3.58.12.65-.51.2-.06.38,0,.57.02.06.05.15.03.2-.01.03-.43.15-1.07.31-.65.15-1.5.35-2.37.56-1.75.39-3.6.76-3.97.79-.09,0-2.58.28-5.2.56-2.61.26-5.34.53-5.9.59-.58.07-1.17.02-1.76,0-.27.04-8.14.62-8.45.61-1.63.02-3.27.19-4.89-.08-.32-.05-.65-.03-.98-.01-2.8.11-5.61.03-8.41-.03-1.43-.02-2.86.01-4.3.01-.26,0-.52-.05-.77-.07-.32-.02-.65-.08-.97-.08-3.39-.05-6.77-.31-10.16-.31-.39,0-1.51-.11-2.65-.24-1.14-.19-2.29-.37-2.73-.39-.5-.06-2.13-.52-2.58-.58Z"/><path class="cls-1" d="M354.2,404.4c.93.09,1.69.4,2.37.48.22.04.18.11-.09.13-.52,0-1.04.13-1.57.22-.09.02-.47.08-1.02.17-.55.05-1.27.12-2.04.19-1.53.14-3.23.37-4.1.51-1.67.25-3.34.49-5.01.68-1.69.28-3.39.3-5.09.41l-5.1.32c-.75.05-1.51.05-2.27.02-2.6-.12-5.2.02-7.79.26-.43.04-.88.04-1.29.21-.68.29-7.76.52-8.68.42-2.29-.22-4.58-.36-6.87-.55-.33-.03-.67.03-.97-.14-.69-.4-1.4-.33-2.1-.36-.98-.03-1.96-.11-2.94-.25-.48-.05-.96-.36-1.43-.55-.43-.19-.19-.7-.03-.77.44-.18.09-.44.05-.67-.01-.08-.03-.18,0-.24.01-.04.37-.15.91-.32.54-.12,1.26-.26,2-.39,1.47-.27,3.01-.55,3.32-.55.04,0,.57-.03,1.37-.07.8-.05,1.85-.11,2.94-.18,2.16-.15,4.42-.31,4.89-.37.48-.06.97.02,1.46.06.23.04,6.73-.6,7-.55,1.35.02,2.71-.15,4.07.17.27.06.54.04.81.03,2.33-.1,4.67,0,7.01.04,1.19.02,2.39-.03,3.58-.04.22,0,.43.04.65.06.27.02.54.06.82.06.71,0,1.42-.03,2.12.03l2.13.18c1.42.13,2.83.23,4.25.32.65.04,3.76.55,4.5.59.42.05,1.78.35,2.16.41Z"/><path class="cls-2" d="M276,276.91c7.46-2.22,9.75-5.87,9.86-6.63s-2.51-6.39,1.39-6.42c3.9-.04,1.14-3.74,0-4.93-1.14-1.19-9.78,4.01-15.87,6.09-6.09,2.08-18.3,2.05-18.3,2.05,0,0,1.12,3.12.14,5.14-.98,2.02-4.9,7.62-4.9,7.62,0,0,14.61,1.09,20.47-.46,5.86-1.55,7.21-2.45,7.21-2.45Z"/><path class="cls-1" d="M269.04,280.01c-1.42.14-2.86.15-4.3.19-.53,0-1.04.1-1.57.08-1.85-.06-3.73-.22-5.57-.65-.82-.18-1.65-.34-2.47-.56-.52-.16-1.07-.3-1.57-.6-.5-.29-.92-.75-1.18-1.3-.17-.34.05-.43.48-.52.22-.05.47-.09.78-.18.31-.1.57-.16.81-.11.8.18,1.64.42,2.56.54.91.15,1.87.24,2.85.44,1.18.25,2.44.07,3.68.02,1.36-.05,2.74-.13,4.12-.26.85-.08,1.7-.13,2.55-.25,1.28-.16,2.58-.32,3.83-.63.97-.23,1.87-.67,2.8-.99.21-.07.4-.16.61-.21.78-.2,1.07-.09,1.43.49.08.13.18.26.24.39.22.45.02.96-.51,1.33-1.58,1.14-3.44,1.65-5.32,2.1-1.4.33-2.82.55-4.25.76v-.08Z"/><path class="cls-1" d="M108.92,382.51c-2.3,2.8-4.9,5.38-7.73,7.64-1.04.82-2.07,1.64-3.17,2.37-3.87,2.59-8.11,4.57-12.52,5.96-1.96.61-3.96,1.09-5.96,1.47-2.57.49-5.22.55-7.81.38-.81-.05-.7-.06-.01-.12.42-.04.9-.09,1.41-.13.58-.07,1.26-.19,2-.27,2.59-.41,5.17-.82,7.68-1.55,2.51-.71,4.97-1.63,7.37-2.72,2.87-1.3,5.65-3.09,8.23-5.01,2.84-2.13,5.45-4.53,7.77-7.22,1.43-1.65,2.76-3.4,4.01-5.19,1.87-2.74,3.56-5.63,4.93-8.62,1.07-2.33,1.86-4.72,2.55-7.13.16-.53.29-1.06.42-1.6.56-1.99.8-2.6,1.36-2.94.12-.08.26-.19.37-.23.38-.13.49.77.29,2.34-.39,2.3-1.05,4.61-1.89,6.89-.86,2.27-1.94,4.48-3.12,6.64-1.77,3.2-3.85,6.24-6.15,9.09l-.03-.02Z"/><path class="cls-2" d="M38.76,402.44s16.49,25.57,45.79,19.75c29.3-5.82,36.51-32.36,37.14-35.75.63-3.39,1.32-18.06-.54-18.39-1.87-.33-4.33,12.4-6.38,15.39-2.05,2.99-14.47,17.1-20.18,18.99-5.72,1.89-18.04,5.3-19.57,5.38-1.54.08-24.14-3.76-24.14-3.76l-12.11-1.62Z"/><path class="cls-1" d="M46.09,412.61c-1.44-1.34-2.82-2.74-4.11-4.24-.47-.54-.97-1.06-1.41-1.62-1.53-2.02-2.9-4.16-4.04-6.4-.5-1-1-2-1.47-3.01-.3-.65-.59-1.3-.85-1.96-.22-.68-.35-1.39-.44-2.1-.05-.45.22-.46.65-.21.41.26,1.05.74,1.47,1.4,1.15,2.51,2.57,4.83,3.84,7.33.8,1.48,1.96,2.8,3.06,4.11,1.21,1.44,2.49,2.85,3.86,4.17.84.81,1.71,1.61,2.61,2.36,1.37,1.14,2.78,2.25,4.26,3.22,1.16.75,2.38,1.35,3.56,2.02.26.15.53.27.78.44.93.62,1.17.93,1.16,1.44,0,.12,0,.24-.01.34-.07.34-.62.37-1.43.11-1.22-.37-2.37-.93-3.54-1.52-1.13-.64-2.24-1.36-3.33-2.13-1.61-1.13-3.16-2.39-4.65-3.7l.03-.04Z"/><path class="cls-1" d="M43.97,400.39l2.41,1.4c.29.17.6.29.89.47,1.02.62,2.04,1.23,3.09,1.78.46.25.94.46,1.42.67.61.27,1.22.54,1.8.88.18.11.12.19-.09.23-.21.04-.57.07-.95-.02-1.33-.35-2.65-.7-3.9-1.26-.74-.34-1.58-.54-2.37-.82-.87-.3-1.71-.67-2.56-1.04l-1.56-.67c-.79-.33-1.58-.69-2.38-.96-.62-.23-1.31-.25-1.94-.43-.14-.04-.28-.06-.4-.15-.46-.31-.54-.56-.47-1.1.02-.12.03-.24.05-.36.09-.37.42-.62.88-.72.7-.2,1.32-.11,1.9.07.59.17,1.18.38,1.73.67.83.41,1.65.87,2.47,1.31l-.02.05Z"/><path class="cls-1" d="M58.36,419.13c-2.43-1.18-4.78-2.52-6.99-4.07-.81-.56-1.63-1.1-2.4-1.71-2.69-2.19-5.14-4.67-7.16-7.46-.92-1.22-1.78-2.49-2.58-3.77-1.05-1.64-1.87-3.44-2.29-5.35-.14-.59,0-.55.39-.16.19.19.46.47.75.81.31.33.66.71.92,1.18,1.06,1.59,2,3.21,3.15,4.71,1.12,1.52,2.35,2.96,3.62,4.4,1.51,1.73,3.43,3.19,5.33,4.56,2.09,1.52,4.32,2.85,6.65,4,1.43.72,2.9,1.37,4.4,1.93,2.27.86,4.6,1.64,6.96,2.19,1.84.42,3.68.6,5.51.93.4.07.8.11,1.21.2,1.5.33,1.96.54,2.23,1.04.06.11.15.22.18.33.11.34-.56.55-1.72.61-1.73.08-3.5.01-5.27-.23-1.77-.28-3.54-.7-5.3-1.19-2.61-.73-5.16-1.75-7.63-2.89l.02-.06Z"/><path class="cls-1" d="M123.23,375.43c-.08,1.73-.31,3.45-.6,5.15-.09.62-.15,1.25-.28,1.86-.45,2.17-1.01,4.3-1.67,6.39-.26.94-.6,1.85-.89,2.77l-.63,1.74c-.26.56-.58,1.1-.87,1.65-.19.34-.22.27-.23-.08,0-.34-.06-1,.02-1.71.24-1.21.48-2.42.73-3.64.27-1.2.6-2.38.91-3.58.4-1.43.49-2.98.65-4.48.1-.83.15-1.66.23-2.49l.14-2.49c.05-1.02.08-2.05.06-3.08-.03-1.55-.1-3.12-.33-4.65-.21-1.19-.54-2.32-.86-3.46-.06-.25-.16-.49-.2-.75-.13-.97.05-1.33.49-1.65.1-.07.2-.16.3-.22.33-.18.75.13,1.19.79,1.18,1.99,1.59,4.34,1.79,6.68.16,1.74.17,3.5.12,5.25h-.06Z"/><path class="cls-1" d="M231.93,403.15c-1.29-.63-2.57-1.24-3.87-1.79-.47-.22-.96-.36-1.43-.57-1.66-.72-3.36-1.37-5.11-1.78-.78-.17-1.58-.3-2.37-.37-.51-.02-1.02-.06-1.52-.06-.25,0-.51-.09-.77-.12-.26-.03-.52-.08-.79-.18-.34-.13-.29-.07-.03-.25.26-.2.74-.67,1.37-.88,1.11-.2,2.24-.19,3.36-.12,1.12.11,2.2.41,3.26.76,1.26.44,2.6.74,3.86,1.19,1.39.49,2.72,1.13,4.04,1.73l2.43,1.13c1.23.56,2.45,1.15,3.7,1.64.97.38,1.97.63,2.96.94.22.07.44.11.65.19.8.27.95.61.91,1.19-.01.14-.01.28-.04.4-.09.43-.56.64-1.21.58-1.85-.34-3.66-1.05-5.46-1.81-1.33-.56-2.65-1.19-3.97-1.78l.02-.05Z"/><path class="cls-1" d="M310.87,393.78c1.14-.63,2.36-1.2,3.66-1.61.48-.14.93-.35,1.42-.44,1.72-.35,3.38-.18,4.96-.19.7,0,1.39-.06,2.06-.17.43-.06.85-.18,1.26-.25.43-.05.84-.12,1.29-.12.31.09.35.26.26.71-.1.44-.42,1.01-.94,1.26-1.9.69-3.82.77-5.61.75-1.08,0-2.13.25-3.11.5-1.09.28-2.17.71-3.22,1.27-.65.33-1.29.72-1.92,1.12-.96.62-1.92,1.27-2.85,1.96-.74.52-1.4,1.14-2.16,1.66-.17.11-.32.24-.5.34-.67.37-.97.32-1.34-.08-.09-.09-.18-.18-.25-.28-.23-.33-.13-.78.24-1.15.54-.58,1.1-1.11,1.68-1.66.57-.55,1.18-1.09,1.87-1.57,1-.73,2.06-1.44,3.19-2.12l.04.05Z"/><polygon class="cls-1" points="230.81 325.78 226.54 337.09 283.47 354.43 319.31 332.13 311.75 323.03 255.29 325.5 230.81 325.78"/><path class="cls-1" d="M316.16,391.36s-4.41-10.77-13.29-16.47c-6.8-4.37-22.43-17.24-31.73-20.45-9.3-3.21-40.32-16.91-40.32-16.91l-19.72-3.56s-11.1,5.15-14.43,3.21c-3.33-1.94-7.94,3.37-7.94,3.37,0,0-5.15,4.46-6.4,9.55-1.25,5.08-1.81,10.59,1.15,15.04,2.96,4.44,17.23,18.56,17.23,18.56l26.33,13.38,28.24,12.01,30.08,10.77,17.11-16.78,13.67-11.72Z"/><path class="cls-1" d="M281.59,355.54s12.11,4.24,22.89,14.68c10.77,10.45,14.83,19.97,14.83,19.97,0,0,15.84-5.15,19.28-7.23,3.44-2.09,25.57-19.21,25.57-19.21,0,0,4.41-8.29,5.54-13.65,1.13-5.36,2.1-13.29,0-15.05-2.1-1.76-12.12-8.1-13.57-8.29-1.45-.19-23.91,3.59-23.91,3.59l-22.19,8.38-28.44,16.81Z"/><path class="cls-1" d="M335.62,264.95c.11-.34.18-.68.19-1.06,0-.14-.04-.27-.03-.42.03-.51.01-1.06-.09-1.61-.02-.25-.09-.49-.16-.72-.1-.3-.21-.6-.22-.94,0-.11.14-.16.34-.16.2,0,.48.05.61.19.46.51.96,1.07.95,1.82.03.43.24.84.31,1.28.07.48.04,1-.03,1.5-.04.31-.12.61-.2.9-.13.45-.33.87-.53,1.3-.15.33-.25.71-.46,1.06-.04.08-.1.14-.17.2-.27.19-.45.13-.75-.18-.07-.07-.14-.14-.2-.22-.2-.25-.28-.54-.28-.75-.02-.35.02-.53.1-.71.07-.18.15-.36.23-.55.12-.28.25-.59.32-.92h.05Z"/><path class="cls-1" d="M342.95,271.07c.12-.24.23-.51.28-.79.02-.1-.02-.2,0-.3.06-.37.12-.77.05-1.16-.02-.18-.12-.32-.21-.46-.13-.18-.31-.3-.32-.57,0-.09.26-.31.57-.49.3-.17.68-.29.81-.17.44.43.75,1,.76,1.62,0,.37.19.69.23,1.06.04.39.02.79-.04,1.18-.03.24-.09.47-.14.7-.07.36-.24.68-.32,1.03-.08.26-.02.59-.13.86-.02.06-.02.13-.06.18-.13.2-.3.19-.75-.06l-.3-.17c-.33-.21-.56-.46-.63-.63-.08-.25-.22-.5-.2-.66,0-.17.04-.32.08-.48.05-.23.19-.45.27-.7h.05Z"/><path class="cls-1" d="M346.86,279.57c.07-.35.08-.69-.01-1.08-.03-.14-.12-.26-.16-.4-.15-.5-.42-.99-.74-1.48-.14-.22-.34-.39-.53-.56-.26-.2-.5-.44-.69-.76-.06-.1.07-.26.27-.39.2-.13.52-.26.73-.2.4.1.71.33,1,.59.29.26.57.56.73.94.21.45.55.82.75,1.29.21.5.35,1.08.36,1.65.01.35-.03.69-.09,1.03-.1.51-.3.99-.54,1.45-.17.36-.36.76-.68,1.08-.07.07-.13.15-.21.21-.31.21-.49.13-.71-.23-.05-.08-.11-.17-.15-.25-.14-.3-.16-.6-.1-.76.09-.25.14-.46.19-.66.07-.18.17-.34.25-.53.13-.28.25-.61.28-.95h.04Z"/><path class="cls-1" d="M193.72,282.65c-.05-.78-.03-1.47,0-2.2,0-.26-.02-.52,0-.78.09-.92.32-1.81.57-2.68.1-.38.19-.77.27-1.15.12-.49.32-.96.62-1.39.1-.13.22-.07.35.11.13.17.31.47.35.76.01.25.05.5.05.74-.02.23-.05.47-.07.7-.05.47-.12.93-.23,1.4-.13.56-.07,1.16-.05,1.74,0,.64.03,1.28.11,1.92.04.39.1.76.2,1.12.16.54.35,1.1.71,1.5.28.31.66.46.97.52.07,0,.15,0,.2.02.12.02.17.07.21.2.02.16.03.37.02.65v.37c0,.2-.05.37-.17.54-.11.16-.32.37-.53.34-.66.04-1.34-.22-1.86-.61-.53-.39-.87-.93-1.13-1.44-.38-.78-.55-1.58-.66-2.36h.05Z"/><path class="cls-1" d="M187.43,289.54c.05-.5.19-.97.34-1.43.05-.17.06-.34.13-.5.25-.56.61-1.06,1.01-1.49.16-.2.31-.4.45-.6.18-.26.36-.54.71-.64.11-.03.3.21.47.49.17.28.33.6.28.73-.19.45-.34.86-.66,1.23-.22.22-.21.55-.27.84-.08.32-.15.64-.18.98-.02.21-.06.42-.04.63,0,.32.03.65.17.94.12.22.36.37.56.5.04.03.08.07.1.11.05.08.02.17-.06.29-.08.11-.19.24-.36.4l-.22.21c-.23.22-.54.34-.89.33-.44-.07-.7-.31-.91-.58-.21-.28-.36-.59-.46-.92-.16-.49-.2-1-.21-1.5h.06Z"/><path class="cls-1" d="M185.69,297.21c.09-.54.22-1.06.43-1.6.07-.19.09-.4.19-.58.39-.63.91-1.13,1.47-1.54.24-.19.51-.34.77-.5.33-.2.71-.39,1.13-.27.13.04.16.34.15.69-.01.34,0,.74-.07.85-.14.19-.24.38-.35.55-.11.17-.32.24-.54.38-.29.15-.29.51-.43.77-.15.29-.27.63-.35,1.01-.05.23-.09.47-.09.72,0,.37-.02.76.09,1.14.08.29.33.54.49.82.02.06.07.12.08.19.04.25-.11.37-.64.57l-.36.13c-.4.13-.78.12-1.01-.02-.16-.11-.32-.22-.46-.34-.1-.13-.18-.27-.25-.41-.14-.29-.21-.61-.27-.95-.08-.5-.07-1.03-.04-1.57h.06Z"/><path class="cls-2" d="M194.55,235.82s8.42-1.12,10-3.84c1.58-2.72,2.72,9.15,6.2,13.38,3.48,4.23,15.48,13.67,15.78,15.73s-4.17,9.01-4.17,9.01c0,0-10.11-6.25-13.61-9.83s-10.9-14.9-10.9-14.9l-3.29-9.53Z"/><path class="cls-1" d="M210.4,261.28c-.78-.71-1.58-1.41-2.3-2.18-.37-.38-.74-.74-1.1-1.13l-1.05-1.18c-.52-.56-1.03-1.13-1.5-1.73-1.64-2.14-3.14-4.38-4.33-6.78-.56-1.05-1.04-2.14-1.55-3.19l-.79-2.12c-.22-.72-.4-1.46-.6-2.18-.11-.45-.08-.4.13-.05.2.35.64.96,1.05,1.71.77,1.29,1.54,2.58,2.31,3.88.36.65.8,1.26,1.18,1.9.36.66.75,1.29,1.15,1.93.91,1.56,2.18,2.95,3.4,4.33.66.77,1.39,1.47,2.08,2.21.75.68,1.46,1.41,2.24,2.05l1.44,1.2,1.51,1.11c.76.57,1.58,1.05,2.36,1.57.81.48,1.64.93,2.48,1.35.67.29,1.34.55,2.01.81.68.23,1.38.42,2.06.64.3.1.6.16.91.25,1.13.31,1.4.68,1.47,1.35.01.15.05.31.04.45-.01.46-.61.74-1.54.65-2.71-.42-5.45-1.47-7.89-3.02-.93-.53-1.79-1.18-2.68-1.78-.84-.67-1.71-1.3-2.51-2l.03-.04Z"/><path class="cls-2" d="M240.01,261.92c-1.17,1.25-8.01-1.78-8.01-1.78,0,0-.13,2.83.54,4.88.67,2.05,3.18,2.01,4.48.53,1.3-1.48,3-3.63,3-3.63Z"/><path class="cls-2" d="M300.3,242.95s6.14-8.02,5.82-11.19c-.32-3.17.36-6.19.36-6.19,0,0,8.09,1.61,8.93,3.68.84,2.07-3.47,13.7-3.47,13.7,0,0-2.04,6.61-4.32,5.39-2.28-1.21-7.3-5.39-7.3-5.39Z"/><path class="cls-1" d="M284.24,271.48c.29-.36.5-.74.59-1.18.05-.16.04-.32.06-.49.1-.6-.02-1.32-.34-1.98-.14-.29-.34-.55-.54-.82-.26-.33-.55-.64-.79-1.02-.07-.12.02-.2.2-.24.18-.03.49-.04.73.09.85.46,1.6,1.18,1.96,2.17.21.58.51,1.19.58,1.87.08.75-.17,1.49-.48,2.13-.2.39-.44.74-.7,1.07-.39.5-.85.9-1.26,1.32-.33.32-.55.76-.87,1.08-.07.07-.13.15-.21.21-.29.23-.53.09-.86-.22-.08-.08-.16-.15-.23-.22-.23-.25-.3-.59-.23-.92.27-.88.88-1.3,1.36-1.8.37-.36.73-.7.97-1.07l.04.02Z"/><path class="cls-1" d="M283.34,271.56c.17-.44.28-.91.28-1.43,0-.19-.05-.37-.05-.56-.03-.67-.13-1.38-.37-2.06-.1-.3-.25-.59-.4-.86-.18-.37-.36-.74-.51-1.13-.04-.12.02-.15.16-.11.14.04.38.12.57.28.7.57,1.16,1.36,1.46,2.21.16.52.43,1.03.54,1.59.13.61.17,1.26.1,1.9-.04.39-.12.78-.23,1.15-.15.58-.44,1.11-.74,1.62-.24.4-.42.85-.76,1.23-.08.07-.15.15-.25.2-.36.21-.56.12-.82-.19-.06-.07-.12-.15-.17-.22-.17-.26-.18-.57-.11-.8.05-.18.09-.36.12-.52.07-.13.13-.25.19-.37.13-.23.26-.47.38-.73.18-.37.44-.76.57-1.21h.04Z"/><path class="cls-1" d="M288.68,265.1c-.37-.08-.73-.18-1.09-.28-.13-.02-.26-.04-.39-.11-.42-.23-.85-.46-1.26-.68-.18-.09-.36-.16-.55-.23-.23-.08-.48-.16-.67-.36-.06-.06.01-.21.14-.35.12-.14.3-.3.44-.3.49.02.95.02,1.38.2.26.11.56.04.84.05.31.03.61.12.92.15.19.03.38.05.58.06.29,0,.59.03.88-.04.22-.05.41-.27.61-.34.05-.02.08-.06.13-.07.1.02.17.07.24.18.08.13.14.26.2.43l.08.21c.04.11.05.22.05.36,0,.14-.01.34-.07.44-.31.7-.85.75-1.35.79-.38.02-.76-.02-1.14-.06v-.05Z"/><path class="cls-1" d="M292.48,266.38c-.14-.16-.28-.32-.44-.45-.06-.05-.13-.03-.19-.08-.2-.2-.42-.36-.64-.56-.1-.08-.21-.09-.32-.1-.14,0-.29.05-.42-.16-.04-.07-.02-.44.05-.81.06-.37.17-.78.27-.82.36-.12.73-.18,1.04.12.18.19.41.13.61.2.22.08.43.2.64.31.13.07.25.15.38.21.19.09.36.25.57.3.16.04.38-.06.57-.08.04,0,.09-.03.13-.02.14.04.1.21-.16.79l-.18.4c-.21.44-.44.79-.58.89-.43.34-.65.29-.87.21-.17-.05-.3-.19-.45-.31l.02-.06Z"/><path class="cls-1" d="M287.71,262.86c-.22-.37-.45-.74-.67-1.11-.08-.13-.22-.22-.3-.35-.29-.47-.49-1.02-.73-1.51-.12-.21-.27-.4-.39-.6-.17-.25-.38-.48-.43-.83-.01-.11.22-.3.52-.45.29-.15.67-.28.84-.2.3.14.64.25.86.45.2.23.37.48.49.79.16.35.46.59.69.89.24.34.48.68.71,1.03.15.21.29.42.45.62.24.3.46.63.76.87.23.19.57.26.83.42.06.03.13.05.18.09.19.15.1.35-.29.82l-.26.31c-.28.32-.67.57-.92.57-.36-.02-.69-.08-.95-.22-.25-.15-.46-.35-.65-.55-.29-.31-.54-.67-.8-1l.04-.04Z"/><path class="cls-1" d="M293.87,256.48c-.07-.18-.13-.36-.21-.54-.03-.06-.09-.09-.12-.16-.09-.23-.16-.48-.26-.69-.04-.1-.13-.16-.2-.23-.09-.09-.21-.16-.18-.37.01-.07.22-.26.46-.45.24-.18.52-.37.61-.35.34.04.45.29.5.61.02.2.2.26.29.39.11.14.2.3.3.45.06.09.12.19.18.28.1.13.17.3.3.4.1.08.27.09.41.13.03,0,.07,0,.1.02.09.06.03.16-.28.5l-.21.23c-.25.25-.48.43-.62.45-.39.07-.61-.05-.79-.21-.15-.1-.21-.3-.31-.45l.03-.03Z"/><path class="cls-1" d="M304.84,246.21c-.4-.59-.8-1.19-1.06-1.88-.1-.25-.23-.47-.3-.73-.23-.91-.36-1.82-.32-2.71,0-.39.03-.78.07-1.16.05-.49.18-.98.44-1.4.08-.13.16-.08.25.08.08.15.2.41.23.65.06.9.39,1.65.5,2.48.07.51.41.95.68,1.39.31.47.57.98.93,1.46.21.3.44.59.69.86.38.41.78.84,1.26,1.17.36.26.85.35,1.22.6.08.05.18.08.26.14.16.09.15.31.16.45,0,.16-.06.32-.16.52-.04.09-.08.18-.12.26-.14.26-.44.42-.85.51-.3.06-.49-.03-.74-.06-.23-.04-.46-.1-.65-.23-.39-.22-.75-.5-1.1-.81-.52-.46-.98-1-1.43-1.56l.04-.04Z"/><path class="cls-1" d="M223.24,263.63c.22-.9.43-1.73.48-2.53.01-.29-.04-.57-.06-.86-.06-1.02-.28-2.11-.79-3.09-.22-.44-.55-.82-.88-1.18-.43-.46-.91-.87-1.38-1.34-.15-.15-.05-.29.21-.39.26-.1.71-.16,1.11,0,1.44.59,2.57,1.84,3.1,3.3.31.87.68,1.77.8,2.73.12,1.06,0,2.07-.13,3.01-.09.57-.18,1.14-.27,1.71-.12.87-.33,1.74-.46,2.62-.1.68-.09,1.39-.19,2.1-.02.16-.02.32-.09.46-.22.55-.51.64-1.09.53-.13-.03-.27-.04-.39-.08-.41-.12-.71-.48-.78-.89-.15-.63-.05-1.16-.01-1.73.06-.56.15-1.13.24-1.72.12-.87.36-1.76.52-2.68h.06Z"/><path class="cls-1" d="M224.95,261.22c.14-.2.28-.41.38-.65.04-.08,0-.17.05-.26.16-.31.31-.65.36-1,.03-.16-.03-.29-.05-.44-.04-.18-.13-.35-.03-.6.03-.08.29-.19.59-.25.3-.07.67-.09.79.02.43.37.57.91.44,1.43-.08.31.07.61.07.92-.02.34-.1.67-.19,1-.05.2-.12.39-.18.59-.09.3-.24.57-.3.87-.06.23.02.51,0,.78,0,.06.02.13,0,.18-.06.2-.25.17-.86-.13l-.41-.21c-.46-.25-.81-.53-.9-.68-.26-.47-.3-.75-.16-1,.09-.19.23-.37.33-.58h.06Z"/><path class="cls-1" d="M223.82,267.64c-.43.32-.89.59-1.36.82-.17.09-.33.21-.51.27-.64.23-1.31.35-1.98.36-.29.01-.59.02-.88-.06-.19-.04-.37-.08-.54-.16-.09-.03-.17-.09-.25-.14-.08-.04-.15-.12-.18-.25-.04-.16-.04-.11.09-.2.16-.13.38-.31.54-.34.29-.04.55-.18.8-.23.25,0,.51,0,.81-.02.36,0,.67-.24.97-.42.34-.19.69-.43,1-.69.2-.16.39-.34.55-.53.25-.29.51-.6.66-.96.12-.28.12-.6.13-.9,0-.06-.02-.14,0-.2.06-.22.2-.26.72-.18l.35.05c.39.07.69.26.76.52.16.75-.07,1.5-.52,2.09-.32.45-.72.83-1.13,1.18l-.03-.03Z"/><path class="cls-1" d="M230.25,267.25c.03-.63.09-1.25.19-1.86.03-.22,0-.45.05-.67.16-.78.35-1.55.54-2.3.09-.33.15-.67.2-1.01.09-.42.05-.88.4-1.25.1-.12.29-.06.52.1.12.08.25.19.39.31.12.12.18.24.18.36,0,.85.04,1.67-.22,2.49-.15.49-.04,1.02-.04,1.53,0,.56,0,1.13,0,1.7,0,.35,0,.7.03,1.05.04.53.07,1.06.22,1.57.12.39.38.74.6,1.1.05.08.12.15.14.23.08.32-.06.47-.62.71l-.38.17c-.43.17-.84.15-1.09-.06-.74-.6-.89-1.46-1.04-2.29-.1-.62-.11-1.26-.12-1.89h.06Z"/><path class="cls-1" d="M231.74,266.51c-.24-.54-.34-1.09-.38-1.62-.02-.19-.09-.37-.08-.55.01-.66.11-1.28.2-1.88.04-.26.03-.53.03-.79,0-.33.04-.67.25-.98.07-.1.32-.05.59.06.27.11.59.29.66.46.05.15.11.31.14.46,0,.15.02.3.01.44,0,.3-.03.59-.09.9-.08.37.09.72.16,1.06.08.37.18.73.29,1.08.07.21.16.42.28.6.18.27.4.55.7.69.23.11.52.04.73-.03.05-.01.1-.05.14-.06.08-.02.12.04.15.17.03.15.06.35.09.63l.05.37c.02.2,0,.39-.05.57-.05.18-.16.4-.3.45-.87.39-1.84,0-2.49-.53-.5-.4-.87-.94-1.14-1.47l.05-.03Z"/><path class="cls-1" d="M230.08,270.43c.2-.34.41-.66.62-.98.07-.12.09-.26.17-.37.3-.4.62-.77.94-1.14.14-.16.24-.35.32-.54.13-.23.11-.56.55-.6.12-.02.43.19.75.48.16.14.33.3.48.46.16.16.25.29.22.35-.17.46-.35.89-.85,1.18-.29.19-.32.51-.47.77-.17.29-.34.58-.5.88-.1.18-.2.37-.28.56-.12.29-.26.58-.3.89-.03.24.09.51.15.76.01.06.05.11.05.17-.05.19-.22.22-.82.17l-.37-.03c-.37-.03-.83-.19-.96-.38-.41-.55-.29-1.07-.17-1.58.1-.37.27-.73.43-1.08l.05.02Z"/><path class="cls-1" d="M251.62,276.76c.09-1.2.55-2.02.92-2.72.14-.26.21-.52.34-.75.23-.42.45-.85.65-1.29.19-.44.38-.89.59-1.34.18-.4.25-.83.39-1.25.14-.54.33-1.08.53-1.63.06-.17.08-.15.16,0,.07.15.27.44.39.79.41,1.22.45,2.52-.09,3.65-.33.67-.46,1.42-.74,2.12-.31.75-.66,1.39-.79,1.99-.08.36-.09.69.02.99.16.46.58.94,1.14,1.17.43.2.96.12,1.46.15.11,0,.23-.01.34,0,.21.03.35.1.43.26.08.2.11.41.12.67,0,.12.02.23.02.33,0,.17-.06.32-.17.5-.11.17-.28.43-.46.46-1.08.4-2.51.16-3.74-.84-.44-.36-.84-.83-1.13-1.4-.3-.57-.43-1.25-.43-1.86h.06Z"/><path class="cls-1" d="M251.22,278.75c.04-.22.09-.43.15-.62.02-.07,0-.14.03-.21.11-.24.26-.45.4-.64.06-.08.09-.17.12-.27.04-.12.05-.27.23-.3.1-.02.92.66.95.71,0,.13-.01.22-.19.32-.11.06-.03.16-.04.24-.01.09-.03.19-.04.29,0,.06,0,.12,0,.18.02.09,0,.21.06.28.05.05.19.04.28.04.02,0,.05-.01.06,0,.05.01-.03.1-.33.44l-.2.23c-.23.26-.46.44-.59.45-.41.03-.66-.21-.8-.47-.13-.19-.13-.43-.13-.65h.04Z"/><g class="cls-3"><path class="cls-1" d="M241.6,148.93c4.08-1.8,8.25-3.41,12.55-4.68,1.56-.47,3.12-1,4.72-1.35,2.83-.63,5.71-1.07,8.64-1.22,2.92-.13,5.9-.02,8.81.71,2.59.65,5.22,1.77,7.22,3.75,1.28,1.25,2.29,2.84,2.8,4.57.25.87.43,1.76.43,2.66.05.45-.05.9-.12,1.34-.03.22-.15.43-.22.65-.1.21-.14.42-.28.62-.64.97-.64.74-1.1-.16-.23-.45-.7-1.05-1.08-1.65-.35-.61-.64-1.24-.88-1.92-.41-1.22-1.1-2.29-1.96-3.19-.83-.93-1.89-1.69-3.11-2.25-2.43-1.12-5.51-1.58-8.6-1.75-1.86-.1-3.79.07-5.71.4-1.93.31-3.84.78-5.74,1.26-4.19,1.06-8.31,2.49-12.35,4.14-2.48,1.03-4.94,2.13-7.35,3.34-3.65,1.82-7.27,3.79-10.67,5.99-2.66,1.7-5.11,3.59-7.53,5.53-.53.43-1.04.87-1.59,1.28-2.04,1.53-2.76,1.91-3.61,1.79-.19-.03-.41-.03-.57-.09-.5-.18,0-1.23,1.32-2.64,1.94-2.13,4.22-4,6.57-5.82,2.36-1.81,4.85-3.51,7.45-5.05,3.84-2.31,7.84-4.39,11.92-6.28l.04.07Z"/></g><path class="cls-1" d="M222.57,106.34c.22-.63.5-1.22.83-1.77.11-.2.16-.43.3-.62.48-.67,1.14-1.19,1.78-1.64.14-.11.27-.22.4-.32.13-.12.25-.24.4-.32.19-.11.36-.24.56-.34.21-.08.43-.12.68-.1.16.01.3.38.41.8.1.42.23.95.15,1.12l-.2.46c-.04.06-.06.15-.1.21-.05.05-.1.09-.16.13-.22.17-.47.33-.77.48-.37.19-.45.6-.66.92-.22.36-.44.74-.6,1.16-.1.25-.19.52-.23.79-.07.41-.13.84-.02,1.24.1.31.39.55.62.77.05.05.13.08.17.13.06.1.06.18-.07.3-.15.13-.37.28-.71.49l-.45.28c-.25.15-.5.25-.75.31-.24.05-.51.07-.65-.03-.89-.53-1.2-1.52-1.25-2.44-.05-.69.08-1.38.23-2.03h.07Z"/><path class="cls-1" d="M205,148.06c-.24-1.23-.35-2.47-.4-3.69,0-.45-.06-.89-.03-1.33.11-1.57.35-3.1.61-4.6.11-.67.25-1.33.38-1.98.17-.84.37-1.67.68-2.48.1-.25.19-.19.3.05.1.25.24.69.26,1.18.02.86.03,1.71.05,2.58-.03.84-.14,1.68-.24,2.52-.14,1.01.01,2.06.1,3.07.09,1.12.16,2.24.38,3.34.13.68.29,1.35.5,2.01.32.98.71,1.94,1.37,2.62.51.53,1.21.76,1.82.82.14.01.27,0,.39,0,.44-.03.56.24.81.84l.17.41c.18.44-.05.98-.77,1.21-1.04.19-2.14-.08-3.03-.63-.92-.56-1.6-1.38-2.08-2.2-.73-1.25-1.04-2.5-1.34-3.73l.06-.02Z"/><path class="cls-1" d="M206.07,153.26c-.08-.35-.14-.71-.19-1.05l-.12-.98c-.03-.24-.11-.46-.14-.69-.07-.84-.13-1.67-.16-2.49-.02-.37-.08-.72-.13-1.08-.1-.45-.1-.92,0-1.4.03-.15.17-.15.36-.05.18.09.48.27.63.51.27.42.33.87.48,1.3.12.44.23.88.25,1.34.03.56.28,1.08.43,1.62.17.58.32,1.21.5,1.75.11.34.23.68.39.99.23.47.48.95.87,1.24.29.24.69.24.96.19.05,0,.11-.02.17-.03.18.02.22.18.3.87l.06.47c.07.52-.09.97-.53,1.11-.32.09-.66.13-1.01.09-.33-.06-.65-.18-.93-.34-.57-.32-.99-.77-1.31-1.23-.48-.68-.75-1.41-.94-2.11l.05-.02Z"/><path class="cls-1" d="M206.07,147.33c-.26-1.21-.37-2.4-.42-3.58-.02-.43-.08-.86-.07-1.28.03-1.51.18-3,.38-4.47.09-.66.19-1.31.28-1.96.06-.42.13-.83.22-1.24.05-.42.35-.79.54-1.17.14-.23.19-.18.29.07.07.18.15.36.21.51.05.13.1.24.14.33.03.06.04.12.07.18,0,.06,0,.11-.01.17-.09.81-.15,1.63-.21,2.45-.07.82-.19,1.63-.3,2.46-.14.99-.03,2.03.03,3.04.07,1.11.18,2.21.41,3.29.14.66.31,1.31.57,1.91.37.92.91,1.78,1.68,2.24.61.34,1.28.35,1.93.2.14-.02.28-.08.42-.13.54-.13.74-.14,1.07.35.07.1.15.19.21.28.19.29.08.78-.43,1.06-.75.4-1.73.65-2.77.47-1.06-.15-2-.84-2.62-1.58-.92-1.13-1.37-2.39-1.67-3.6h.04Z"/><path class="cls-1" d="M207.51,172.53s10.11,1.07,13.79-1.67,8.96-9.21,8.96-9.21l2.15-4.12-15.11,8.8-7.15,3.42-2.64,2.78Z"/><path class="cls-1" d="M262.41,147.51l11.29,6.42s7.43,5.53,9.77,5.88-.09-5.88-.09-5.88c0,0-5.21-6.28-9.23-7.02s-11.75.61-11.75.61Z"/><path class="cls-1" d="M205.49,176.19s-1,7.03-4.91,10.73c-5.96,5.63-10.46,18.91-6.89,26.87,3.39,7.56,10.55,7.58,17.92,5.18,6.31-2.05,16.74.96,16.74.96l7.59-6.14,1.31-7.96-14.88-18.35s-4.41,2.92-7.26.27c-2.85-2.65-7.36-4.25-7.75-4.81s-1.89-6.75-1.89-6.75Z"/><path class="cls-1" d="M283.47,203.55s10.71,7.21,15.66,6.46c4.95-.75,6.99-6.46,6.99-6.46l2.33-7.67s-1.15-2.69,4.78-3.85c5.93-1.16,10.16-8.5,7.06-14.43-3.11-5.93-5.63-10.17-11.96-14.39-6.33-4.22-15.7-13.78-15.7-13.78l-3,4.41s4.4,1.11,5.95,3.68c1.56,2.57-1.11,8.56-1.11,8.56l-6.19,6.44.11,11.33-2.65,14.16-2.26,5.53Z"/><path class="cls-1" d="M355.28,396.96c.26.74.5,1.59.42,2.69-.05,1.1-.7,2.3-1.43,2.91-.72.65-1.41.94-2.03,1.25-.63.29-1.23.49-1.82.67-.6.17-1.13.34-1.77.45-.61.11-1.26.27-1.83.31l-1.76.2-1.73.12c-1.67.11-3.33.28-4.98.31-5.83.13-11.61.06-17.38.23-2.56.07-5.12.24-7.64.49-1.61.17-3.22.41-4.81.62l-1.2.11c-.4.04-.78.13-1.19.14l-1.21.08c-.39.04-.77.14-1.19.14-1.07-.08-.98-.11-.31-.87.16-.21.38-.4.64-.64.26-.24.56-.49.9-.71.67-.48,1.52-1,2.47-1.2,1.68-.51,3.39-.6,5.08-.85,1.69-.17,3.38-.33,5.07-.42,3.38-.21,6.75-.18,10.13-.12,4.04.09,8.23-.2,12.31-.4,2.24-.12,4.48-.25,6.63-.54l1.52-.29c.52-.14,1.05-.28,1.54-.45.5-.16.96-.35,1.37-.56.4-.22.72-.48.84-.68.14-.24.18-.42.06-.89-.05-.2-.15-.49-.27-.69-.11-.22-.24-.43-.4-.64-.61-.86-1.67-1.57-2.8-2.15-3.51-1.71-7.73-2.52-11.81-2.85-3.2-.25-6.37-.06-9.5.22-.69.07-1.37.09-2.06.13-.64.02-1.18.03-1.63.03-.45-.02-.82-.08-1.13-.14-.62-.1-1-.29-1.34-.51-.15-.1-.34-.17-.44-.25-.16-.14,0-.32.43-.68.43-.35,1.17-.74,2.13-1.11.73-.22,1.46-.42,2.2-.6.74-.2,1.49-.36,2.25-.43,1.51-.18,3.05-.29,4.6-.34,3.1-.1,6.25.07,9.44.52,2.36.35,4.74.86,7.14,1.78,1.19.48,2.39,1.09,3.55,1.93.58.42,1.16.91,1.69,1.52.27.27.51.64.75.98.23.34.4.77.58,1.16l-.08.05Z"/><path class="cls-1" d="M197.33,401.94c.97,1.36,2.83,2.68,4.8,3.66,1.99,1.02,4.18,1.78,6.41,2.41,1.63.45,3.32.72,4.99,1.03,5.9,1.03,12.09,1.33,17.92.01,2.6-.65,5.31-1.52,7.98-2.22,1.73-.44,3.47-.88,5.26-1.16.89-.13,1.8-.26,2.71-.27.46.01.92.02,1.37.05.46.05.92.22,1.37.35,1.12.41.94.48.02,1.07-.93.69-2.45,1.88-4.33,2.13-1.68.29-3.36.68-5.05,1.12-1.69.43-3.39.87-5.11,1.34l-2.6.7-1.41.34-1.41.26c-1.89.3-3.78.44-5.66.45-4.49.01-9.12-.12-13.61-.98-2.46-.48-4.9-1.13-7.28-2-2.37-.9-4.71-1.97-6.84-3.59-1.29-1-2.56-2.23-3.24-3.99-.38-.84-.48-1.84-.42-2.78.09-.47.13-.92.33-1.4.19-.47.46-.94.84-1.31.55-.58,1.24-.93,1.89-1.14.65-.22,1.3-.32,1.92-.37,1.25-.09,2.44,0,3.6.14,2.32.28,4.56.79,6.72,1.06.42.05.83.09,1.22.09.41,0,.84,0,1.26-.02.84-.04,1.68-.11,2.51-.23,1.66-.22,3.29-.6,4.92-1.03.71-.21,1.41-.42,2.13-.64,2.68-.78,3.6-.88,4.45-.19.19.15.42.28.55.44.43.5-.48,1.47-2.47,2.21-2.93,1.12-6.14,2.05-9.56,2.39-.85.09-1.71.14-2.57.17h-1.31c-.51,0-.96-.04-1.41-.09-1.75-.21-3.34-.52-4.91-.75-1.16-.17-2.3-.32-3.37-.37-1.05-.04-2.11.02-2.7.28-.29.14-.38.28-.41.37-.04.08-.07.26-.09.61-.04.58.17,1.15.68,1.81l-.07.06Z"/><path class="cls-1" d="M290.18,353.83c-1.57.81-3.03,1.61-4.96,2.29-.12.04-.25.08-.4.12-.19.06-.38.09-.58.12-.39.08-.79.04-1.17-.01l-.8-.19-.63-.17-2.49-.69c-3.29-.93-6.55-1.91-9.81-2.88-2.38-.71-4.78-1.33-7.16-2.06-8.36-2.58-16.7-5.2-25.02-7.9-1.85-.58-3.71-1.17-5.56-1.75-1.9-.58-3.79-1.17-5.67-1.75-.47-.13-.86-.35-1.28-.53-.23-.09-.35-.22-.53-.33-.08-.06-.17-.11-.25-.18-.04-.03-.09-.06-.12-.1l-.05-.16c-.23-.77.1-1.72.43-2.61.09-.26.14-.36.21-.52l.19-.44.39-.87c.27-.57.54-1.14.82-1.7,1.12-2.24,2.37-4.39,3.83-6.42,1.09-1.17,1.16-.87,1.1.58-.02.74-.19,1.69-.45,2.82-.25,1.13-.67,2.38-1.28,3.64-.54,1.12-1.06,2.25-1.52,3.35l-.25.6s0,0,0,0h0s0,.01,0,.01l.88.3,1.78.6,3.61,1.12c4.82,1.5,9.65,2.99,14.47,4.63,5.77,1.95,11.89,3.56,17.86,5.31l9.85,2.87,4.93,1.39,2.45.65c.5.11.58.18.78.13.05,0,.09-.02.14-.03.07-.02.16-.05.25-.07.17-.05.35-.13.53-.19,1.81-.75,3.67-1.77,5.48-2.79,1.82-1.03,3.62-2.1,5.4-3.2,5.41-3.34,10.8-6.8,15.96-10.44,2-1.42,3.95-2.88,5.83-4.38.29-.23.34-.28.46-.39l.31-.28c.1-.09.19-.18.28-.28.14-.09,0-.25-.1-.33-.2-.2-.42-.36-.61-.52l-.07-.06-.12-.1-.34-.3-.69-.6c-.82-.71-1.65-1.39-2.45-2.15-2.96-2.88-3.51-4.34-3.2-5.59.07-.29.13-.63.26-.84.49-.69,1.7.31,3.73,2.21,1.52,1.42,3.13,2.83,4.82,4.28l.32.28.47.42c.38.35.76.72,1.12,1.09.34.37.67.76.85,1.15.16.4.22.75.29,1.19l-.39,1.12c-.2.39-.56.75-.97,1.09-.4.35-.84.68-1.27,1.02l-.83.64c-3.67,2.79-7.47,5.39-11.33,7.96-5.75,3.79-11.56,7.47-17.69,10.85l-.05-.07Z"/><path class="cls-1" d="M368.92,351.46c.74-2.1,1.23-4.25,1.32-6.38.1-2.13-.3-4.2-1.06-6.14-.8-1.92-1.96-3.79-3.63-5.25l-.58-.58-.66-.52-1.31-1.04c-.93-.61-1.91-1.26-2.85-1.8-2.69-1.4-6.02-1.76-9.32-1.65-2.93.06-5.89.5-8.83,1.1-2.94.61-5.86,1.37-8.75,2.28-5.79,1.78-11.47,3.99-17.03,6.49-4.94,2.2-9.78,4.71-14.45,7.36-3.01,1.69-5.93,3.53-8.87,5.33-2.96,1.78-5.85,3.63-8.75,5.5-1.92,1.03-1.62.99-.52-.57.55-.78,1.43-1.78,2.53-2.98,1.12-1.16,2.53-2.41,4.16-3.61.73-.52,1.44-1.07,2.19-1.57.76-.48,1.5-.97,2.27-1.44,1.52-.95,3.06-1.86,4.6-2.76,3.09-1.8,6.25-3.46,9.46-5.06,6.4-3.19,13.02-6.02,19.87-8.31,4.1-1.36,8.33-2.63,12.7-3.58,4.36-.91,8.89-1.61,13.51-1.11,2.5.27,5.14.96,7.37,2.33l1.58,1.01c.26.17.53.33.79.51l.74.58,1.48,1.17c.47.43.91.89,1.36,1.34,1.74,1.84,3.37,3.93,4.24,6.41.95,2.44,1.18,5.1.96,7.64-.28,3.14-1.24,6.11-2.46,8.89-.61,1.39-1.3,2.73-2.03,4.06-.78,1.36-1.68,2.61-2.65,3.79-2.95,3.55-6.42,6.52-9.97,9.31-3.57,2.78-7.27,5.33-11,7.78-5.83,3.78-11.55,7.42-17.7,10.65-.35.18-.68.35-1.06.52l-.28.13-.36.14-.58.19c-.74.25-1.5.46-2.26.64-2.86.65-4.55.86-5.77,1.05-1.22.17-1.97.2-2.69.03-.33-.07-.74-.09-.97-.2-.39-.18-.15-.65.73-1.33.86-.67,2.45-1.5,4.53-2.06,1.54-.39,2.99-.71,4.39-1.12.35-.11.7-.21,1.04-.33.16-.06.37-.12.49-.17l.37-.17c.62-.3,1.31-.66,1.97-1.02,2.69-1.46,5.41-3.02,8.11-4.63,5.4-3.23,10.81-6.62,15.94-10.36,3.81-2.77,7.51-5.72,10.71-9.02,1.59-1.64,3.04-3.41,4.09-5.27,1.1-2.01,2.08-4.11,2.81-6.23l.08.02Z"/><path class="cls-1" d="M204.33,387.6c-3.63-2.28-7.16-4.76-10.52-7.5-1.68-1.37-3.31-2.82-4.87-4.36-1.58-1.52-3.05-3.19-4.41-4.96-2.7-3.53-4.89-7.82-5.35-12.6-.38-4.76.9-9.4,3.24-13.39.41-.74.92-1.42,1.4-2.12.54-.66,1.04-1.35,1.65-1.95,1.15-1.26,2.48-2.36,3.92-3.31l1.1-.68,1.16-.58.59-.29c.24-.09.49-.19.73-.28.49-.15.99-.27,1.47-.34,1.95-.27,3.6,0,5.04.08.64.05,1.24.07,1.81.05.29,0,.57-.03.83-.06.21-.03.44-.07.69-.14,1.02-.28,2.22-.88,3.63-1.41.71-.26,1.49-.51,2.36-.65.44-.07.89-.1,1.37-.09l1.06.07,4.17.29c5.52.61,10.93,1.71,16.25,3.05,10.62,2.79,20.88,6.6,30.87,10.99,4.44,1.93,8.82,4,13.16,6.18,2.17,1.09,4.32,2.22,6.44,3.42,2.11,1.22,4.19,2.49,6.18,3.86,10.25,7.02,19.57,15.65,26.39,26.03.88,1.75,1.22,2.52,1.1,2.55-.13.03-.78-.66-2.09-1.7-2.57-2.1-7.05-6.01-12.12-10.72-4.42-4.26-9.12-8.22-14.1-11.74-2.49-1.77-5.04-3.43-7.67-4.95-2.64-1.51-5.41-2.93-8.17-4.32-11.13-5.47-22.65-10.35-34.55-14.11-7.11-2.24-14.56-3.97-22.1-4.69l-2.83-.16-1.41-.08c-.22,0-.51-.04-.67-.03-.15,0-.31,0-.48.03-.67.08-1.45.36-2.29.71-.84.35-1.74.78-2.8,1.15-2.38.85-4.63.55-6.52.45-.95-.07-1.82-.11-2.59-.05-.37.05-.74.09-1.05.2-.17.04-.31.11-.47.16l-.57.28c-6.87,3.23-11.24,11.65-10.07,19.23.62,3.8,2.63,7.42,5.2,10.58,2.55,3.2,5.67,6,8.94,8.58,8.14,6.31,17.33,11.35,26.64,15.95,7.08,3.46,14.33,6.66,21.63,9.69,7.31,3.04,14.64,5.99,21.98,8.76,2.85,1.08,5.71,2.11,8.56,3.11,1.43.5,2.85.98,4.28,1.43,1.42.45,2.88.91,4.22,1.21.34.07.44.1.64.06l.26-.09.39-.19c.55-.3,1.11-.68,1.66-1.12,1.1-.87,2.15-1.89,3.17-2.95,2.04-2.12,3.98-4.4,5.92-6.7,1.7-2.05,3.36-4.05,5.08-6.11,6.46-7.61,9.16-9.65,11.42-10.34.51-.16,1.16-.39,1.52-.4,1.21.04-1.53,2.86-6.16,8.37-3.47,4.06-6.83,8.36-10.44,12.62-1.81,2.13-3.66,4.26-5.76,6.31-1.06,1.02-2.17,2.03-3.54,2.96-.33.23-.73.45-1.12.67l-.66.31c-.25.12-.63.19-.93.28-.32.13-.66.07-.99.1h-.5c-.16-.01-.31-.05-.47-.08l-.65-.14-.55-.15c-2.9-.79-5.53-1.73-8.24-2.67-2.69-.95-5.37-1.93-8.04-2.94-5.34-2.01-10.67-4.11-15.98-6.26-15.76-6.39-31.61-13.18-46.35-22.28l.03-.09Z"/><path class="cls-1" d="M312.91,191.12c1.03-.16,1.88-.1,2.56-.08.69.03,1.26.04,1.81,0,1.12-.09,2.12-.35,2.98-.85.85-.51,1.58-1.26,2.14-2.18.53-.94.89-2.04,1.04-3.2.21-1.71-.1-3.46-.65-5.17-.96-3.04-2.98-5.85-5.38-8.25-2.39-2.43-5.32-4.38-8.34-6.31-2.69-1.71-5.47-3.42-8.04-5.4-.82-.64-1.65-1.27-2.42-1.97-.8-.68-1.57-1.37-2.27-2.15-1.45-1.5-2.64-3.24-3.63-5.07-.51-1.22-.37-1.09.69-.56.54.26,1.22.68,2.03,1.17.42.24.88.47,1.31.78.43.31.83.67,1.26,1.03.38.32.77.64,1.14.97.36.35.72.68,1.1,1,.75.65,1.5,1.29,2.3,1.88,1.56,1.22,3.22,2.33,4.93,3.42,3.39,2.2,7.14,4.26,10.46,7.21,1.97,1.76,3.88,3.67,5.49,5.91,1.61,2.22,2.93,4.8,3.46,7.62.56,3.08.26,6.47-1.5,9.33-.85,1.42-2.12,2.65-3.6,3.45-1.49.82-3.13,1.18-4.69,1.26-.96.06-1.9,0-2.65,0-.76.01-1.3.11-1.83.4-.53.29-1.07.77-1.57,1.36-.45.53-.78,1.12-1.04,1.83-.77,2.17-.84,5-2.07,7.69-.6,1.33-1.56,2.58-2.67,3.49-.56.43-1.05.93-1.69,1.28l-.92.57c-.31.18-.66.3-1,.45-2.09.92-4.56,1.04-6.73.48-2.18-.55-4.09-1.58-5.86-2.68-.77-.49-1.54-.95-2.26-1.49-1.36-.98-2.17-1.7-2.63-2.33-.48-.62-.61-1.15-.6-1.76,0-.27-.05-.57,0-.78.09-.69,1.71-.55,3.8.69,1.53.94,3.03,1.89,4.53,2.72,1.49.82,2.99,1.51,4.38,1.81,1.39.33,2.62.27,3.86-.22.62-.21,1.24-.62,1.86-1.02l.91-.73c.3-.25.49-.46.71-.71.61-.73,1.06-1.62,1.38-2.75.3-1.13.47-2.48.77-4,.3-1.49.84-3.37,2.11-4.98.56-.66,1.14-1.34,1.98-1.97.82-.63,1.94-1.13,3-1.3l.03.1Z"/><path class="cls-1" d="M200.82,225.06c-3.17-.07-6.38-1.26-8.74-3.33-1.19-1.02-2.21-2.21-3.04-3.53-.42-.66-.77-1.36-1.08-2.1-.15-.37-.28-.76-.4-1.16-.1-.41-.21-.84-.25-1.18-.37-2.09-.54-4.23-.4-6.35.36-3.74,1.5-7.33,3.14-10.56,1.65-3.23,3.68-6.18,5.84-8.96l2.91-3.67c1.01-1.24,1.89-2.33,2.54-3.57.44-.78.78-1.6,1.04-2.45.27-.85.37-1.75.58-2.67.18-.92.32-1.88.47-2.85.14-.97.37-1.95.6-2.93.43-1.21.35-1.04.73.01.22.6.49,1.34.8,2.18.29.91.55,1.97.63,3.19.02.54.06,1.09.02,1.65-.05.55-.14,1.12-.25,1.68-.21,1.14-.6,2.28-1.08,3.35-.47,1.09-1.15,2.04-1.83,2.93l-.52.66-.48.57-.95,1.14c-2.51,3.05-4.93,6.12-6.97,9.41-2.46,3.94-3.82,8.63-3.73,13.23.04.63.05,1.27.11,1.9l.26,1.88c.21,1.04.72,2.16,1.39,3.16,1.33,2.02,3.32,3.61,5.6,4.38,1.41.47,2.92.64,4.44.5,1.42-.12,2.84-.73,4.3-1.48,1.11-.56,2.24-1.19,3.49-1.72,1.24-.53,2.66-.93,4.15-.91,2.77.06,5.27.84,7.65,1.16,1.84.26,3.66.18,5.29-.35.82-.26,1.61-.61,2.34-1.07.74-.43,1.41-.96,2.01-1.54.55-.5.95-1.09,1.37-1.66.72-1.1,1.03-1.84,1.35-2.35.3-.52.71-.81,1.25-1.1.25-.13.49-.33.72-.43.39-.17.74.06,1.05.77.3.7.33,1.89-.17,3.24-.72,2-2.04,3.73-3.66,5.06-1.62,1.34-3.54,2.33-5.65,2.85-2.14.56-4.32.51-6.33.23-2-.29-3.76-.76-5.38-1-.6-.1-1.19-.15-1.76-.18-.43,0-.87,0-1.35.13-.96.19-2.05.71-3.22,1.29-1.17.59-2.46,1.29-3.95,1.85-.75.27-1.55.52-2.42.65-.44.08-.85.11-1.24.12-.4.01-.8.05-1.2.04v-.09Z"/><path class="cls-1" d="M296.47,156.59c.17.46.32.92.46,1.38l.24,1.34c.03.45.06.91.07,1.36-.03.45-.03.89-.1,1.33-.05.31-.08.63-.12.94-.05.31-.12.61-.21.91-.34,1.05-.79,2.02-1.35,2.91-.53.91-1.18,1.72-1.88,2.47-.6.68-1.23,1.32-1.88,1.94-.44.37-.85.79-1.37,1.07-.24.16-.52.27-.79.39-.14.06-.27.11-.42.15-.15.03-.34-.03-.5-.03-.41-.05-.35-.07-.22-.46.1-.48.26-1.16.65-1.56.33-.39.68-.73,1.03-1.09.33-.37.67-.74.98-1.13.64-.77,1.21-1.58,1.83-2.39.74-.98,1.03-2.24,1.23-3.4.24-1.29.16-2.57-.22-3.82-.25-.73-.6-1.39-1.11-1.9-.79-.73-1.93-1.2-3.23-1.35-1.01-.11-2.05.09-3.19.14-.26,0-.51,0-.77-.02-.24-.04-.45-.1-.62-.17-.16-.09-.27-.25-.37-.39-.18-.29-.23-.58-.23-.93,0-.16,0-.31.01-.45.03-.23.17-.41.38-.61.22-.2.46-.44.78-.62.42-.1.87-.29,1.33-.33.46-.06.96-.1,1.48-.12,1.04-.03,2.21.04,3.48.39.46.1.94.36,1.4.57.46.29.93.53,1.34.92.87.69,1.48,1.63,1.95,2.54l-.07.04Z"/><path class="cls-1" d="M207.62,177.45c0,1.5.29,2.99,1.12,4.32.32.47.71.89,1.12,1.31,1.34,1.56,3.25,2.77,5.34,3.47.93.28,1.92.46,2.89.41.62.02,1.23-.12,1.83-.19.3-.05.61,0,.93,0,.08.02.15-.02.24.02l.28.12c.18.07.35.05.52.08.44.06.51.33.31.88-.09.3-.28.57-.47,1.22-.1.3-.27.43-.44.61-.17.17-.37.31-.59.42-1.6.41-3.27.41-4.86.15-1.6-.26-3.09-.96-4.42-1.82-1.57-1.06-3.27-2.07-4.53-3.6-1.37-1.65-2.29-3.77-2.5-5.88l-.1-.97c0-.33.03-.67.04-1-.01-.66.19-1.33.34-1.99.16-.49.41-.97.64-1.43.32-.41.58-.88.97-1.22.37-.36.75-.71,1.18-.97.41-.31.85-.52,1.28-.74,1.36-.65,2.75-1.16,4.25-1.36.33-.06.66-.09,1-.1.64.02,1.07.11,1.37.34.15.11.23.22.31.4.07.21.08.44.07.64-.01.19-.01.35-.05.46-.06.21-.26.34-.49.65-.05.06-.12.2-.15.21-.06.04-.12.08-.19.11-.14.07-.24.1-.42.14-1.99.4-4.2,1.01-5.45,2.08-.86.81-1.34,1.79-1.29,3.25h-.08Z"/><path class="cls-1" d="M218.05,170.49c1.44-.49,2.9-1.22,4.26-2.09.5-.32.93-.72,1.4-1.07,1.67-1.23,3.24-2.65,4.59-4.3.6-.73,1.1-1.55,1.56-2.37.57-1.08,1.07-2.17,2.08-3.06.3-.29.4-.19.53.24.07.21.16.51.26.88.04.18.11.38.11.57,0,.18-.02.37-.08.55-.15.66-.44,1.25-.75,1.83-.31.58-.64,1.16-1,1.72-.72,1.12-1.57,2.17-2.54,3.11-1.18,1.1-2.28,2.35-3.58,3.37-1.43,1.1-2.96,2.04-4.6,2.82-1.01.47-2.07.86-3.17,1.15-1.67.43-3.39.51-5.03.53-1.28.02-2.55.16-3.81.09-.28-.01-.55,0-.82-.03-1.02-.09-1.28-.49-1.39-1.22-.02-.17-.06-.35-.07-.51-.02-.55.47-.98,1.23-1.16,1.11-.13,2.22-.27,3.28-.24,1.07.02,2.11.04,3.13-.01,1.52-.07,2.93-.3,4.37-.85l.03.07Z"/><path class="cls-1" d="M220.6,104.43c.74-1.28,1.99-2.45,3.34-3.07.49-.24.96-.51,1.5-.63,1.87-.36,3.86.11,5.29,1.13.65.42,1.21.96,1.7,1.51.31.37.56.78.74,1.23.08.23.06.5.06.75,0,.25-.05.5-.16.76-.15.32-.13.26-.46.14-.34-.12-1.13-.2-1.64-.28-.32-.16-.57-.3-.84-.42-.23-.15-.45-.28-.67-.4-.41-.27-.76-.63-1.23-.91-.6-.38-1.35-.09-1.99.1-.75.22-1.43.6-1.97,1.25-.33.4-.62.89-.83,1.45-.31.83-.57,1.79-.58,2.75,0,.75.26,1.47.48,2.16.05.15.14.3.13.46.02.59-.2.81-1.01,1.11-.18.07-.35.14-.52.2-.56.18-1.22.03-1.58-.44-.62-.69-.8-1.52-.97-2.35-.14-.84-.14-1.71-.06-2.57.12-1.27.48-2.64,1.19-3.97l.08.04Z"/><path class="cls-1" d="M282.56,205.18c-2.15,2.94-4.91,5.54-8.19,7.25-1.61.91-3.36,1.5-5.11,1.99-.89.16-1.78.43-2.66.5l-2.63.28c-1.27.2-2.57.12-3.86.16-.64,0-1.29.04-1.93-.02l-1.92-.22c-4.49-.58-8.9-1.88-12.86-4.01-3.98-2.08-7.61-4.74-10.83-7.81-2.84-2.74-5.36-5.8-7.61-9-2.78-4.15-5.25-8.7-6.08-13.68-.23-1.56.07-1.4.99-.34.44.54,1.18,1.25,1.72,2.2.64.92,1.34,1.99,1.92,3.23,4.29,8.66,10.63,16.37,18.89,21.58,4.94,3.1,10.95,4.91,16.89,5.03,1.63-.02,3.28.09,4.9-.18l2.45-.27c.78-.19,1.58-.29,2.34-.55.77-.23,1.53-.46,2.26-.8.75-.28,1.44-.69,2.15-1.06,1.36-.83,2.67-1.77,3.79-2.93,1.4-1.39,2.64-2.98,3.66-4.71,1.02-1.73,1.85-3.58,2.57-5.49,2.08-5.81,2.89-12.14,2.8-18.34-.07-4.83-.82-9.54-1.85-14.19-.21-1.03-.52-2.01-.75-3.04-.4-1.91-.66-3.18-.71-4.11-.03-.93.07-1.51.31-2.03.11-.24.19-.53.31-.69.2-.27.53-.04.99.58.23.31.49.72.78,1.23.28.51.53,1.13.8,1.82.81,2.07,1.42,4.24,1.89,6.46.49,2.22.88,4.49,1.14,6.79.55,4.6.64,9.34.21,14.08-.33,3.52-.95,7.04-1.99,10.49-1.05,3.44-2.59,6.8-4.7,9.82l-.07-.04Z"/><path class="cls-1" d="M211.48,120.94c3.27-4.19,7.28-7.79,11.83-10.52.81-.54,1.66-.97,2.5-1.45.83-.49,1.7-.89,2.57-1.27,6.18-2.71,12.91-4.12,19.64-3.99,2.98.03,6,.38,8.89,1.16l1.4.38,1.36.5c.45.17.91.33,1.36.52l1.3.66c.43.24.88.43,1.28.71l1.17.88c.38.31.78.58,1.11.94.34.36.6.79.9,1.17.69,1.01.36,1.06-.79.91-.57-.08-1.4-.11-2.18-.36-.84-.17-1.73-.43-2.57-.87-3.04-1.57-6.44-2.34-9.9-2.81-3.48-.45-7.08-.41-10.7.02-4.34.53-8.69,2.13-12.69,4.14-4.4,2.2-8.39,5.15-11.73,8.82-.54.54-1.02,1.13-1.49,1.73-.47.6-.97,1.18-1.42,1.8-.83,1.28-1.76,2.5-2.45,3.87-2.26,4.03-3.93,8.47-4.53,13.03l-.18,1.32-.04,1.33-.03,1.32v.66s.05.66.05.66l.24,2.61.5,2.56.11.56.17.54c.11.36.22.72.33,1.09.09.34.18.66.26.95.07.29.1.57.19.8.14.48.23.87.28,1.21.05.34.06.62.02.87-.06.26-.15.5-.24.71-.09.2-.13.43-.2.56-.16.4-1.33-.41-2.38-2.48-.4-.76-.63-1.59-.94-2.4l-.43-1.24-.29-1.28c-.17-.86-.41-1.72-.51-2.6-.08-.89-.17-1.78-.25-2.67-.12-3.58.27-7.23,1.22-10.74,1.36-5.23,3.94-10.09,7.18-14.36l.07.05Z"/><path class="cls-1" d="M193.67,275.17c.56-1.27,1.1-2.54,1.69-3.78.21-.46.34-.94.55-1.39.77-1.59,1.55-3.16,2.26-4.77.33-.71.57-1.45.8-2.18l.2-.71c.08-.23.19-.46.3-.68.19-.46.48-.89.8-1.31.21-.26.38-.18.61.16.12.17.27.4.42.68.16.28.29.6.28.9v.81c0,.27-.09.51-.14.77-.11.51-.25,1-.4,1.5-.28.99-.7,1.94-1.21,2.85-.6,1.1-.89,2.35-1.34,3.51-.49,1.29-1.05,2.54-1.57,3.81-.32.78-.65,1.56-.94,2.34-.45,1.19-.91,2.39-1.21,3.61-.23.95-.26,1.93-.34,2.89-.02.21,0,.43-.04.64-.06.39-.14.64-.34.78-.24.14-.54.19-.93.19-.18,0-.36.02-.52.01-.28-.01-.51-.12-.74-.32-.22-.2-.45-.48-.45-.79-.18-1.88.23-3.76.78-5.58.4-1.35.92-2.67,1.41-3.97l.07.02Z"/><path class="cls-1" d="M325.88,316.17c2.96,3.19,6.6,5.76,10.69,6.28,1.47.14,3.08.03,4.27-.35,2.22-.64,3.9-2.79,4.89-5.36,1-2.57,1.54-5.45,1.78-8.35.23-2.58.13-5.22-.11-7.79-.16-1.66-.3-3.32-.5-4.98-.2-1.66-.4-3.31-.41-5.01-.02-1.06.18-1,.88-.24.33.38.86.92,1.3,1.63.22.35.47.74.67,1.17.18.43.34.89.46,1.38.41,1.74.78,3.48,1.01,5.25.15,1.78.23,3.56.22,5.36-.04,3.58-.39,7.24-1.58,10.81-.71,2.12-1.64,4.31-3.2,6.25-.78.96-1.79,1.81-2.91,2.44-1.13.65-2.43.95-3.64,1.09-2.58.24-5.21-.17-7.58-1.11-2.37-.94-4.48-2.35-6.33-3.95-2.27-2-4.19-4.29-5.93-6.66-2.62-3.61-4.78-7.5-6.83-11.36-1.59-3-3.21-5.91-4.73-8.89-.34-.65-.69-1.28-1.01-1.94-.3-.61-.54-1.13-.72-1.56-.17-.44-.26-.82-.32-1.14-.13-.64-.05-1.08.13-1.51.08-.19.12-.41.2-.54.19-.41,1.35.27,2.5,1.97,3.14,5.16,5.85,10.77,9.01,16.07,2.3,3.94,4.8,7.8,7.86,10.99l-.06.06Z"/><path class="cls-1" d="M283.15,258.03l.29-.16c.09-.05.06-.03.09-.05l.11-.05c.1-.03.12-.08.11-.13,0-.06.01.04-.03-.25l-.06-.56c0-.21,0-.42,0-.62.04-.82.32-1.58.8-2.18.46-.61,1.15-1.06,1.9-1.18.75-.12,1.56.01,2.34.29.17.07.43.15.54.2l.35.15c.09.05.09.05.14.08.04.02.08.05.13.06.04-.01.08-.04.12-.07l.08-.06.26-.21.25-.21c.07-.05.16-.12.12-.21-.01-.05-.03-.1-.05-.14l-.1-.21-.57-1.15-.3-.63c-.15-.34-.29-.69-.42-1.03-.25-.69-.41-1.39-.4-2.02.01-.44.09-.85.26-1.23.17-.38.48-.75.85-.97.73-.42,1.52-.63,2.38-.54.43.03.87.16,1.3.29.42.18.9.37,1.25.57l.47.32c.15.09.4.27.54.09.23-.17.26-.48.23-.77l-.06-.49c-.06-.44-.13-.97-.01-1.62.11-.62.48-1.35.97-1.73.09-.1.27-.24.48-.35.19-.1.39-.18.56-.21.37-.1.64-.09.9-.09l.35.02.25.02c.11.01.18.02.28.02.18,0,.39-.03.48-.2l.28-.48c.16-.28.3-.57.45-.86.3-.57.57-1.16.84-1.75.52-1.18,1-2.38,1.41-3.59.53-1.55.88-3.16,1.24-4.75.2-.79.37-1.6.53-2.41l.22-1.22c.06-.41.24-.82.3-1.23.22-1.03.36-.92.76-.02.19.45.6,1.11.77,1.92.21.81.37,1.78.34,2.82,0,.46-.04.92-.09,1.38-.07.45-.16.9-.25,1.35-.19.89-.41,1.78-.66,2.65-.51,1.75-1.13,3.46-1.94,5.08-.2.41-.4.81-.61,1.21l-.32.6-.38.69c-.38.78-.85,1.4-1.6,1.73-.7.33-1.6.31-2.32.25l-.41-.03s-.02,0-.03,0c0,0,0,.03-.03-.1,0-.07-.02-.13-.03-.2-.08-.31-.11-.42-.19-.56,0-.03-.03-.06-.05-.08h0s0-.01,0-.01c.28.34-.63-.77.62.76h0s0,0,0,0h0s0,0,0,0c-.02-.02-.14-.1-.12-.1-.02-.02-.04-.04-.08-.06.04.02.13.06.18.06.04,0-.05.19,0,.52,0,.04.04.27.07.46l.1.57c.04.37.09.75.08,1.09,0,.61-.11,1.14-.33,1.63-.09.25-.25.48-.38.71-.18.2-.36.41-.56.61l-.24.17-.06.04c-.07-.07-.06,0-.09,0l-.13.06c-.18.07-.35.14-.51.16-.32.08-.69,0-1.06-.08-.76-.2-1.61-.73-2.43-1.19-.26-.14-.35-.18-.55-.23-.17-.04-.37-.04-.53.05-.21.08-.19.35-.15.52.04.2.11.37.19.58l.42.94.49,1.07c.24.54.47,1.08.51,1.62.08.56-.21,1.02-.58,1.45l-.55.55c-.19.18-.4.37-.51.47l-1.07.86c-.21.16-.43.29-.64.36l-.08.03-.04.02h-.01s0,0,0,0h0c.01.06-.02-.08-.02-.07h-.02c-.06.03-.12.05-.18.06-.12.04-.24.02-.36.01-.48-.06-.97-.32-1.45-.53l-.43-.19-.19-.08c-.12-.05-.26-.09-.4-.1-.29-.06-.55.16-.65.42-.05.13-.07.27-.07.42,0,.07,0,.14.02.22l.11.55c.1.55.18,1.07-.03,1.54-.35.37-.82.62-1.22.94-.2.14-.43.32-.61.43l-.48.27-.96.54c-1.3.69-2.61,1.35-3.96,1.94-4.06,1.83-8.38,3.08-12.71,3.89-3.37.63-6.74,1.07-10.16,1.08-.75.03-1.49,0-2.25-.03-.7-.05-1.29-.08-1.77-.17-.48-.1-.86-.23-1.17-.36-.62-.26-.95-.57-1.18-.99-.1-.19-.25-.39-.3-.57-.16-.6,1.03-.95,2.98-.95,2.9.03,5.84-.03,8.8-.32,2.96-.29,5.92-.84,8.84-1.63,2.16-.6,4.3-1.3,6.38-2.18,2.07-.88,4.1-1.89,6.04-3.04l.04.06Z"/><path class="cls-1" d="M205.38,236.86l-.64-1.5c-.07-.16-.29-.7-.46-1.15-.19-.46-.33-.9-.47-1.35,0-.4.13-.76.19-1.08l.05-.23.02-.06v-.03s.01-.02.01-.02c.16.08-.21-.11-.17-.09h0s0-.01,0-.01l.08-.12.16-.23.23-.18c.28-.26.71-.42,1.07-.62.43-.16.89-.24,1.31-.42.18-.15.46-.2.62-.27l.41-.09.81-.15,1.6-.26c1.06-.17,2.11-.29,3.17-.41,1.54-.17,3.06-.43,4.59-.56,5.41-.46,10.8-.74,16.2-1.06,2.39-.14,4.79-.37,7.16-.6,1.52-.14,3.04-.37,4.57-.44.77-.02,1.53-.13,2.3-.01.78.18,1.54.13,2.32.42.5.33.71.47.7.53,0,.06-.24.1-.62.5-.38.41-.93.75-1.59,1.21-.33.2-.69.53-1.07.69-.39.13-.8.24-1.24.29-1.54.23-3.09.33-4.64.43l-4.66.27c-3.11.16-6.23.26-9.37.31-3.75.06-7.62.6-11.42.99-2.09.21-4.17.46-6.23.72l-1.53.23c-.25.04-.5.08-.75.13-.17.03-.25,0-.37.04-.22.05-.45.1-.66.21-.09.07.02.2.03.3l.11.33c.06.15.08.23.17.45l.38.88c.26.58.53,1.16.8,1.74.56,1.15,1.15,2.28,1.78,3.4,1.91,3.37,4.09,6.63,6.69,9.45,2.02,2.19,4.35,3.97,6.77,5.5.54.33,1.08.63,1.63.94,1.01.59,1.69.94,2.11,1.34.42.39.61.75.7,1.22.04.21.13.43.13.62,0,.31-.26.48-.79.53-.26.02-.59.02-.97-.02-.38-.04-.78-.19-1.24-.35-2.68-1-5.23-2.56-7.45-4.51-2.24-1.93-4.22-4.16-6-6.51-2.63-3.52-4.81-7.32-6.65-11.28l.07-.04Z"/><path class="cls-1" d="M208.28,262.69c-1.83-1.84-3.59-3.74-5.19-5.78-.58-.75-1.23-1.43-1.78-2.21-1.93-2.72-3.64-5.61-4.94-8.68-.6-1.35-1.19-2.72-1.66-4.12-.13-.46-.26-.91-.36-1.38-.12-.46-.21-.93-.26-1.41-.07-.47-.03-.97,0-1.45.01-.48.1-.96.17-1.43.11-.59.2-.5.47-.02.14.24.32.56.57.94.27.38.54.8.79,1.25.34.82.66,1.63,1.06,2.41.36.8.66,1.61,1.04,2.41.73,1.6,1.56,3.19,2.41,4.81.97,1.97,2.47,3.72,3.87,5.47,1.56,1.92,3.17,3.81,4.9,5.61,1.06,1.11,2.17,2.18,3.31,3.2,1.74,1.54,3.55,3.03,5.5,4.26,1.52.95,3.14,1.65,4.75,2.29.36.13.72.24,1.07.39.67.2,1.01.61,1.27.85.12.14.21.29.26.45.05.18.07.38.09.57.02.17.06.34.07.46.05.33-.79.9-1.98.76-.9-.06-1.69-.4-2.53-.67-.82-.31-1.62-.66-2.41-1.06-1.57-.8-3.08-1.75-4.52-2.77-2.14-1.53-4.13-3.26-6.04-5.05l.05-.06Z"/><path class="cls-1" d="M275.75,279.2c-1.05.31-2.11.58-3.18.83-1.06.27-2.14.48-3.21.7-.78.17-1.55.39-2.34.49-2.79.41-5.62.56-8.45.5-.63-.03-1.25.02-1.88-.02-.63-.05-1.26-.09-1.88-.14-1.6-.13-3.26-.47-4.63-1.47-.36-.49-.3-.41.23-.72.55-.36,1.39-.74,2.21-.76l1.13-.08c.37-.03.72.04,1.09.02.74-.03,1.48-.03,2.21-.03.75.01,1.49.04,2.25.09.76.02,1.53.01,2.3.05,1.86.04,3.75-.44,5.62-.8l3.09-.63,3.07-.76c1.24-.37,2.51-.7,3.73-1.15.93-.32,1.87-.65,2.78-1.02.92-.35,1.82-.76,2.69-1.21.68-.33,1.31-.75,1.93-1.17.63-.41,1.22-.86,1.8-1.32.26-.2.5-.41.77-.59.95-.72,1.4-.72,2.15-.16.17.12.35.23.48.35.45.39.44,1.24-.25,1.97-2.05,2.11-4.71,3.59-7.43,4.81-2.03.89-4.12,1.64-6.24,2.3l-.03-.08Z"/><path class="cls-1" d="M311.57,241.17c.52-1.2.98-2.44,1.35-3.71.15-.46.19-.94.32-1.41.24-.82.44-1.65.64-2.49.2-.83.43-1.67.56-2.53.06-.38.11-.76.13-1.14.01-.38.03-.76.06-1.14.04-.49.01-.97.04-1.46.04-.49.17-.98.31-1.49.1-.32.13-.29.35-.05.17.17.35.35.5.5.23.21.46.47.57.76.67,2.09.6,4.25.14,6.31-.3,1.23-.41,2.54-.68,3.8-.16.69-.35,1.37-.54,2.05-.22.67-.42,1.35-.65,2.02-.3.82-.59,1.64-.93,2.44-.48,1.23-1.1,2.41-1.66,3.6-.45.92-.75,1.93-1.32,2.83-.12.2-.2.42-.35.61-.57.68-.92.76-1.6.35-.15-.09-.31-.18-.45-.28-.47-.36-.62-.95-.43-1.47.15-.38.28-.78.42-1.17.16-.38.29-.77.46-1.15.37-.75.75-1.5,1.12-2.25.53-1.16,1.11-2.33,1.55-3.56l.07.02Z"/><path class="cls-1" d="M275.87,233.52c.44.02,1.02-.06,1.45-.22.45-.16.86-.41,1.23-.76.37-.35.69-.81.97-1.34.14-.27.26-.55.39-.86.1-.3.24-.57.28-.91.05-.33.11-.69.26-.93.23-.5.52-.79.92-1.03.44-.16.88-.16,1.43-.03.7.2,1.33.23,1.57.33.76.2,1.54.3,2.09.22.29-.03.45-.11.58-.19.14-.09.36-.35.47-.59.13-.26.2-.59.24-.96.01-.09.02-.19.03-.29v-.16s.01-.27.01-.27c0-.36.02-.73.06-1.08.06-.34.14-.65.31-.93.08-.14.23-.24.32-.37.13-.09.28-.14.43-.2.3-.11.66-.19,1-.25l.53-.07.27-.03c.08.03.12,0,.18,0,1.64-.14,3.25-.37,4.85-.63,1.02-.18,2.04-.36,3.06-.53l.76-.12.78-.03c.13,0,.26-.03.4.01l.42.14c.28.08.56.16.83.17.67.01.57-.01.08.29-.25.15-.57.51-.93,1.11-.18.29-.43.4-.67.59-.12.09-.26.16-.38.26-.14.05-.28.1-.43.14-2.1.55-4.19,1-6.3,1.37l-1.58.26-.39.06-.18.03h-.02s-.06-.03-.11-.04c-.1-.04-.19,0-.22.08-.02.04-.05.08-.07.14-.03.2-.09.6-.16.91-.19.79-.48,1.69-1.04,2.46-.16.19-.26.36-.48.56-.2.19-.41.38-.64.51-.45.3-.92.45-1.37.56-.9.2-1.7.17-2.46.09-.38-.04-.75-.1-1.11-.18-.08-.02-.19-.04-.26-.06l-.13-.04-.18-.06-.17-.07c-.05-.02-.13-.07-.17,0-.07.1-.1.21-.15.33l-.19.52c-.13.37-.28.74-.46,1.11-.67,1.47-1.97,2.9-3.63,3.5-.5.2-1.01.32-1.52.39-.49.09-1.11.08-1.64,0-1.08-.17-2.05-.61-2.88-1.18-.57-.38-1.09-.83-1.54-1.32-.23-.25-.45-.5-.65-.77-.1-.13-.2-.27-.29-.41-.05-.07-.09-.14-.13-.22-.05-.09-.1-.18-.15-.28-.04-.09-.09-.21-.21-.21-.21,0-.41.07-.61.13l-.36.11-.56.16c-.38.1-.77.19-1.17.26-1.13.2-2.32.22-3.48.02-1.19-.16-2.46-.8-3.36-1.67-.41-.38-.78-.79-1.09-1.25-.58-.87-.66-1.59-.64-2.07.04-.49.27-.81.65-1.06.17-.12.34-.25.51-.32.58-.21,1.18.36,1.78,1.13.46.57.88,1.11,1.41,1.46.25.18.51.32.76.43.25.1.49.14.86.22.68.12,1.36.13,2.08.02.36-.04.73-.14,1.13-.24l.31-.09.67-.2c.46-.13.92-.25,1.36-.26.46,0,.93.11,1.33.32l.51.42c.18.12.3.41.46.6.14.26.29.53.46.76.07.11.13.19.2.28.13.18.28.35.43.52.31.33.64.63.98.9.68.54,1.43.85,2.03.86v.07Z"/><path class="cls-1" d="M333.3,256.74c-.54-1.42-1.15-2.83-1.81-4.22-.25-.5-.56-.96-.81-1.47-.87-1.78-1.77-3.56-2.77-5.28-.43-.77-.98-1.47-1.43-2.22-.3-.48-.62-.94-.91-1.43-.14-.25-.31-.47-.4-.75-.09-.28-.17-.56-.26-.85-.1-.36-.07-.33.26-.19.16.07.41.15.72.24.15.05.34.08.49.16.14.08.27.18.39.3l1.25,1.24c.2.21.41.42.6.64l.51.71c.67.95,1.3,1.93,1.85,2.97.66,1.24,1.59,2.38,2.34,3.6.84,1.34,1.61,2.73,2.34,4.13.46.86.88,1.74,1.32,2.62.66,1.33,1.2,2.72,1.8,4.07.48,1.05,1.11,2.02,1.61,3.09.12.23.21.46.28.71.05.24.08.44.08.61-.01.18-.08.33-.15.46-.15.26-.38.45-.73.63-.16.08-.31.18-.47.24-.5.2-1.12-.04-1.68-.54l-.47-.6c-.17-.2-.32-.4-.43-.61-.23-.42-.45-.86-.67-1.3-.41-.88-.82-1.79-1.21-2.71-.62-1.35-1.07-2.81-1.71-4.2l.07-.04Z"/><path class="cls-1" d="M84.86,200.25l1.94-2.06c.23-.25.36-.57.62-.81.91-.82,1.84-1.63,2.7-2.49.41-.35.75-.76,1.09-1.17.43-.52.78-1.1,1.4-1.48.19-.12.52.15.78.56.26.4.5.98.36,1.35-.52,1.3-.89,2.69-2.05,3.56-.64.55-.93,1.39-1.43,2.07l-1.75,2.16c-.36.44-.72.88-1.06,1.34-.5.7-1.11,1.34-1.53,2.09-.16.29-.28.61-.38.93-.12.31-.23.63-.37.93-.06.13-.09.28-.19.39-.37.41-.69.41-1.43.09-.17-.07-.33-.13-.48-.21-.49-.24-.87-.73-.92-1.24-.14-.78,0-1.42.13-2.07.21-.6.5-1.16.82-1.71.44-.83,1.09-1.53,1.67-2.27l.08.05Z"/><path class="cls-1" d="M419.85,199.65c-.31-.68-.65-1.36-1.03-2.01-.14-.24-.33-.43-.47-.67-.49-.84-.94-1.74-1.52-2.53-.25-.36-.56-.67-.85-.98-.39-.39-.82-.75-1.12-1.24-.09-.15.1-.34.4-.45.3-.11.72-.16,1,.03.97.67,1.89,1.44,2.57,2.42.41.59,1,1.05,1.43,1.63.49.63.93,1.3,1.36,1.97l.77,1.25c.39.63.71,1.31,1.12,1.91.31.48.76.87,1.14,1.32.09.1.19.18.25.29.26.4.11.64-.48,1.04-.14.09-.26.19-.4.27-.44.26-.99.32-1.29.12-.89-.62-1.37-1.47-1.88-2.33-.38-.64-.68-1.32-1.04-1.98l.05-.04Z"/><path class="cls-1" d="M459.84,198.84c-.5-1.11-1.04-2.2-1.64-3.27-.22-.38-.5-.73-.73-1.12-.8-1.35-1.57-2.74-2.49-4.05-.41-.58-.88-1.15-1.28-1.78-.52-.79-1.01-1.72-1.01-2.74,0-.32.26-.3.58-.13.32.18.76.43,1.04.78.47.65,1.1,1.21,1.7,1.85.58.65,1.21,1.41,1.73,2.21.64.95,1.43,1.83,2.1,2.78.73,1.05,1.39,2.16,2.02,3.26.39.68.76,1.38,1.12,2.08.56,1.05,1.03,2.15,1.6,3.18.44.81,1.01,1.53,1.5,2.31.11.17.23.34.31.52.17.34.13.62.06.83-.04.11-.11.21-.2.31-.11.1-.25.21-.39.31-.13.09-.25.19-.36.26-.33.2-1.07.18-1.49-.21-.66-.57-1.07-1.25-1.48-1.94-.41-.7-.77-1.42-1.14-2.15-.54-1.08-1.09-2.17-1.63-3.26l.06-.04Z"/><path class="cls-1" d="M467.08,200.38c.74-.53,1.49-1.06,2.21-1.62.26-.2.46-.47.72-.67.95-.7,1.93-1.37,2.83-2.12.4-.33.75-.72,1.08-1.11.42-.51.77-1.08,1.41-1.39.2-.1.6.3.91.8.3.5.52,1.13.3,1.45-.79,1.12-1.69,2.14-2.84,2.94-.69.47-1.14,1.22-1.75,1.8-.66.64-1.35,1.26-2.04,1.87-.42.38-.86.75-1.29,1.12-.65.57-1.33,1.1-1.91,1.73-.44.5-.77,1.08-1.17,1.61-.09.12-.15.25-.26.36-.36.4-.67.33-1.3-.16-.14-.11-.29-.21-.42-.33-.43-.37-.66-.93-.53-1.36.2-.62.47-1.19.8-1.72.32-.53.76-.95,1.17-1.4.64-.64,1.31-1.26,2-1.85l.06.06Z"/><path class="cls-1" d="M269.38,150.12c1.39.9,2.76,1.87,4.08,2.84.48.35,1.01.62,1.48.97,1.65,1.25,3.29,2.46,5.03,3.47.77.46,1.6.76,2.43,1.05,1.08.36,2.15.37,3.21,1.16.32.39.29.36-.06.79-.17.2-.44.57-.76.76-.32.21-.69.37-1.08.41-2.69-.18-5.26-1.17-7.22-2.81-1.2-.95-2.58-1.64-3.81-2.48l-4.01-2.76c-.83-.55-1.66-1.1-2.52-1.61-1.29-.77-2.61-1.57-3.96-2.16-1.05-.46-2.15-.65-3.16-.74-.22-.03-.44-.01-.65-.04-.2-.02-.36-.05-.5-.08-.14-.05-.24-.13-.34-.22-.19-.18-.31-.41-.43-.76-.06-.16-.13-.31-.17-.46-.15-.49.22-1.04,1.08-1.34.62-.13,1.27-.17,1.91-.14.63.05,1.25.18,1.84.34,1.18.33,2.26.82,3.26,1.31,1.5.73,2.96,1.58,4.4,2.44l-.04.07Z"/><path class="cls-1" d="M256.93,120.8c-6.1,2.98-12.04,6.37-17.83,10-5.81,3.56-11.19,7.63-16.1,12.31-3.58,3.4-6.83,7.14-9.78,11.06-1.66,2.24-3.25,4.54-4.51,6.98-.64,1.21-1.22,2.45-1.68,3.69-.22.62-.43,1.24-.56,1.85-.08.3-.13.63-.17.87-.03.14-.03.23-.04.35,0,.12,0,.25.06.35.07.1.18.16.3.19.28.06.31.06,1.15,0,.68-.06,1.4-.18,2.2-.28.24-.02.32-.05.45-.08.13-.03.24-.02.39-.09.3-.11.58-.18.9-.34,1.24-.54,2.53-1.26,3.79-2.01,1.27-.75,2.53-1.54,3.8-2.34,5.06-3.21,10.17-6.45,15.51-9.32,6.99-3.73,14.39-7.06,22.26-8.63,5.03-1.03,10.33-1.3,15.49-.35l1.93.4c.71.17,1.35.41,1.98.65,1.25.51,2.45,1.12,3.58,1.85,2.3,1.4,4.18,3.61,5.23,6.13.15.4.26.75.35,1.04.06.3.1.55.12.75.04.39,0,.57-.11.58-.11,0-.28-.16-.53-.46-.12-.15-.26-.33-.43-.53-.18-.2-.38-.42-.61-.66-.47-.47-1.06-.98-1.78-1.47-.19-.12-.37-.25-.59-.34-.18-.14-.37-.26-.59-.37-.41-.24-.85-.48-1.32-.7-.93-.44-1.89-.97-2.98-1.42-1.06-.45-2.27-.91-3.34-1.17-2.31-.54-4.67-.83-7.06-.91-2.39-.03-4.8.15-7.19.5-2.4.39-4.78.95-7.14,1.64-2.35.73-4.68,1.57-6.98,2.52-4.6,1.92-9.07,4.24-13.47,6.77-4.41,2.52-8.71,5.28-13.19,7.95-1.06.63-2.15,1.26-3.28,1.87-1.17.59-2.29,1.2-3.82,1.61l-.61.13c-.22.05-.3.05-.46.07l-.9.15c-.63.1-1.28.21-2.02.26-1.01.07-2.13,0-2.97-.5-.89-.47-1.42-1.43-1.47-2.42-.03-.39.02-.79.02-1.18,0-.19.02-.4.06-.58l.07-.44c.1-.54.23-1.06.38-1.56.29-1.01.68-1.94,1.08-2.87.82-1.83,1.79-3.56,2.82-5.24,2.05-3.35,4.39-6.49,6.92-9.43,4.6-5.35,9.8-10.15,15.44-14.38,2.82-2.12,5.79-4.02,8.74-5.86,2.96-1.84,5.97-3.62,9.01-5.33,7.51-4.17,15.28-7.98,23.57-10.56,3.14-.97,6.37-1.72,9.7-2.05,3.27-.29,6.54-.44,9.84-.33,3.29.12,6.6.5,9.82,1.44,1.61.44,3.18,1.12,4.67,1.94,1.48.86,2.84,1.97,3.96,3.31.82,1.08,1.56,2.24,2,3.53.53,1.24.75,2.68.74,4.01.01,1.36-.19,2.68-.52,3.94-.3,1.28-.76,2.48-1.24,3.68-2.05,4.71-4.97,8.87-8.28,12.69-1.46,1.68-2.95,3.27-4.61,4.8-1.53,1.42-2.91,2.49-4.13,3.3-1.21.83-2.26,1.4-3.16,1.83-1.81.83-3.04.99-4.05.83-.45-.05-1.03-.15-1.28-.29-.22-.12-.17-.29.06-.5.12-.11.28-.22.49-.35.21-.15.46-.31.75-.48,1.15-.77,2.98-1.95,5.18-3.79,3.26-2.7,6.39-5.74,9.16-9.11,2.76-3.35,5.29-7.02,6.9-10.92.8-1.94,1.35-3.95,1.33-5.81.01-.24,0-.46-.03-.68-.03-.22-.03-.45-.08-.66l-.14-.63c-.05-.21-.15-.43-.23-.65l-.24-.66-.33-.61c-.19-.42-.49-.78-.75-1.16-1.11-1.47-2.73-2.62-4.61-3.45-1.88-.83-3.98-1.35-6.13-1.7-3.21-.5-6.57-.6-9.93-.48-1.67.05-3.39.18-5.04.34-1.61.18-3.24.45-4.86.83-6.5,1.5-12.85,4.18-18.98,7.19l-.05-.07Z"/><path class="cls-1" d="M215.53,327.12c1.25-1.29,2.42-2.66,3.48-4.11,1.05-1.44,2.04-3.03,2.99-4.63,1.91-3.21,3.71-6.69,6.15-9.91.89-1.17,1.84-2.3,2.86-3.38.53-.52,1.03-1.05,1.62-1.56.57-.49,1.14-.94,1.71-1.36,1.97-1.51,3.99-2.78,5.4-4.38.73-.82,1.1-1.5,1.48-2.66.36-1.1.7-2.26.98-3.44l.83-3.58c.3-1.3.79-2.54,1.33-3.7,1.09-2.33,2.47-4.43,3.85-6.46,1.11-1.65,2.25-3.27,3.2-4.93.12-.21.23-.41.34-.62.08-.15.11-.23.17-.35.1-.22.18-.44.24-.66.06-.22.08-.46.03-.68-.06-.2-.18-.48-.41-.48-.18.02-.36.09-.51.18-.28.17-.52.39-.74.61l-.16.17-.2.23c-.22.24-.43.5-.64.75-.85,1.02-1.6,2.16-2.41,3.25-.8,1.11-1.58,2.24-2.35,3.38-.2.28-.37.58-.6.85l-.69.79c-.45.54-.95,1.05-1.35,1.61-1.03,1.4-.85,1.24-.35-.16.26-.69.45-1.78.68-3.11.32-1.28.94-2.65,1.71-4.1.84-1.59,1.86-3.09,3.03-4.55l.45-.55.59-.67c.61-.61,1.24-1.25,1.9-1.69.33-.27.65-.39.98-.58.31-.11.64-.25.93-.3.61-.13,1.14-.07,1.81-.1.46.52,1.05,1.01,1.34,1.63.32.61.49,1.27.45,2.05.03.37-.11.81-.16,1.22-.15.43-.23.86-.43,1.3-.19.43-.36.89-.58,1.29-.12.24-.25.48-.38.71-1.04,1.83-2.17,3.44-3.25,5.06-2.12,3.25-4.3,6.33-5.1,9.85-.41,1.64-.83,3.33-1.23,5.07-.21.87-.43,1.74-.75,2.67-.35,1-.92,1.95-1.53,2.72-1.24,1.58-2.67,2.76-4.04,3.9-1.4,1.12-2.8,2.11-3.93,3.21-2.64,2.48-4.7,5.53-6.59,8.81-1.9,3.29-3.73,6.74-6.11,9.95-2.94,3.9-6.49,7.36-10.74,9.9-3.2,1.91-6.94,3.19-10.79,3.17-1.92,0-3.96-.39-5.72-1.42-1.75-1.05-3.08-2.64-3.98-4.34-1.4-2.67-1.96-5.54-2.26-8.34-.29-2.82-.27-5.62-.05-8.41.09-1.23.2-2.43.39-3.66.86-4.52,1.61-5.88,2.64-6.59.24-.16.49-.39.69-.45.65-.21.58,1.61.25,4.82-.44,4.74-.82,9.66-.22,14.36.16,1.16.36,2.31.66,3.4.31,1.08.68,2.11,1.14,3.04.96,1.85,2.29,3.06,4.07,3.57.34.08.69.15,1.04.22.38.02.73.08,1.13.08l1.21-.03c.4-.03.81-.1,1.21-.14,1.62-.25,3.23-.76,4.79-1.48,3.1-1.49,5.98-3.7,8.46-6.33l.07.06Z"/><path class="cls-1" d="M247.23,265.94c.06-.07.13-.16.2-.29.06-.12.16-.32.1-.48-.14-.13-.29-.02-.45.09-.08.05-.15.15-.22.23l-.11.13-.25.28c-2.07,2.32-4,4.87-5.71,7.53-.76,1.19-1.43,2.44-2.02,3.69-.41.79-.78,1.6-1.16,2.41-.37.81-.71,1.61-1.23,2.37-.44.45-.44.39-.73-.19-.16-.3-.27-.7-.39-1.19-.07-.48-.04-1.01.12-1.54.28-.93.6-1.84.96-2.73.38-.88.85-1.71,1.32-2.54.95-1.65,2.01-3.23,3.18-4.74.7-.9,1.37-1.85,2.06-2.8l1.05-1.42c.18-.23.36-.47.55-.7l.42-.5c.16-.18.32-.35.48-.52.88-.96,1.81-1.75,2.6-2.18.83-.41,1.42-.62,2.33-.25.46.38.65.8.71,1.26.08.45.06.95-.06,1.52-.18.96-.64,2.05-1.07,3.11-.1.25-.22.58-.32.76l-.25.54-.51,1.06c-1.09,2.1-2.27,4.14-3.29,6.23-.79,1.62-1.4,3.28-1.99,4.93-.12.36-.24.72-.36,1.09-.5,1.32-.81,1.65-1.54,1.78-.16.03-.32.09-.46.09-.44.05-.81-.7-.63-1.86.63-3.36,2.16-6.45,3.64-9.49.56-1.11,1.13-2.23,1.69-3.35l.42-.83.45-.8.33-.62s.02-.03.04-.04h.08Z"/><path class="cls-1" d="M240.95,263.93c.05-.06.1-.15.15-.26.06-.1.07-.29-.03-.3-.16-.05-.36.05-.59.23-.04.03-.05.04-.24.24-.14.16-.29.31-.42.48l-.83,1c-1.99,2.36-3.78,5.02-5.35,7.78-.71,1.22-1.25,2.54-1.85,3.79-.37.81-.7,1.65-1.02,2.47-.39.8-.9,1.57-1.18,2.4-.16.5-.21.49-.42-.03-.17-.5-.52-1.57-.53-2.74.74-3.88,2.63-7.23,4.8-10.39,1.32-1.88,2.49-3.96,4.03-5.81.21-.25.43-.51.66-.75.17-.19.59-.65.96-.97.74-.72,1.53-1.26,2.27-1.57.73-.3,1.43-.41,2.12-.25.34.07.71.37.82.68.14.31.19.63.21.98.05.86-.26,1.99-.63,3.08-.44,1.26-.67,1.76-1,2.53-.95,2.18-2.07,4.27-3.01,6.41-.73,1.66-1.28,3.35-1.85,5.03-.12.37-.23.73-.34,1.1-.24.68-.41,1.11-.64,1.38-.24.27-.53.37-.88.44-.16.03-.31.09-.43.1-.22.02-.36-.14-.52-.48-.18-.34-.21-.82-.09-1.38.66-3.3,2.09-6.4,3.34-9.55.48-1.15.96-2.3,1.44-3.46l.76-1.68.17-.4s.01-.01.02-.02l.03-.05.08-.02Z"/><path class="cls-1" d="M226.72,268.25c-1.49,4.05-2.69,8.35-2.86,12.5-.02.75.02,1.49.13,2.19l.09.57c.05.27.07.49.09.73.04.46.07.9.07,1.34-.03,1.55-.2,3.08-.52,4.63-.16.78-.36,1.56-.69,2.36-.28.78-.95,1.7-1.45,2.21-1.07,1.16-2.15,2.13-3.24,3.11l-3.27,2.89c-1.93,1.7-3.8,3.47-5.56,5.28-2.22,2.36-4.42,4.75-6.31,7.21-.64.75-.82.6-.86-.41-.14-1.07.32-2.85,1.48-4.47,1.02-1.41,2.17-2.71,3.36-3.92,1.18-1.24,2.4-2.41,3.63-3.57,2.45-2.31,5.02-4.51,7.43-6.72.34-.33.71-.67,1.01-1.01l.44-.52c.16-.18.19-.3.3-.45.36-.59.55-1.55.67-2.46.11-.94.13-1.92.1-2.89-.04-.96-.05-2-.15-2.81-.38-2.5-.14-4.94.23-7.26.4-2.33.99-4.59,1.69-6.8.88-2.72,1.92-5.38,3.22-7.95.5-.97,1.05-1.93,1.71-2.86.13-.2.43-.54.66-.83.26-.27.52-.56.82-.75.29-.23.62-.35.97-.42.09-.02.18,0,.27,0,.04,0,.09.02.13,0l.13.04.51.17c1.44.4,2.18,2.11,2.12,3.49.02,1.21-.21,2.3-.47,3.35-.4,1.63-.94,3.2-1.29,4.69-.33,1.41-.27,2.96-.26,4.56,0,.71.06,1.41,0,2.14-.09,1.35-.22,2.27-.48,2.89-.3.61-.61.93-.96,1.16-.15.1-.3.25-.42.3-.2.08-.31-.16-.45-.65-.16-.5-.34-1.24-.35-2.17-.08-1.39-.23-2.82-.23-4.33-.01-.76,0-1.53.05-2.35.03-.41.08-.83.14-1.26.08-.45.17-.87.28-1.27.43-1.55.92-2.94,1.27-4.31.19-.68.3-1.33.38-1.95.01-.28.06-.6.01-.8-.02-.05,0-.01-.01-.02,0,0,0,0,0-.01h0s0,0,0,0l-.15.23c-.26.39-.51.84-.76,1.29-.96,1.85-1.85,3.87-2.57,5.92l-.08-.02Z"/><path class="cls-1" d="M286.08,266.42c2,1.79,4.31,3.49,6.59,5.19.84.62,1.74,1.16,2.57,1.8,1.48,1.13,2.92,2.3,4.33,3.69.35.34.7.72,1.05,1.13.37.46.65.93.88,1.32.47.81.91,1.55,1.41,2.27.88,1.27,1.97,2.36,3.21,3.13.78.52,1.62.91,2.49,1.24.44.13.87.32,1.33.46.23.07.45.16.69.23.23.07.46.24.71.35.6.36.55.45-.02.93-.29.2-.74.73-1.29.88-.55.17-1.26.41-1.94.22-1.23-.23-2.44-.68-3.53-1.31-1.07-.66-2-1.49-2.82-2.38-.82-.89-1.52-1.85-2.11-2.82-.61-.95-1.08-2.01-1.49-2.54-.64-.85-1.66-1.68-2.67-2.43-1.04-.77-2.09-1.55-3.13-2.31-2.28-1.73-4.61-3.46-6.87-5.32l-1.04-.89-.51-.46-.62-.59c-.95-.93-1.76-1.92-1.96-2.92-.06-.3-.06-.62.03-.95.18-.29.36-.56.61-.76,1.09-.83,2.59-.9,4.09-.54.19.04.37.09.56.15.19.05.29.09.44.14.27.09.54.19.8.29.52.21,1.04.43,1.54.66,1.94.89,3.8,1.79,5.61,2.78.4.22.8.41,1.19.64.72.43,1.17.74,1.41,1.07.23.36.27.71.25,1.1,0,.17.02.35,0,.49-.04.23-.24.34-.66.42-.41.09-.97.05-1.54-.23-1.71-.75-3.36-1.62-5.01-2.45-.82-.41-1.64-.83-2.45-1.19-.41-.19-.81-.36-1.21-.51l-.6-.22-.29-.09-.14-.05c-.06-.02-.1-.03-.07-.02.03.01,0-.02-.02-.02-.06-.02-.06,0-.07.03,0,.01,0,.03,0,.04.03.04-.1-.06.32.3l-.05.06Z"/><path class="cls-1" d="M285.48,258.72c-.57-.74-1.11-1.47-1.3-2.16-.09-.33-.15-.66-.15-.97.03-.3.07-.62.21-.94.26-.67.91-1.16,1.49-1.33.58-.22,1.31-.21,2.12-.05.58.11,1.2.31,1.8.53.29.1.63.25.88.36.18.08.36.17.53.27,2.42,1.36,4.55,2.99,6.59,4.71.9.77,1.84,1.51,2.69,2.34.54.53,1.07,1.09,1.56,1.68.48.6.94,1.25,1.04,2.09.07.52.06.43-.38.26-.44-.18-1.44-.27-1.99-.83-2.24-1.77-4.41-3.65-6.74-5.47-.69-.55-1.46-1.02-2.26-1.43-.4-.21-.8-.4-1.21-.59l-.61-.27c-.2-.09-.44-.18-.45-.21-.3-.15-.67-.35-1.12-.39-.22-.03-.46.12-.48.32-.02.2.07.39.18.57.13.22.3.45.5.68.05.07.33.37.53.57l.65.66c1.35,1.31,2.75,2.63,4.18,3.9,1.11.99,2.28,1.88,3.35,2.99.23.25.48.48.69.76.79,1.05.84,1.61.34,2.11-.11.11-.2.23-.32.31-.38.23-.95.02-1.46-.53-1.64-1.64-3.75-3.31-5.81-5.09-.77-.66-1.55-1.33-2.33-2.04l-1.16-1.08-.63-.62c-.35-.35-.71-.72-1.02-1.09l.07-.03Z"/><path class="cls-1" d="M291.65,253.02c-.09-.11-.11-.17-.3-.36l-.41-.55c-.29-.36-.53-.73-.75-1.11-.47-.74-.83-1.47-1.05-2.13-.37-1.34-.2-2.13.43-3.28.5-.24.9-.43,1.33-.49.46-.08.94-.06,1.47.01.54.11,1.12.31,1.74.62l.81.44.8.54c.27.17.52.38.78.58l.3.24.22.19c.6.51,1.16,1.03,1.71,1.56,1.11,1.05,2.16,2.14,3.17,3.27.9.99,1.84,1.95,2.75,2.91,1.13,1.27,2.27,2.57,2.98,4.19.22.5.1.49-.36.29-.31-.13-.64-.26-.96-.39-.41-.15-.84-.35-1.21-.65-.67-.53-1.37-1.03-2.03-1.56l-1.87-1.71c-1.24-1.15-2.5-2.26-3.65-3.52-.7-.73-1.49-1.39-2.32-1.99l-.42-.3-.21-.14-.45-.29c-.27-.15-.65-.41-1.01-.28-.19.19-.13.46-.05.7.08.24.21.49.37.76l.26.41s.15.22.25.35l.31.42c.42.57.86,1.12,1.31,1.68,1.36,1.67,2.75,3.36,4.18,5,1.11,1.27,2.31,2.43,3.37,3.77.23.3.46.59.66.91.19.3.33.56.44.78.09.23.13.45.16.62.05.35-.05.62-.19.87-.07.11-.11.24-.17.31-.18.23-.84-.03-1.57-.69-.51-.52-1.03-1.02-1.56-1.54-.51-.54-1.01-1.09-1.52-1.63-1.03-1.12-2.08-2.25-3.13-3.39-1.56-1.72-3.12-3.47-4.64-5.38l.05-.05Z"/><path class="cls-1" d="M315.62,268.84c-.78-2.1-1.54-4.29-2.08-6.6-.43-1.89-1.36-3.82-2.43-5.65-.8-1.34-1.76-2.59-2.7-3.85-1.39-1.85-2.91-3.64-4.54-5.29-.41-.41-.82-.82-1.25-1.21l-.64-.58-.33-.28-.17-.13c-.05-.04-.05-.04-.08-.07-.36-.29-.77-.68-1.31-.81-.23-.05-.42.15-.46.34-.05.2-.01.41.03.62.06.28.17.56.3.84l.32.68.43.82c.59,1.09,1.25,2.15,1.93,3.2.87,1.36,1.74,2.71,2.61,4.07.44.68.86,1.38,1.26,2.09.4.71.84,1.4,1.03,2.25.07.56.11.8.09.8-.03,0-.15-.21-.59-.43-.9-.42-2.36-1.31-3.61-2.73-.86-1.03-1.72-2.06-2.55-3.12-.84-1.06-1.54-2.23-2.27-3.4-.35-.6-.71-1.19-1.03-1.82l-.54-1.05c-.26-.59-.51-1.19-.7-1.78-.36-1.18-.41-2.25-.17-3.07.12-.42.31-.8.63-1.15.3-.35.77-.63,1.15-.77.44-.06.81-.1,1.24-.06.23.06.45.09.68.17l.72.3c.5.29.99.58,1.47.96.24.18.48.35.71.54l.35.29.23.2c3.1,2.83,6.08,5.83,8.57,9.24,1.35,1.88,2.59,3.86,3.55,6.04.48,1.07.89,2.27,1.16,3.4.26,1.03.59,2.07.95,3.11.9,2.57,1.91,5.15,2.87,7.77.36,1,.71,2,1.03,3.03l.22.78.22.67c.17.45.36.92.57,1.38.85,1.86,1.84,3.69,2.89,5.46,1.65,2.75,3.51,5.31,5.46,7.74.44.53.88,1.04,1.33,1.55,1.67,1.89,2.01,2.47,2.02,3.38.01.2.08.42.08.59,0,.27-.26.35-.88.27-.15-.03-.35-.04-.51-.11-.16-.07-.32-.16-.51-.26-.37-.2-.78-.46-1.15-.81-2.28-2.05-4.1-4.44-5.85-6.92-1.73-2.5-3.34-5.11-4.79-7.87-.55-1.03-1.05-2.07-1.54-3.27-.11-.32-.25-.72-.33-.97l-.23-.75c-.16-.5-.34-1.01-.52-1.52-.74-2.05-1.59-4.13-2.42-6.25l.07-.03Z"/><path class="cls-1" d="M186.83,295.3c-.15.58-.15,1.53-.05,2.36.05.42.13.84.23,1.18.14.4.09.32.26.51.25.24.83.42,1.41.61,2.14.67,4.75,1.04,7.29,1.18,1.14.06,2.28.02,3.42-.01.73-.03,1.46-.09,2.2-.1.74.03,1.49.18,2.24.51.47.21.4.35.02.75-.26.28-.52.57-.77.84-.32.31-.69.56-1.11.71-1.49.24-3,.41-4.53.44-1.53-.02-3.09-.13-4.65-.41-1.87-.35-3.84-.33-5.9-1.19-.56-.25-1.15-.54-1.71-1.08-.14-.14-.27-.29-.4-.45-.12-.17-.24-.36-.35-.54-.16-.33-.27-.65-.35-.94-.31-1.17-.4-2.26-.38-3.4.04-.71.07-1.4.41-2.26.36-.9,1.19-1.5,1.91-1.79,1.12-.44,2.18-.46,3.19-.44,1.01.03,1.99.13,2.95.24,1.5.18,2.97.27,4.45.49.32.05.64.1.95.19,1.17.34,1.46.65,1.51,1.42.01.17.05.34.05.5.03.52-.67.9-1.54.88-.66-.02-1.33.02-1.97-.08-.64-.09-1.28-.17-1.92-.26-1.27-.18-2.55-.38-3.76-.46-.89-.03-1.78,0-2.39.17-.3.08-.5.19-.54.23-.03.02-.03.02-.03.03-.01,0,0,.02-.02.03l-.04.16h-.07Z"/><path class="cls-1" d="M184.83,290.76c0-.43,0-1.01.04-1.25.04-.3.08-.6.14-.88.12-.57.25-1.14.5-1.69.26-.56.52-1.11,1.06-1.76l.22-.24c.09-.09.21-.19.31-.27.25-.21.38-.23.56-.33.34-.15.71-.32,1.01-.36.46-.11.9-.2,1.31-.22.42-.05.82-.09,1.21-.07,1.38.01,2.68.19,3.95.42,1.27.22,2.52.49,3.75.77,1.1.25,2.21.44,3.3.65.7.14,1.4.27,2.09.43l.52.13.5.21c.32.15.65.31.98.46.4.21.29.49-.16.81-.22.16-.54.35-.9.51-.18.08-.38.16-.58.23-.1.04-.2.05-.31.09-.1,0-.2,0-.3-.02-2.89-.3-5.64-1.01-8.41-1.67-1.65-.39-3.46-.43-5-.26l-.61.11c-.17.06-.35.12-.52.17-.16.06-.24.14-.38.2h-.02s-.01.02-.01.02h0s0,0,0,0h0s0,0,0,0c-.39-.54-.11-.15-.19-.27.04.07.09.13.13.19l.07.08h0s0,0,0,0c-.02.04-.05.07-.08.12-.14.23-.3.62-.41,1.01-.14.39-.26.81-.35,1.22-.05.23-.09.56-.11.71-.01.14-.03.29-.01.44.01.33.35.46.61.61.64.29,1.55.57,2.4.79.86.22,1.75.41,2.65.57,1.39.24,2.8.34,4.24.64.32.06.63.14.94.26.58.21.95.46,1.16.7.2.3.25.57.22.9-.01.15-.01.3-.04.42-.06.21-.24.34-.5.44-.26.1-.61.19-1,.16-2.34-.05-4.87-.26-7.54-.78-1-.2-2-.41-3.1-.78-.29-.11-.53-.2-1.02-.4-.4-.26-.84-.46-1.19-.77-.17-.15-.34-.31-.5-.47-.02-.13-.12-.2-.18-.3-.06-.09-.11-.2-.16-.3-.2-.41-.29-.88-.33-1.34l.08-.02Z"/><path class="cls-1" d="M349.03,275.52c1.33,1.84,1.74,4.22.71,6.36-.36.76-.93,1.48-1.6,1.93-1.08.67-2.15,1.02-3.19,1.32-1.04.29-2.06.52-3.07.74-.89.2-1.76.46-2.61.74-1.08.37-2.12.75-3.2,1-.43-.07-.47-.18-.41-.72.06-.53.42-1.24,1.04-1.6,1.1-.66,2.27-1.04,3.4-1.38,1.14-.34,2.27-.62,3.38-.88.66-.16,1.31-.4,1.88-.72.29-.15.55-.33.8-.5l.34-.26c.07-.08.15-.16.23-.22.64-.66.73-1.98.24-3.09-.3-.68-.8-1.28-1.44-1.57-.5-.24-.95-.31-1.67-.24-.68.05-1.4.15-2.1.32-1.08.27-2.09.76-3.09,1.22-.22.1-.42.23-.64.32-.83.3-1.19.12-1.65-.41-.11-.13-.23-.24-.32-.37-.31-.41-.15-1.02.42-1.58.88-.76,1.89-1.22,2.94-1.67,1.05-.42,2.15-.75,3.35-.97.44-.09.92-.13,1.44-.14.28,0,.55,0,.92.04.35.04.64.13.96.21,1.24.38,2.27,1.17,2.99,2.09l-.06.05Z"/><path class="cls-1" d="M345.48,271.01c.04-.2-.04-.64-.29-1.11-.12-.23-.26-.48-.43-.72-.08-.12-.17-.24-.27-.36l-.14-.18c-.06-.07-.02-.04-.04-.06-.03-.06-.08-.11-.13-.13-.06-.03-.03-.01-.11-.03l-.33-.02-.78-.03c-.98-.06-2.05-.03-3.12.04-1.08.04-2.17.11-3.25.24-.96.11-1.91.32-2.85.53-1.2.3-2.38.64-3.68.59-.4,0-.41-.21-.19-.61.23-.4.66-1.11,1.33-1.43,2.38-1.01,4.86-1.75,7.49-2.03,1.59-.11,3.15-.51,4.96-.47.65.03,1.99.17,2.7.97l.38.43.28.35c.18.24.36.48.53.74.33.52.64,1.08.85,1.72.21.64.33,1.38.19,2.15-.07.38-.21.76-.4,1.1-.1.17-.2.33-.32.47-.12.17-.27.3-.42.43-.47.4-.88.56-1.29.75-.41.17-.8.33-1.2.46-.78.26-1.55.53-2.33.79-1.18.42-2.3.94-3.42,1.4-.25.1-.47.23-.73.32-.93.3-1.25.12-1.72-.43-.11-.13-.24-.24-.33-.37-.34-.41-.09-1.06.57-1.59,1.97-1.35,4.14-2.1,6.2-2.82.73-.27,1.53-.57,1.97-.81.05-.03.09-.05.12-.06,0,0,0,0,0,0,.02,0-.01.02,0,.01.02-.01.02-.03.03-.03.03-.04.05-.05.06-.15h.08Z"/><path class="cls-1" d="M281.5,326.23c-4.65.21-9.3.37-13.95.48-1.7.05-3.39.17-5.08.19-5.98.06-11.95.02-17.92-.08-2.65-.05-5.31-.04-7.94-.02-3.37.05-6.76-.09-10.13-.46-1.05-.2-.91-.45-.01-.9.89-.44,2.53-1.02,4.47-1.2l2.58-.22,1.29-.11,1.29-.03c1.72-.03,3.43-.05,5.15-.08,1.72,0,3.44-.04,5.16,0,1.72.05,3.45.1,5.18.15,4.14.16,8.45-.14,12.68-.26,4.65-.14,9.31-.3,13.96-.54,2.86-.14,5.73-.31,8.58-.52,4.33-.32,8.68-.66,12.96-1.19,3.32-.42,6.55-1.06,9.81-1.66.72-.14,1.42-.28,2.14-.42,2.68-.48,3.59-.23,4.3.53.16.18.36.35.47.53.36.61-.66,1.35-2.61,1.92-5.81,1.45-12.05,2.29-18.33,2.9-4.66.47-9.36.78-14.05,1.06v-.08Z"/><path class="cls-1" d="M72.21,396.84c5.77-.34,11.46-1.69,16.73-4.14l2.79-1.5c.94-.49,1.78-1.14,2.69-1.67,6.31-3.97,11.53-9.66,15.29-16.23,1.6-2.95,2.98-6.06,3.97-9.26.64-2.05,1.12-4.15,1.6-6.25.3-1.04.46-2.1.73-3.15.09-.53.31-1.04.51-1.57.19-.52.33-1.05.49-1.58.43-1.32.46-1.15.76.05.16.6.36,1.45.8,2.53.24,1.06.24,2.28.15,3.59-.08.57-.15,1.15-.25,1.72l-.34,1.71-.89,3.37-1.1,3.31c-.41,1.09-.88,2.16-1.32,3.24-1.97,4.24-4.53,8.22-7.65,11.73-3.7,4.19-7.99,8.23-12.95,11.13-5.44,3.15-11.48,5.25-17.67,6.12-3.8.57-7.65.67-11.46.46-5.78-.35-11.51-1.58-16.9-3.58-4.18-1.57-8.22-3.49-11.74-6.43-.77-.65-1.53-1.3-2.16-2.13-.31-.36-.57-.72-.79-1.06-.22-.34-.44-.63-.59-.94-.3-.61-.52-1.11-.61-1.56-.11-.45-.17-.8-.16-1.12.04-.33.13-.6.21-.84.08-.22.12-.48.18-.6.17-.4,1.26.76,2.83,2.51,4.77,5.25,12.07,8.53,19.56,10.49,5.61,1.41,11.5,1.99,17.31,1.57v.09Z"/><path class="cls-1" d="M74,420.89c7.5.3,15.14-1.19,22.06-4.23,2.5-1.14,4.87-2.55,7.08-4.17,3.92-2.83,7.31-6.42,10.02-10.49,1.34-2.05,2.55-4.19,3.58-6.43,1.02-2.25,1.88-4.56,2.6-6.93.62-2.11,1.1-4.26,1.5-6.43.37-2.17.63-4.36.77-6.55.08-1.4.11-2.81.1-4.21v-2.11s-.09-2.11-.09-2.11c-.08-1.4-.18-2.81-.37-4.2-.08-.7-.19-1.39-.31-2.09-.11-.7-.2-1.4-.33-2.1-.33-1.74-.25-1.54.54-.2.82,1.32,2.14,3.96,2.71,7.32.26,1.48.47,2.97.6,4.47.1.75.09,1.5.1,2.25.02.75,0,1.5-.02,2.25-.08,3-.38,6-.91,8.97-1.11,5.92-3.17,11.71-6.25,16.96-3.64,6.27-8.72,12.2-15.09,16.15-3.48,2.18-7.28,3.79-11.15,4.99-3.88,1.2-7.9,1.97-11.95,2.23-2.49.2-5,.13-7.48-.03-2.49-.19-4.96-.59-7.39-1.12-7.37-1.69-14.33-5.16-20.07-9.98-4.45-3.75-8.26-8.17-11.02-13.28-.62-1.12-1.18-2.24-1.7-3.41-.93-2.2-1.35-3.73-1.53-4.82-.11-1.11,0-1.8.24-2.38.11-.27.2-.6.33-.76.45-.56,1.41,1.14,2.72,4.15,1.92,4.48,4.5,8.76,7.75,12.52,1.63,1.87,3.36,3.68,5.29,5.28,1.92,1.6,3.98,3.06,6.15,4.33,3.24,1.87,6.72,3.34,10.35,4.38,3.63,1.01,7.39,1.57,11.17,1.69v.09Z"/><path class="cls-1" d="M73.83,405.41c6.21-.36,12.4-1.92,18.12-4.44,1.06-.42,2.03-1.02,3.03-1.57.49-.29,1-.54,1.48-.86l1.43-.93c3.36-2.19,6.52-4.76,9.23-7.76,2.72-3,5.04-6.36,6.97-9.94l1.19-2.44c.35-.83.65-1.69.97-2.53.15-.43.33-.84.46-1.28l.36-1.31c.22-.87.52-1.73.67-2.61.2-1.14.42-2.27.58-3.41.12-1.15.27-2.29.42-3.44l.2-3.47c.06-.58.01-1.16.02-1.74,0-.58.08-1.17.13-1.76.19-1.49.23-1.31.77-.11.26.6.75,1.46,1.06,2.54.33,1.08.51,2.38.62,3.8.06.63.04,1.26.03,1.89l-.04,1.89c0,.64-.07,1.26-.19,1.88l-.31,1.87c-.17,1.26-.53,2.47-.85,3.69-.28,1.24-.72,2.42-1.16,3.61-1.75,4.75-4.33,9.2-7.65,13.01-3.94,4.55-8.51,8.96-13.89,12.02-1.49.81-2.95,1.66-4.53,2.3-.78.33-1.54.72-2.33.99l-2.38.84-1.19.42c-.4.12-.81.22-1.22.33l-2.44.65c-1.63.4-3.3.66-4.94.97-4.1.55-8.24.67-12.36.38-6.23-.53-12.35-2.27-17.95-4.88l-1.64-.75c-.55-.24-1.05-.57-1.58-.84l-1.57-.86c-.53-.28-1.05-.57-1.54-.9l-3.01-1.95-2.82-2.22c-.85-.63-1.56-1.38-2.34-2.11-.69-.7-1.3-1.25-1.71-1.81-.41-.55-.69-1.04-.91-1.45-.44-.82-.54-1.41-.49-1.98.02-.26-.01-.55.04-.73.14-.58,1.69.18,3.73,1.99,3.03,2.69,6.27,5.2,9.78,7.39,3.53,2.14,7.31,3.95,11.28,5.26,5.92,1.88,12.22,2.68,18.48,2.28v.09Z"/><path class="cls-1" d="M62.86,368.85c4.22-1.63,8.42-3.3,12.61-5.02,1.53-.62,3.01-1.35,4.54-1.97,5.37-2.22,10.77-4.41,16.1-6.74,2.36-1.04,4.7-2.17,6.99-3.32l2.2-1.13,2.23-1.06c1.46-.76,3.08-1.2,4.73-1.59,1.03-.23.97-.04.39.74-.34.47-.75,1.03-1.19,1.65-.25.34-.56.63-.88.96-.16.16-.34.3-.51.48-.19.12-.39.25-.6.37-1.46.85-2.95,1.66-4.48,2.36-1.52.74-3.06,1.44-4.6,2.13-3.08,1.39-6.21,2.7-9.39,3.92-3.8,1.47-7.61,3.3-11.45,4.91-4.22,1.77-8.47,3.46-12.72,5.15-2.62,1.03-5.24,2.05-7.86,3.08-3.96,1.56-7.98,3.05-11.89,4.65-3.05,1.23-5.97,2.6-8.95,3.9-.66.29-1.29.6-1.96.85-1.25.47-2.09.75-2.73.81-.65.03-1.09-.13-1.49-.36-.18-.1-.39-.17-.5-.26-.2-.16-.07-.41.28-.86.34-.46.96-.98,1.84-1.41,5.18-2.69,10.86-4.92,16.54-7.23,4.23-1.69,8.48-3.38,12.72-5.07l.04.07Z"/><path class="cls-1" d="M81.48,213.11l.34-7.04c.03-.86-.03-1.71,0-2.57.15-3.02.31-6.04.43-9.05.07-1.34.05-2.68.02-4.01-.03-.85-.06-1.71,0-2.56.03-.86.12-1.71.33-2.57.29-.54.28-.47.69-.03.22.22.42.53.66.91.24.38.45.83.53,1.32.38,1.73.44,3.47.57,5.21.13,1.74.09,3.49-.04,5.25-.15,2.1.09,4.28.12,6.43l.04,7.09-.03,4.36c0,2.2-.05,4.41.06,6.6.09,1.7.4,3.35.61,5.03.05.37.1.73.12,1.1.04,1.38-.21,1.83-1.14,2.15-.21.07-.42.17-.63.21-.71.15-1.33-.39-1.62-1.4-.46-1.49-.69-3.02-.84-4.58-.15-1.56-.22-3.14-.26-4.73-.06-2.36-.03-4.73-.04-7.1h.09Z"/><path class="cls-1" d="M84.64,229.15l19.24.44c2.34.05,4.68,0,7.02.06l24.72.73c3.66.1,7.33.1,10.96.08,2.33,0,4.67-.13,7,0,2.34.1,4.67.15,7,.76,1.45.37,1.26.34.03.81-.61.21-1.49.71-2.55,1.03-.53.17-1.1.37-1.71.5-.61.12-1.26.2-1.93.25-1.19.06-2.38.2-3.57.2h-3.57c-2.38-.02-4.76-.05-7.15-.07-4.77-.09-9.55-.23-14.35-.5-5.74-.33-11.71-.22-17.59-.33-6.46-.13-12.91-.26-19.37-.39-3.97-.07-7.95-.14-11.92-.2-6.02-.07-12.06-.18-18.03-.11-4.64.06-9.19.34-13.77.56-1.01.05-1.99.14-3.01.18-1.88,0-3.12-.04-3.99-.19-.88-.21-1.39-.47-1.81-.84-.19-.17-.45-.32-.56-.47-.2-.26.08-.51.76-.81.67-.29,1.75-.68,3.14-.84,2.05-.3,4.14-.48,6.25-.59,2.1-.12,4.23-.23,6.37-.3,4.28-.14,8.62-.18,12.97-.19,6.46-.01,12.95.09,19.42.15v.09Z"/><path class="cls-1" d="M422.35,214.96c.11-2.24.21-4.48.28-6.72.03-.82-.03-1.63,0-2.45.1-2.88.16-5.77.2-8.65.02-1.28-.04-2.56-.09-3.83l-.13-2.44c0-.82.06-1.64.14-2.46.06-.51.28-.46.6-.05.31.41.8,1.17,1.04,2.1.24,1.66.4,3.32.53,4.99.13,1.67.2,3.35.11,5.04-.08,2.02.13,4.11.18,6.17.04,2.27.04,4.53.02,6.8l-.05,4.18c-.01,2.11-.09,4.23-.04,6.33.01,1.63.3,3.23.35,4.84.02.36.06.7.05,1.06-.01.66-.06,1.1-.24,1.4-.21.3-.49.47-.86.61-.16.06-.32.14-.46.18-.24.06-.46-.05-.72-.3-.26-.25-.53-.63-.6-1.11-.68-2.88-.62-5.89-.57-8.92.07-2.25.13-4.51.2-6.77h.07Z"/><path class="cls-1" d="M462.89,213.66l.49-7.76c.05-.94.01-1.89.07-2.83.18-3.33.51-6.65.69-9.98.07-1.48.13-2.96.17-4.42.03-.94.05-1.88.08-2.83.03-.47.12-.94.19-1.41.02-.24.11-.47.2-.71.08-.24.07-.47.1-.71.07-.59.07-.51.17-.01.07.25.05.6.38,1.03.21.43.37.93.51,1.47.22,1.92.35,3.84.47,5.77.07,1.92.03,3.85-.07,5.79-.12,2.32.02,4.73,0,7.1l-.15,7.82-.1,4.81c-.02,2.43-.16,4.87-.11,7.28.03,1.87.27,3.71.41,5.57.03.41.1.81.09,1.22-.01,1.53-.22,2.01-1.12,2.34-.19.07-.37.17-.54.22-.52.15-1.26-.48-1.46-1.59-.72-3.31-.75-6.81-.79-10.31-.04-2.6.14-5.22.24-7.83h.08Z"/><path class="cls-1" d="M401.51,229.37l21.22.44c2.58.05,5.16,0,7.74.06l27.28.73c4.03.1,8.09.1,12.09.08,2.57,0,5.15-.12,7.72,0,2.58.1,5.15.15,7.72.77,1.6.37,1.39.34.03.81-.68.21-1.64.71-2.81,1.03-.58.17-1.22.37-1.89.5-.67.12-1.39.2-2.13.25-1.31.06-2.63.2-3.94.2h-3.94c-2.63-.02-5.26-.05-7.89-.07-5.26-.09-10.53-.23-15.83-.5-6.33-.33-12.92-.22-19.4-.32-7.12-.13-14.25-.26-21.37-.39-4.38-.07-8.77-.13-13.15-.2-6.64-.07-13.31-.18-19.9-.11-5.12.06-10.14.33-15.19.56-1.11.06-2.2.12-3.32.18-2.08,0-3.45-.04-4.41-.19-.96-.2-1.53-.47-2-.83-.21-.17-.49-.32-.62-.47-.22-.26.09-.51.84-.81.75-.29,1.93-.69,3.47-.85,2.26-.3,4.57-.48,6.89-.59,2.32-.12,4.67-.23,7.03-.29,4.72-.14,9.51-.18,14.31-.19,7.12-.01,14.28.09,21.42.15v.09Z"/><path class="cls-1" d="M227.34,235.53c-.68.29-1.3.74-1.82,1.26-.29.3-.59.64-.79,1.01-.34.62-.42,1.33-.09,1.97.26.5.76.82,1.31.89.5.07.95-.05,1.4-.26.32-.15.61-.38.84-.64.28-.32.54-.67.74-1.04.46-.83.71-1.76.75-2.71.02-.65-.59-1.28-1.25-1.25-.7.03-1.22.55-1.25,1.25,0,.16-.02.31-.04.46l.04-.33c-.06.39-.16.78-.31,1.15l.13-.3c-.16.37-.35.71-.59,1.03l.2-.25c-.13.17-.26.33-.43.46l.25-.2c-.12.09-.24.16-.38.22l.3-.13c-.11.04-.21.08-.33.09l.33-.04c-.08.01-.16.01-.24,0l.33.04c-.05,0-.1-.02-.15-.04l.3.13s-.07-.04-.11-.07l.25.2s-.05-.04-.07-.07l.2.25s-.05-.08-.07-.12l.13.3s-.03-.09-.04-.14l.04.33c0-.07,0-.13,0-.19l-.04.33c.01-.08.04-.16.07-.24l-.13.3c.08-.17.18-.33.3-.48l-.2.25c.25-.32.53-.6.85-.85l-.25.2c.33-.26.69-.47,1.08-.63.27-.11.5-.48.57-.75.08-.3.05-.7-.13-.96s-.43-.5-.75-.57l-.33-.04c-.23,0-.44.06-.63.17h0Z"/><path class="cls-1" d="M58.64,381.2c-.53.51-1,1.13-1.3,1.8-.38.85-.74,1.88-.22,2.76.32.53.9.89,1.53.88.56,0,1.02-.26,1.43-.61.61-.51.91-1.34,1.05-2.1.17-.97.14-1.95-.16-2.89-.2-.62-.88-1.09-1.54-.87-.62.2-1.09.87-.87,1.54.08.26.14.53.18.8l-.04-.33c.05.41.05.82,0,1.23l.04-.33c-.05.39-.15.76-.29,1.12l.13-.3c-.06.13-.13.26-.22.37l.2-.25c-.09.11-.19.22-.31.31l.25-.2c-.07.05-.14.09-.22.13l.3-.13c-.06.02-.12.04-.18.05l.33-.04c-.06,0-.12,0-.18,0l.33.04s-.08-.02-.13-.04l.3.13s-.05-.03-.08-.05l.25.2s-.08-.06-.11-.1l.2.25s-.06-.09-.08-.14l.13.3c-.03-.07-.04-.14-.05-.21l.04.33c0-.1,0-.19,0-.28l-.04.33c.04-.28.14-.56.25-.82l-.13.3c.17-.39.38-.76.64-1.1l-.2.25c.16-.2.33-.39.51-.56.48-.45.49-1.32,0-1.77s-1.26-.48-1.77,0h0Z"/><path class="cls-1" d="M238.14,245.07c-.51.63-.91,1.34-1.09,2.14s-.18,1.63.02,2.43c.16.65.9,1.05,1.54.87,1.14-.32,1.91-1.24,2.3-2.33s.21-2.31.05-3.44c-.04-.29-.34-.61-.57-.75-.27-.16-.66-.22-.96-.13s-.59.29-.75.57c-.17.32-.17.61-.13.96.01.08.02.16.03.24l-.04-.33c.08.63.15,1.26.07,1.9l.04-.33c-.04.27-.11.53-.21.78l.13-.3c-.05.12-.11.24-.18.36-.03.05-.07.15-.12.18l.12-.16s-.05.06-.08.09c-.04.05-.08.09-.13.13-.03.03-.06.05-.09.08l.16-.12c-.07.09-.27.17-.36.21l.3-.13c-.08.03-.15.06-.23.08l1.54.87c-.03-.13-.06-.26-.08-.4l.04.33c-.04-.34-.04-.67,0-1l-.04.33c.05-.36.14-.7.28-1.04l-.13.3c.07-.15.14-.3.23-.45.04-.07.08-.13.13-.2.03-.04.05-.07.08-.11-.13.16-.15.19-.07.09.22-.27.37-.53.37-.88,0-.31-.14-.67-.37-.88-.46-.42-1.33-.54-1.77,0h0Z"/><path class="cls-1" d="M259.38,243.88c-.37.79-.59,1.64-.55,2.52s.27,1.85.81,2.56c.43.55,1.11.89,1.82.7.64-.18,1.04-.71,1.23-1.32.25-.82.24-1.69.08-2.53-.17-.92-.61-1.74-1.2-2.45-.19-.23-.6-.37-.88-.37-.31,0-.67.14-.88.37s-.38.55-.37.88c.02.35.15.61.37.88.11.14-.05-.09-.07-.1.02,0,.06.09.08.11.06.08.11.16.16.25.1.16.18.33.25.5l-.13-.3c.14.35.24.71.29,1.08l-.04-.33c.05.37.05.75,0,1.12l.04-.33c-.03.23-.08.46-.16.68l.13-.3s-.07.15-.08.15c-.07-.03.48-.38.24-.28l.3-.13h-.05c.11,0,.22-.02.33-.03-.04,0-.07,0-.11,0l.33.04s-.07-.02-.1-.03l.3.13c-.18-.09.22.22.07.06s.14.26.04.06c-.06-.12-.12-.23-.18-.36l.13.3c-.13-.32-.22-.66-.27-1l.04.33c-.04-.35-.04-.69,0-1.04l-.04.33c.05-.35.13-.68.27-1l-.13.3c.03-.06.06-.13.09-.19.15-.31.22-.62.13-.96-.08-.29-.3-.6-.57-.75-.56-.29-1.41-.18-1.71.45h0Z"/><path class="cls-1" d="M286.98,237.46c.23.77.68,1.49,1.31,1.99.41.33.79.55,1.28.74.38.15.79.21,1.19.24.83.05,1.4-.84,1.21-1.58-.47-1.79-2.01-3.3-3.83-3.68-.33-.07-.67-.05-.96.13-.26.15-.51.45-.57.75-.07.32-.06.68.13.96.17.26.43.51.75.57.24.05.47.12.69.21l-.3-.13c.31.13.61.31.88.51l-.25-.2c.27.21.51.45.72.72l-.2-.25c.2.26.36.54.5.84l-.13-.3c.07.17.13.34.18.52l1.21-1.58c-.07,0-.14-.01-.21-.02l.33.04c-.24-.03-.47-.1-.69-.19l.3.13c-.23-.1-.45-.23-.66-.38l.25.2c-.2-.16-.38-.33-.54-.53l.2.25c-.16-.2-.28-.42-.38-.65l.13.3c-.04-.09-.07-.18-.1-.28-.09-.31-.3-.59-.57-.75s-.66-.22-.96-.13c-.63.21-1.07.87-.87,1.54h0Z"/><path class="cls-1" d="M77.51,383.43c-.06.3-.1.61-.07.92.05.42.14.74.31,1.13.28.63.84,1.17,1.48,1.41.94.35,1.97-.36,2.18-1.29.11-.51.01-.99-.21-1.45-.11-.23-.27-.44-.42-.64-.37-.51-.74-1.01-1.11-1.52-.2-.27-.41-.48-.75-.57-.3-.08-.7-.05-.96.13s-.5.43-.57.75-.07.7.13.96c.27.38.55.75.82,1.13.25.35.56.69.73,1.08l-.13-.3c.03.08.05.16.07.25l-.04-.33c0,.06,0,.11,0,.17l.04-.33c-.01.06-.03.11-.05.16l.13-.3c-.02.05-.05.1-.08.14l.2-.25s-.05.06-.08.08l.25-.2s-.06.04-.1.06l.3-.13s-.07.02-.11.03l.33-.04s-.05,0-.08,0l.33.04c-.05,0-.1-.02-.15-.04l.3.13c-.06-.03-.12-.07-.17-.11l.25.2c-.12-.09-.22-.2-.32-.32l.2.25c-.1-.13-.18-.28-.25-.43l.13.3c-.06-.16-.1-.31-.13-.48l.04.33c-.02-.15-.02-.3,0-.45l-.04.33s.01-.09.02-.13c.07-.33.05-.66-.13-.96-.15-.26-.45-.51-.75-.57-.32-.07-.68-.06-.96.13-.26.17-.51.43-.57.75h0Z"/><path class="cls-1" d="M94.74,370.52c.09.61.38,1.18.75,1.66.49.63,1.21,1.21,2.04,1.24.48.02.94-.18,1.28-.5.26-.25.47-.61.55-.96.18-.8-.08-1.62-.69-2.17-.27-.24-.57-.44-.89-.62-.24-.13-.48-.25-.69-.41l.25.2c-.11-.09-.21-.18-.3-.29l.2.25c-.04-.06-.08-.11-.11-.17-.15-.27-.45-.49-.75-.57s-.7-.05-.96.13c-.58.37-.79,1.1-.45,1.71.26.48.69.84,1.16,1.11.31.18.64.33.93.56l-.25-.2c.11.09.21.18.29.29l-.2-.25c.06.08.1.16.14.25l-.13-.3c.02.06.04.13.05.19l-.04-.33c0,.08,0,.16,0,.23l.04-.33c-.01.08-.03.15-.06.22l.13-.3c-.03.06-.06.11-.1.17l.2-.25s-.07.08-.11.11l.25-.2s-.08.06-.13.08l.3-.13s-.08.02-.12.03l.33-.04s-.07,0-.11,0l.33.04c-.08-.01-.15-.03-.23-.06l.3.13c-.14-.06-.26-.15-.38-.24l.25.2c-.17-.13-.32-.28-.45-.45l.2.25c-.14-.18-.25-.37-.35-.58l.13.3c-.09-.21-.15-.43-.18-.65-.04-.29-.34-.61-.57-.75-.27-.16-.66-.22-.96-.13s-.59.29-.75.57l-.13.3c-.06.22-.06.44,0,.66h0Z"/><path class="cls-1" d="M104.66,184.41c-.26.47-.43.87-.5,1.15-.06.27-.04.47.03.73.11.52.7,1.31,1.55,1.97.62.5,1.35.82,2.2,1.39.73.48,1.41,1.1,2.06,1.81.64.72,1.25,1.6,1.51,2.67.28,1.06.14,2.2-.29,3.12-.43.92-1.06,1.62-1.73,2.2-1.2,1.03-2.48,1.74-3.75,2.43-.82.43-1.67.84-2.54,1.17-.86.36-1.8.5-2.71.65-.58.07-.53-.09-.15-.45.4-.34,1.07-1.04,1.94-1.56,1.59-.81,3.09-1.79,4.46-2.85,1.32-1.03,2.34-2.26,2.3-3.29.02-.65-.4-1.31-1.12-1.89-.36-.29-.78-.56-1.22-.81-.44-.28-.89-.54-1.38-.82-1.15-.69-2.33-1.46-3.34-2.66-.49-.6-.97-1.34-1.16-2.22-.21-.86-.15-1.82.12-2.59.32-.96.82-1.68,1.25-2.33.43-.65.88-1.28,1.26-1.95,1.17-1.97,2.43-4,2.64-6,.04-.76-.16-1.44-.51-1.99-.43-.52-.92-.95-1.58-1.34l-.41-.25c-.16-.07-.31-.14-.46-.22-.28-.15-.5-.3-.69-.43-.2-.13-.35-.24-.46-.39-.21-.31-.26-.68-.25-1.11,0-.2-.03-.39,0-.55.03-.27.21-.45.59-.62.38-.18.89-.24,1.48-.1.87.26,1.77.56,2.66,1.12.46.21.85.68,1.26,1.06.38.43.74.95,1.01,1.5.56,1.15.7,2.45.59,3.6-.13,1.12-.43,2.15-.81,3.04-.55,1.35-1.23,2.51-1.91,3.61-.7,1.08-1.33,2.23-1.87,3.25l-.07-.04Z"/><path class="cls-1" d="M72.5,162.84c1.1-.49,2.33-.86,3.63-.97,1.3-.11,2.65.07,3.86.48,2.44.85,4.22,2.41,5.73,3.89,1.5,1.48,2.81,3.09,4.04,4.16.3.27.59.45.79.56.11.06.15.07.23.1.14.02.28.06.42.05.54.05,1.1-.12,1.8-.5,1.03-.54,2.15-1.56,3.71-2.39,1.54-.82,3.21-1.32,4.94-1.44,1.52-.12,3.11.04,4.65.62,1.51.57,3.02,1.57,3.91,3.01.45.71.82,1.42,1.05,2.24.27.79.33,1.69.29,2.54-.18,1.72-.89,3.18-1.69,4.34-.8,1.18-1.69,2.18-2.48,3.14-.78.98-1.46,1.94-1.66,2.74-.1.4-.06.63.04.86.12.23.38.54.79.83.82.6,1.99,1.1,3.17,1.65,1.06.5,2.17,1.06,3.24,2,.53.46,1.04,1.13,1.34,1.84.31.72.42,1.51.39,2.24-.08,1.47-.63,2.74-1.34,3.82-.36.54-.76,1.05-1.19,1.51-.45.48-.91.84-1.37,1.25-2.44,1.97-5.31,3.24-8.22,4.03-.73.19-1.46.36-2.19.51-.74.12-1.47.23-2.21.3-1.47.17-2.94.26-4.4.27-1.83,0-1.61-.3-.15-.98,1.46-.69,4.14-1.86,7.15-2.82,2.69-.79,5.2-1.91,7.22-3.51.51-.39.98-.84,1.41-1.27.38-.41.72-.87.99-1.34.56-.94.7-1.92.53-2.35-.09-.25-.18-.37-.47-.63-.31-.26-.81-.55-1.38-.84-1.14-.63-2.54-1.19-4.09-2.15-.76-.51-1.67-1.13-2.36-2.33-.34-.58-.56-1.32-.59-2.01-.05-.71.09-1.32.25-1.88.36-1.08.89-1.85,1.43-2.54.53-.68,1.07-1.24,1.55-1.81,1.15-1.34,2.25-2.65,2.7-3.94.21-.64.23-1.24.09-1.82-.14-.56-.44-1.21-.86-1.71-.81-.98-1.96-1.68-3.43-1.85-1.44-.2-3.03.03-4.46.56-.79.29-1.48.68-2.31,1.23-.82.53-1.71,1.18-2.86,1.67-1.12.51-2.6.77-3.92.5-.75-.13-1.47-.49-1.99-.83-.53-.36-.97-.74-1.38-1.11-1.59-1.52-2.8-3.06-4.18-4.37-1.35-1.31-2.83-2.38-4.41-2.76-1.92-.54-4.1.21-5.9,1.42-1.56,1.02-1.93,3.28-1.58,5.55.24,1.72.77,3.47,1.41,5.18.64,1.73,1.41,3.37,2.16,5.17.09.22.23.6.28.91.04.17.03.33,0,.5-.02.17-.01.34-.05.5-.12.66-.5,1.26-.96,1.72-.91.87-1.89,1.23-2.81,1.57-.92.33-1.83.6-2.7.88-.88.27-1.72.57-2.46.92-1.15.58-2.12,1.41-2.66,2.47-.55,1.05-.72,2.26-.52,3.46.43,2.42,2.15,4.52,4.28,5.98.94.66,1.96,1.16,3.04,1.65,2.02.89,3.46,1.33,4.43,1.82.48.26.85.49,1.15.73.29.26.51.53.7.79.17.24.42.47.51.65.15.3-.26.41-1.18.52-.92.12-2.29-.04-4.02-.53-2.55-.73-5.2-1.8-7.54-3.65-2.3-1.83-4.34-4.54-4.73-8-.2-1.7.11-3.59,1.02-5.19.89-1.61,2.31-2.84,3.8-3.63,1.56-.8,2.9-1.2,4.21-1.54,1.26-.33,2.55-.71,3.07-1.07.21-.15.14-.09.15-.1,0,0,0,0,0,0l-.22-.5-.3-.66-.64-1.38c-.86-1.87-1.68-3.83-2.3-5.94-.58-2.11-1.09-4.4-.61-7.07.25-1.32.88-2.76,1.94-3.83.26-.27.53-.53.83-.74l.44-.33.38-.23c.49-.32,1.03-.6,1.58-.86l.05.08Z"/><path class="cls-1" d="M438.48,185.12c-.74,1.83-.64,3.88.08,5.91.25.74.66,1.42,1,2.15.31.64.65,1.27,1.03,1.89.37.61.82,1.22,1.24,1.98.41.73.79,1.68.68,2.7-.1,1-.58,1.79-1.07,2.44-.87,1.13-1.81,2.14-2.83,3.07-1.32,1.17-2.77,2.26-4.47,2.79-.54.14-.52-.02-.24-.45.27-.47.8-1.16,1.54-1.74,1.31-1.04,2.5-2.2,3.53-3.48.51-.65,1.03-1.33,1.3-1.91.28-.62.32-1.01.12-1.62-.25-.74-.96-1.52-1.66-2.44-.68-.9-1.35-1.85-1.87-2.88-1.1-2.26-1.79-4.93-1.3-7.57.29-1.64,1.02-3,1.52-4.3.4-1,.62-1.91.67-2.97.06-1.03-.05-2.06-.38-2.98-.26-.71-.69-1.31-1.23-1.77-.54-.45-1.2-.71-1.87-.93-.31-.06-.62-.11-.94-.17-1.2-.14-1.6-.38-1.87-1.05-.06-.15-.15-.31-.19-.46-.14-.49.44-.93,1.6-1.06,1.67-.05,3.68.47,5.21,1.94,1.5,1.49,2.17,3.57,2.24,5.42.04.7.02,1.38-.05,2.05-.06.7-.24,1.46-.44,2.09-.42,1.29-.96,2.37-1.29,3.36l-.06-.02Z"/><path class="cls-1" d="M482.16,195.88c-.84.81-1.58,1.68-2.01,2.62-.45.94-.52,1.89-.24,2.87.2.72.65,1.42,1.12,2.13.42.64.89,1.27,1.37,1.94.49.69.96,1.42,1.3,2.23.34.81.59,1.69.61,2.62.03.92-.24,1.89-.77,2.64-.46.67-1.07,1.16-1.66,1.61-.6.44-1.22.84-1.86,1.18-1.65.87-3.49,1.5-5.37,1.49-.59-.03-.51-.16-.05-.41.45-.28,1.25-.64,2.2-.96,1.68-.56,3.25-1.44,4.56-2.55.63-.57,1.09-1.17,1.24-1.84.18-.66.09-1.42-.16-2.19-.32-.92-.85-1.84-1.52-2.7-.69-.89-1.47-1.79-2.1-2.87-.69-1.16-1.22-2.66-.98-4.16.2-1.49.97-2.74,1.83-3.75,1.06-1.27,2.37-2.23,3.52-3.21.88-.75,1.72-1.53,2.35-2.43.31-.45.57-.93.75-1.43.17-.48.27-1.06.37-1.63.32-1.74.21-3.48-.76-4.64l-.33-.36c-.13-.11-.26-.22-.38-.33-1-.79-1.39-1.02-1.43-1.62-.01-.13-.05-.28-.04-.4.02-.21.19-.32.51-.32.32,0,.77.11,1.3.4.78.44,1.55,1.05,2.12,1.9.57.84.88,1.87.95,2.85.08.98-.03,1.92-.19,2.79-.09.46-.15.82-.27,1.32-.12.51-.31.98-.53,1.44-1.41,2.67-3.78,4.16-5.41,5.8l-.03-.03Z"/><path class="cls-1" d="M431.18,173.55l-2.44,1.12c-.87.39-1.89.76-2.93.98-1.05.21-2.19.31-3.4.07-1.18-.2-2.47-.92-3.25-1.77-.4-.4-.7-.79-.98-1.12-.27-.34-.52-.57-.78-.84-.26-.27-.57-.48-.85-.73-.32-.2-.62-.44-.96-.61-1.33-.74-2.85-1.19-4.41-1.3-2.28-.16-4.57.52-6.36,1.75-3.19,2.17-4.69,6.72-3.73,10.64.24.97.6,1.92,1.12,2.77.52.83,1.18,1.6,2,2.42.81.82,1.65,1.73,2.38,2.88.7,1.17,1.19,2.51,1.12,4.02-.04.66-.22,1.35-.53,1.97-.32.62-.77,1.13-1.23,1.53-.92.8-1.84,1.29-2.49,1.86-.66.56-.98,1.12-1.05,1.83-.07.69.16,1.5.58,2.23.53.97,1.32,1.8,2.24,2.5.94.73,1.98,1.36,3.08,1.84,2.22.96,4.59,1.51,7.11,1.74,1.57.11,1.46.31.12,1.01-.67.33-1.69.79-3.01,1.01-.65.11-1.39.2-2.16.16-.76-.07-1.57-.2-2.38-.47-1.44-.45-2.82-1.1-4.11-1.93-.65-.41-1.25-.85-1.9-1.42-.6-.58-1.13-1.22-1.59-1.92-.9-1.4-1.67-3.18-1.38-5.35.16-1.06.66-2.13,1.34-2.89.67-.78,1.38-1.26,1.97-1.67.6-.4,1.09-.71,1.43-1,.34-.29.49-.49.58-.71.19-.45.05-1.36-.41-2.19-.41-.8-1.28-1.66-2.18-2.66-.46-.5-.95-1.05-1.42-1.66-.46-.64-.91-1.31-1.24-2.02-1.67-3.4-1.83-7.32-.67-10.85.58-1.76,1.53-3.44,2.84-4.82,1.32-1.38,2.98-2.4,4.74-3,1.94-.67,3.99-.86,5.99-.62,1.99.24,3.95.88,5.65,1.99.43.27.84.56,1.23.9.41.31.75.69,1.11,1.05.7.76,1.18,1.47,1.69,1.87.96.82,2.56.86,4.11.42,1.89-.51,3.8-1.83,6.18-2.5,1.17-.34,2.55-.45,3.83-.15,1.27.3,2.42.93,3.37,1.75.72.62,1.32,1.37,1.83,2.17.48.82.84,1.71,1.05,2.65.18.95.2,1.94.02,2.91-.22.98-.61,1.86-1.05,2.61-.88,1.53-1.67,2.8-1.6,4.23,0,1.43.61,2.89,1.4,4.29.62,1.1,1.33,2.17,2.02,3.3.68,1.13,1.37,2.32,1.78,3.72.44,1.38.5,3.01-.01,4.49-.5,1.5-1.57,2.75-2.71,3.63-1.01.78-2.03,1.39-3.07,1.93-1.93.99-3.08,1.53-3.95,1.85-.42.17-.78.26-1.09.33-.33.05-.65.04-.94.03-.27-.01-.6.03-.82,0-.37-.07-.33-.48.11-1.29.45-.78,1.49-1.69,2.89-2.53,2.06-1.2,4.21-2.14,5.53-3.41,1.29-1.24,1.64-2.71,1.04-4.49-.61-1.8-2.05-3.71-3.34-5.93-.64-1.14-1.28-2.39-1.65-3.89-.07-.39-.17-.76-.2-1.16-.02-.41-.04-.82-.04-1.23.09-.82.2-1.69.51-2.43.42-1.11.96-1.96,1.38-2.71.43-.74.72-1.37.84-1.89.24-1.12-.06-2.47-.81-3.6-.73-1.13-1.89-2.03-3.06-2.31-.61-.13-1.13-.18-1.82-.04-.67.13-1.38.39-2.15.73l-.04-.07Z"/><path class="cls-1" d="M486.68,189.75c1.05-1.42,1.08-3.96-.15-5.65-.6-.88-1.47-1.63-2.48-2.17-1.03-.55-2.1-.87-3.36-.99-.93-.11-1.97-.12-3.09-.21-1.12-.1-2.37-.29-3.59-.87-1.06-.51-2.12-1.31-2.81-2.4-.7-1.07-.99-2.24-1.14-3.26-.27-2.06-.14-3.85-.45-5.33-.07-.37-.18-.69-.3-1.01-.19-.33-.32-.71-.54-1.02-.38-.67-.9-1.22-1.45-1.73-.59-.47-1.24-.87-1.96-1.16-.73-.26-1.49-.46-2.29-.54-2.86-.27-5.92.82-8.15,2.71-1.46,1.19-2.6,2.75-3.26,4.48-.33.86-.65,1.75-.77,2.69-.09.47-.11.95-.17,1.43,0,.48-.04.99.01,1.48.09,1.24-.07,1.17-.71.18-.17-.25-.33-.56-.51-.94-.2-.37-.38-.81-.55-1.32-.32-1.01-.48-2.3-.22-3.67.53-2.41,1.91-4.57,3.63-6.27,1.75-1.69,3.9-2.92,6.24-3.62,2.34-.65,4.95-.85,7.44,0,1.23.42,2.41,1.07,3.42,1.92,1,.87,1.79,1.92,2.39,3.03.16.34.33.67.49,1.02.14.38.3.78.38,1.15.22.77.29,1.49.37,2.2.12,1.39.15,2.66.33,3.77.21,1.09.54,1.91,1.18,2.42.63.55,1.58.92,2.7,1.09,1.23.21,2.66.22,4.22.44,1.58.21,3.19.75,4.58,1.6,1.4.85,2.64,2.02,3.51,3.46.87,1.46,1.33,3.12,1.3,4.81-.02,1.03-.21,2.08-.63,3.05-.4.98-1.06,1.88-1.76,2.56-1.42,1.4-3,2.31-4.3,3.32-1,.75-1.85,1.54-2.22,2.45-.38.92-.34,1.93.14,2.98.45,1.06,1.23,2.11,1.96,3.27.73,1.15,1.5,2.47,1.73,4.07.33,2.48-.68,4.84-2.19,6.6-1.56,1.8-3.73,2.91-5.92,3.47-.97.25-1.92.43-2.9.5-3.61.12-4.59-.48-5.24-1.49-.14-.24-.34-.48-.41-.7-.26-.75,1.2-1.28,3.53-1.46,1.71-.16,3.36-.36,4.81-.84.72-.24,1.39-.55,2-.93.6-.36,1.09-.79,1.52-1.31.88-1.02,1.33-2.3,1.22-3.31-.05-.49-.26-1.07-.62-1.75-.37-.67-.89-1.4-1.45-2.24-.42-.63-.86-1.32-1.26-2.14-.4-.81-.74-1.82-.83-2.93-.08-1.1.08-2.25.53-3.27.44-1.01,1.08-1.86,1.73-2.52,1.3-1.31,2.62-2.1,3.74-2.87,1.12-.76,2.03-1.5,2.53-2.23l.08.04Z"/><path class="cls-1" d="M243.31,179.51c.92,1.25,2.23,2.12,3.65,2.73s3.05,1.07,4.67,1.01c2.6-.09,5.15-1.35,5.82-4.04.26-1.04.24-2.16-.04-3.2-.47-1.7-3.12-.98-2.65.73.04.14.13.79.09.33.02.2.04.4.04.6,0,.21-.01.42-.04.63.04-.42,0,0-.03.09-.03.12-.06.24-.1.36-.03.09-.06.18-.1.27.14-.36-.03.03-.07.11-.07.12-.14.22-.21.33.18-.28.01-.02-.04.04-.1.1-.2.19-.3.29-.12.1-.11.09.02-.01-.06.04-.12.09-.19.13-.1.06-.2.12-.31.18-.07.04-.15.07-.22.11.14-.06.13-.05-.03,0-1.41.44-2.65.39-4.06-.04-.77-.23-1.44-.52-2.15-.94-.16-.1-.32-.19-.48-.3-.05-.03-.37-.27-.27-.2-.15-.12-.29-.25-.42-.38-.04-.04-.37-.43-.21-.22-.44-.6-1.19-.9-1.88-.49-.59.34-.94,1.28-.49,1.88h0Z"/><path class="cls-1" d="M268.94,173.24c0,.16-.01.31-.03.47,0,.06-.01.13-.02.19.02-.16.02-.15,0,0-.05.23-.09.47-.16.69-.03.11-.07.21-.11.32-.1.3.1-.18-.03.07-.11.2-.21.39-.33.58-.18.29.13-.11-.06.07-.07.07-.13.14-.2.21s-.14.13-.21.19c.25-.24.05-.04-.03.01-.09.06-.19.12-.28.17-.04.02-.34.17-.14.08s-.16.05-.2.07c-.09.03-.19.06-.28.08s-.19.04-.29.06c.36-.08.05,0-.04,0-.23.02-.46.02-.69,0-.07,0-.48-.05-.13,0-.11-.02-.23-.04-.34-.06-.23-.05-.47-.11-.69-.18-.12-.04-.24-.08-.35-.12-.08-.03-.16-.06-.24-.09.11.05.12.05.03.01-.27-.12-.53-.25-.79-.4-.51-.28-1.09-.68-1.45-.97-.58-.47-1.38-.56-1.94,0-.48.48-.58,1.48,0,1.94,2.13,1.72,4.95,3.17,7.76,2.43s3.91-3.26,4-5.84c.02-.74-.65-1.38-1.38-1.38-.77,0-1.35.63-1.38,1.38h0Z"/><path class="cls-1" d="M257.77,197.84c1.42,1.45,3.37,2.36,5.37,2.63s4.04-.23,5.14-2c.41-.67.16-1.68-.54-2.05s-1.61-.17-2.05.54c-.1.16-.19.15.04-.03-.05.04-.09.11-.14.15s-.1.09-.15.14c-.2.2.29-.18.04-.03-.13.08-.27.15-.4.22-.16.09.33-.11.08-.04-.08.02-.17.05-.25.08-.13.04-.32.04-.44.09.25-.12.24-.03.03-.01-.08,0-.16,0-.24.01-.18,0-.36,0-.54-.01-.08,0-.17-.02-.25-.02-.14,0,.34.06,0,0s-.72-.15-1.07-.26c-.19-.06-.37-.14-.56-.2-.18-.06.26.13,0,0-.1-.05-.2-.09-.29-.14-.35-.18-.7-.38-1.02-.61-.04-.03-.28-.22-.11-.07s-.06-.05-.1-.08c-.16-.14-.31-.28-.46-.43-.55-.56-1.58-.59-2.12,0s-.59,1.52,0,2.12h0Z"/><path class="cls-1" d="M243.53,173.37c.48-.59,1.03-1.13,1.61-1.62.15-.13.31-.25.46-.38-.28.22.05-.03.08-.06.08-.06.17-.12.25-.18.37-.26.76-.51,1.16-.73.2-.11.4-.22.61-.32.09-.04.19-.08.28-.13.16-.08-.23.09.04-.02.41-.16.82-.29,1.24-.38.09-.02.19-.03.28-.05.18-.04-.3.02,0,0,.22,0,.44-.02.66-.01.05,0,.36.05.12,0s.07.02.12.03c.1.02.21.05.31.08.09.03.39.16.04,0,.71.32,1.65.23,2.05-.54.35-.65.23-1.71-.54-2.05-2.13-.95-4.37-.44-6.37.6-1.68.88-3.3,2.13-4.5,3.61-.49.61-.64,1.53,0,2.12.55.5,1.59.65,2.12,0h0Z"/><path class="cls-1" d="M260.67,169.37c-.08.24-.2.48-.2.74-.01.13-.06.25-.06.4l.02.45c.02.61.18,1.3.39,1.97.16.5.43.96.64,1.46.38.88.79,1.77,1.27,2.64.44.89.93,1.77,1.46,2.63.47.77,1.04,1.46,1.54,2.2.34.46.69.92,1.03,1.39l.24.36.19.41c.12.27.24.56.35.84.13.36-.04.42-.47.37-.21-.03-.49-.08-.82-.15-.16-.04-.33-.08-.5-.14-.09-.03-.16-.07-.26-.09-.06-.05-.13-.1-.2-.16-.87-.82-1.82-1.59-2.53-2.57-.73-.96-1.38-2-1.95-3.1-.64-1.34-1.51-2.61-2.12-4.05-.63-1.58-1.18-3.32-.94-5.28.17-1.18.72-2.31,1.53-3.16.61-.65,1.36-1.09,2.12-1.45.77-.31,1.56-.56,2.36-.7,1.23-.23,2.48-.42,3.81-.25.29.02.59.08.88.16.55.15.88.4,1.01.7.14.3.13.57.02.9-.05.15-.09.3-.16.43-.25.43-.79.55-1.37.64-1.53-.18-3.38-.19-4.92.39-1.14.43-1.95,1.11-2.29,2.01l-.07-.02Z"/><path class="cls-1" d="M308.21,105.09c-.17.18-.42.13-.76-.04-.11-.05-.28-.31-.24-.39.08-.16.16-.32.25-.46.04-.1,1.33-1.02,1.85-1.24.48-.24,1-.41,1.53-.5,1.08-.2,2.21-.22,3.34-.01.25.05.49.13.71.27.76.45,1.5.87,2.21,1.34.12.08.22.18.39.2.13.02.66.4,1.1.89.45.48.81,1.04.86,1.19.27.72.49,1.44.6,2.17.02.1.08.2,0,.32-.18.28-.09.47-.08.7.03.3.02.61-.03.91-.03.15-.16.3-.25.45-.09.13-.43.07-.47.03-.12-.11-.27,0-.41,0-.05,0-.11.01-.15,0-.05,0-.24-.35-.48-.67-.24-.32-.51-.61-.53-.67,0,0-.04-.12-.12-.29-.07-.17-.18-.38-.31-.59-.25-.42-.58-.82-.66-.88-.08-.08-.09-.2-.13-.3,0-.03-.27-.3-.57-.53-.29-.24-.6-.43-.63-.44-.22-.2-.49-.29-.64-.61-.03-.06-.09-.08-.14-.11-.47-.23-.93-.44-1.41-.67-.25-.11-.53-.15-.8-.2-.05,0-.1-.05-.14-.07-.06-.03-.12-.06-.19-.06-.66-.06-1.36-.13-2.02.05-.14.03-.95.05-1.11.16-.09.04-.52-.04-.58.05Z"/><path class="cls-1" d="M315.66,97.82c-.16.16-.38-.01-.68-.34-.09-.11-.22-.47-.18-.55.09-.14.18-.29.29-.41.05-.09,1.32-.69,1.81-.8.45-.17.92-.2,1.39-.22.95-.01,1.91.15,2.81.44.2.06.4.14.57.28.6.42,1.22.74,1.85,1.09.1.06.2.14.34.13.13-.02.59.28,1.02.63.42.36.81.78.87.9.16.32.3.6.44.88.13.3.25.6.36.9.03.08.11.16.05.28-.14.29-.02.43.04.61.1.24.14.51.15.78,0,.13-.1.3-.18.45-.07.13-.47.18-.53.16-.15-.06-.31.07-.46.12-.05.02-.12.04-.17.05-.05,0-.34-.22-.6-.44-.27-.22-.56-.41-.58-.47,0-.02-.24-.35-.5-.68-.3-.31-.6-.63-.69-.67-.08-.05-.1-.16-.14-.26.01-.08-1.1-.75-1.15-.77-.19-.19-.47-.24-.59-.57-.03-.06-.08-.08-.13-.11-.43-.19-.82-.46-1.26-.66-.22-.11-.47-.13-.7-.2-.04-.01-.08-.05-.12-.08-.05-.03-.1-.06-.16-.07-.56-.08-1.14-.31-1.72-.21-.13,0-.8-.16-.95-.1-.08.01-.44-.21-.51-.13Z"/></svg>